<?xml version="1.0" encoding="UTF-8"?>
<svg viewBox="0 0 128.75 102.19" xmlns="http://www.w3.org/2000/svg">
 <g fill="none" stroke="#000" stroke-width="5">
  <line x1="92.338" x2="98.401" y1="84.811" y2="94.654"/>
  <line x1="95.724" x2="105.09" y1="95.835" y2="92.134"/>
  <line x1="85.96" x2="84.07" y1="87.331" y2="96.622"/>
  <line x1="81.866" x2="90.763" y1="95.362" y2="99.614"/>
  <line x1="25.094" x2="27.929" y1="86.701" y2="96.386"/>
  <line x1="25.96" x2="36.118" y1="98.04" y2="94.339"/>
  <line x1="18.165" x2="13.992" y1="85.205" y2="95.047"/>
  <line x1="11.944" x2="21.078" y1="93.709" y2="100.01"/>
 </g>
 <path d="m58.37 31.83c-28.028 0-50.745 21.829-50.745 48.764 0 1.6754 0.089387 3.3393 0.26102 4.9712 13.741 3.1954 30.261 5.0662 48.04 5.0662 19.995 0 38.4-2.3658 53.047-6.3238 0.095581-1.2231 0.15424-2.467 0.15424-3.7136 0-26.935-22.728-48.764-50.757-48.764z" fill="#f00"/>
 <g fill-rule="evenodd" stroke="#000" stroke-linecap="round" stroke-linejoin="round" stroke-width="3">
  <path d="m34.279 73.586c0 5.1399-4.1667 9.3066-9.3066 9.3066s-9.3066-4.1667-9.3066-9.3066 4.1667-9.3066 9.3066-9.3066 9.3066 4.1667 9.3066 9.3066z"/>
  <path d="m60.667 47.775c0 5.1399-4.1667 9.3066-9.3066 9.3066s-9.3066-4.1667-9.3066-9.3066 4.1667-9.3066 9.3066-9.3066 9.3066 4.1667 9.3066 9.3066z"/>
  <path d="m80.025 75.599c0 5.1399-4.1667 9.3066-9.3066 9.3066s-9.3066-4.1667-9.3066-9.3066 4.1667-9.3066 9.3066-9.3066 9.3066 4.1667 9.3066 9.3066z"/>
 </g>
 <g stroke="#000">
  <g fill-rule="evenodd" stroke-linecap="round" stroke-linejoin="round" stroke-width="3">
   <path d="m102.35 7.1214c0 1.7907-1.4517 3.2424-3.2424 3.2424s-3.2424-1.4517-3.2424-3.2424 1.4517-3.2424 3.2424-3.2424 3.2424 1.4517 3.2424 3.2424z"/>
   <path d="m121.12 10.423c0 1.7907-1.4517 3.2424-3.2424 3.2424s-3.2424-1.4517-3.2424-3.2424 1.4517-3.2424 3.2424-3.2424 3.2424 1.4517 3.2424 3.2424z"/>
  </g>
  <path d="m74.265 25.17c9.9304-8.8691 24.163-8.7596 35.225-2.9 16.922 9.1314 8.3096 31.594-1.3525 38.395-10.862 7.8407-20.189 7.2937-27.576 0.57998-7.6632-6.3901-17.229-24.376-6.2969-36.075z" stroke-width="1.365"/>
 </g>
 <g transform="matrix(.90819 0 0 .90819 359.3 566.45)">
  <path d="m-267.4-584.71c0 5.6084-4.5465 10.155-10.155 10.155-5.6084 0-10.155-4.5465-10.155-10.155s4.5465-10.155 10.155-10.155c5.6084 0 10.155 4.5465 10.155 10.155z" fill="#fff"/>
  <g stroke="#000" stroke-width=".1">
   <path d="m-270.88-584.97c0 4.275-3.0424 7.7405-6.7955 7.7405-3.753 0-6.7955-3.4656-6.7955-7.7405 0-4.275 3.0424-7.7405 6.7955-7.7405 3.753 0 6.7955 3.4655 6.7955 7.7405z"/>
   <path d="m-274.22-588.89c0 1.4053-1.1392 2.5444-2.5445 2.5444s-2.5445-1.1392-2.5445-2.5444c0-1.4053 1.1392-2.5446 2.5445-2.5446s2.5445 1.1392 2.5445 2.5446z" fill="#fff"/>
  </g>
 </g>
 <g transform="matrix(.90819 0 0 .90819 337.77 566.45)">
  <path d="m-267.4-584.71c0 5.6084-4.5465 10.155-10.155 10.155-5.6084 0-10.155-4.5465-10.155-10.155s4.5465-10.155 10.155-10.155c5.6084 0 10.155 4.5465 10.155 10.155z" fill="#fff"/>
  <g stroke="#000" stroke-width=".1">
   <path d="m-270.88-584.97c0 4.275-3.0424 7.7405-6.7955 7.7405-3.753 0-6.7955-3.4656-6.7955-7.7405 0-4.275 3.0424-7.7405 6.7955-7.7405 3.753 0 6.7955 3.4655 6.7955 7.7405z"/>
   <path d="m-274.22-588.89c0 1.4053-1.1392 2.5444-2.5445 2.5444s-2.5445-1.1392-2.5445-2.5444c0-1.4053 1.1392-2.5446 2.5445-2.5446s2.5445 1.1392 2.5445 2.5446z" fill="#fff"/>
  </g>
 </g>
 <g fill="none" stroke-linecap="round" stroke-linejoin="round">
  <path d="m87.305 54.746c7.0583 5.2723 13.043 3.6717 18.703 0" stroke="#fff" stroke-width="1.418"/>
  <g stroke="#000" stroke-width="4.3">
   <path d="m86.355 19.708c1.8876-9.8331 1.8664-24.586 11.905-13.408"/>
   <path d="m102 18.625c4.7265-8.8268 9.094-22.919 15.354-9.2609"/>
  </g>
 </g>
</svg>
