<?xml version="1.0" encoding="UTF-8"?>
<svg viewBox="0 0 400 300" xmlns="http://www.w3.org/2000/svg" xmlns:xlink="http://www.w3.org/1999/xlink">
 <defs>
  <filter id="c">
   <feGaussianBlur stdDeviation=".2049"/>
  </filter>
  <filter id="bi">
   <feGaussianBlur stdDeviation=".5587"/>
  </filter>
  <filter id="h">
   <feGaussianBlur stdDeviation=".237"/>
  </filter>
  <filter id="d" x="-.0927" y="-.12515" width="1.1854" height="1.2503">
   <feGaussianBlur stdDeviation="1.1174"/>
  </filter>
  <filter id="g" x="-.16469" y="-.12998" width="1.3294" height="1.26">
   <feGaussianBlur stdDeviation="1.398"/>
  </filter>
  <filter id="f" x="-.3824" y="-.29605" width="1.7648" height="1.5921">
   <feGaussianBlur stdDeviation=".6829"/>
  </filter>
  <filter id="e" x="-.10012" y="-.02158" width="1.2002" height="1.0432">
   <feGaussianBlur stdDeviation=".5672"/>
  </filter>
  <linearGradient id="i">
   <stop stop-color="#fff" offset="0"/>
   <stop stop-color="#101010" stop-opacity="0" offset="1"/>
  </linearGradient>
  <linearGradient id="l">
   <stop stop-color="#c9c9c9" offset="0"/>
   <stop stop-color="#c9c9c9" stop-opacity="0" offset="1"/>
  </linearGradient>
  <linearGradient id="j">
   <stop stop-color="#c6c6c6" offset="0"/>
   <stop stop-color="#c6c6c6" stop-opacity="0" offset="1"/>
  </linearGradient>
  <linearGradient id="m">
   <stop stop-color="#bdbdbd" offset="0"/>
   <stop stop-color="#bdbdbd" stop-opacity="0" offset="1"/>
  </linearGradient>
  <linearGradient id="n">
   <stop stop-color="#bfe9c5" stop-opacity=".8491" offset="0"/>
   <stop stop-color="#bcd8c0" stop-opacity="0" offset="1"/>
  </linearGradient>
  <linearGradient id="o">
   <stop stop-color="#6aa865" offset="0"/>
   <stop stop-color="#266f20" offset="1"/>
  </linearGradient>
  <linearGradient id="p">
   <stop stop-color="#001503" offset="0"/>
   <stop stop-color="#3e7046" offset="1"/>
  </linearGradient>
  <linearGradient id="k">
   <stop stop-color="#89b990" offset="0"/>
   <stop stop-color="#69946f" offset=".1958"/>
   <stop stop-color="#0e5b18" offset=".6938"/>
   <stop stop-color="#0b280f" offset="1"/>
  </linearGradient>
  <linearGradient id="q">
   <stop stop-color="#89b990" offset="0"/>
   <stop stop-color="#69946f" offset=".2416"/>
   <stop stop-color="#0e5b18" offset=".5239"/>
   <stop stop-color="#0b280f" offset="1"/>
  </linearGradient>
  <linearGradient id="bf" x1="107.33" x2="169.5" y1="400.54" y2="357.1" gradientUnits="userSpaceOnUse">
   <stop stop-color="#ffdbc5" offset="0"/>
   <stop stop-color="#ebd0c0" offset=".3622"/>
   <stop stop-color="#8a7b72" offset="1"/>
  </linearGradient>
  <linearGradient id="be" x1="264.23" x2="257.84" y1="426.91" y2="451.66" gradientUnits="userSpaceOnUse">
   <stop stop-color="#89b990" offset="0"/>
   <stop stop-color="#69946f" offset=".1441"/>
   <stop stop-color="#0e5b18" offset=".3151"/>
   <stop stop-color="#0b280f" offset="1"/>
  </linearGradient>
  <linearGradient id="bb" x1="106.82" x2="110.5" y1="362.03" y2="359.35" gradientUnits="userSpaceOnUse">
   <stop stop-color="#c0c0c0" offset="0"/>
   <stop stop-color="#c0c0c0" stop-opacity="0" offset="1"/>
  </linearGradient>
  <linearGradient id="az" x1="118.43" x2="132.9" gradientUnits="userSpaceOnUse">
   <stop stop-color="#868686" offset="0"/>
   <stop stop-color="#868686" stop-opacity="0" offset="1"/>
  </linearGradient>
  <linearGradient id="ay" x1="98.3" x2="108.67" gradientUnits="userSpaceOnUse">
   <stop stop-color="#8c8c8c" offset="0"/>
   <stop stop-color="#8c8c8c" stop-opacity="0" offset="1"/>
  </linearGradient>
  <linearGradient id="ax" x1="142.71" x2="158.18" gradientUnits="userSpaceOnUse">
   <stop stop-color="#989898" offset="0"/>
   <stop stop-color="#989898" stop-opacity="0" offset="1"/>
  </linearGradient>
  <linearGradient id="aw" x1="161.28" x2="178.89" gradientUnits="userSpaceOnUse">
   <stop stop-color="#9e9e9e" offset="0"/>
   <stop stop-color="#9e9e9e" stop-opacity="0" offset="1"/>
  </linearGradient>
  <linearGradient id="av" x1="181.29" x2="186.98" y1="369.32" y2="363.07" gradientUnits="userSpaceOnUse">
   <stop stop-color="#b1b1b1" offset="0"/>
   <stop stop-color="#b1b1b1" stop-opacity="0" offset="1"/>
  </linearGradient>
  <linearGradient id="au" x1="161.07" x2="165.86" y1="385.22" y2="379.51" gradientUnits="userSpaceOnUse">
   <stop stop-color="#b4b4b4" offset="0"/>
   <stop stop-color="#b4b4b4" stop-opacity="0" offset="1"/>
  </linearGradient>
  <linearGradient id="at" x1="167.89" x2="173.36" y1="379.23" y2="375.12" gradientUnits="userSpaceOnUse">
   <stop stop-color="#aaa" offset="0"/>
   <stop stop-color="#aaa" stop-opacity="0" offset="1"/>
  </linearGradient>
  <linearGradient id="ap" x1="113.53" x2="122.64" y1="406.44" y2="403.4" gradientUnits="userSpaceOnUse">
   <stop stop-color="#d5d5d5" offset="0"/>
   <stop stop-color="#d5d5d5" stop-opacity="0" offset="1"/>
  </linearGradient>
  <linearGradient id="an" x1="382.57" x2="392.2" y1="312.26" y2="356.55" gradientUnits="userSpaceOnUse">
   <stop stop-color="#005d0f" offset="0"/>
   <stop stop-color="#002105" offset="1"/>
  </linearGradient>
  <linearGradient id="am" x1="477.26" x2="470.28" y1="158.38" y2="200.8" gradientUnits="userSpaceOnUse">
   <stop stop-color="#589060" offset="0"/>
   <stop stop-color="#34643b" offset=".7879"/>
   <stop stop-color="#113917" offset="1"/>
  </linearGradient>
  <linearGradient id="bh" x1="448.26" x2="451.54" y1="317.98" y2="314.7" gradientUnits="userSpaceOnUse">
   <stop stop-color="#101010" stop-opacity=".7075" offset="0"/>
   <stop stop-color="#101010" stop-opacity="0" offset="1"/>
  </linearGradient>
  <linearGradient id="bg" x1="427" x2="438.52" y1="375.4" y2="363.92" gradientUnits="userSpaceOnUse">
   <stop stop-color="#101010" stop-opacity=".7123" offset="0"/>
   <stop stop-color="#101010" stop-opacity="0" offset="1"/>
  </linearGradient>
  <linearGradient id="bd" x1="97.714" x2="100.86" y1="394.06" y2="389.95" gradientUnits="userSpaceOnUse" xlink:href="#j"/>
  <linearGradient id="bc" x1="101.29" x2="105.28" y1="380.93" y2="377" gradientUnits="userSpaceOnUse" xlink:href="#m"/>
  <linearGradient id="ba" x1="109.07" x2="114.96" y1="348.36" y2="346.58" gradientUnits="userSpaceOnUse" xlink:href="#m"/>
  <linearGradient id="as" x1="150.56" x2="155.15" y1="393.36" y2="388.36" gradientUnits="userSpaceOnUse" xlink:href="#j"/>
  <linearGradient id="ar" x1="138.04" x2="146.21" gradientUnits="userSpaceOnUse" xlink:href="#j"/>
  <linearGradient id="aq" x1="126.29" x2="133.48" gradientUnits="userSpaceOnUse" xlink:href="#l"/>
  <linearGradient id="ao" x1="93.607" x2="99.071" y1="402.81" y2="401.2" gradientUnits="userSpaceOnUse" xlink:href="#l"/>
  <radialGradient id="af" cx="396.86" cy="388.39" r="14.805" gradientTransform="matrix(.79452 .60724 -1.3991 1.8306 621.25 -562.97)" gradientUnits="userSpaceOnUse">
   <stop stop-color="#89b990" offset="0"/>
   <stop stop-color="#69946f" offset=".2267"/>
   <stop stop-color="#0e5b18" offset=".6938"/>
   <stop stop-color="#0b280f" offset="1"/>
  </radialGradient>
  <radialGradient id="ae" cx="408.04" cy="398.75" r="14.903" gradientTransform="matrix(.5545 .31215 -1.0829 1.9238 613.61 -494.01)" gradientUnits="userSpaceOnUse">
   <stop stop-color="#89b990" offset="0"/>
   <stop stop-color="#69946f" offset=".1958"/>
   <stop stop-color="#0e5b18" offset=".7369"/>
   <stop stop-color="#0b280f" offset="1"/>
  </radialGradient>
  <radialGradient id="y" cx="189.28" cy="293.59" r="19.824" gradientTransform="matrix(1.5732 -.01163 .0081 1.0957 -110.87 -25.888)" gradientUnits="userSpaceOnUse">
   <stop stop-color="#1e8d1d" offset="0"/>
   <stop stop-color="#1e8d1d" stop-opacity="0" offset="1"/>
  </radialGradient>
  <radialGradient id="x" cx="186.19" cy="294.49" r="10.175" gradientTransform="matrix(1 0 0 .7704 0 67.617)" gradientUnits="userSpaceOnUse">
   <stop stop-color="#51b751" offset="0"/>
   <stop stop-color="#51b751" stop-opacity=".5142" offset="1"/>
  </radialGradient>
  <radialGradient id="w" cx="242.49" cy="317.68" r="45.208" gradientTransform="matrix(-2.6756 -.68771 .82601 -3.2137 607.37 1481.3)" gradientUnits="userSpaceOnUse">
   <stop stop-color="#075600" offset="0"/>
   <stop stop-color="#021900" offset="1"/>
  </radialGradient>
  <radialGradient id="v" cx="289.64" cy="380.83" r="25.5" gradientTransform="matrix(1 0 0 .35331 0 246.28)" gradientUnits="userSpaceOnUse">
   <stop stop-color="#001002" stop-opacity=".7217" offset="0"/>
   <stop stop-color="#003d09" stop-opacity="0" offset="1"/>
  </radialGradient>
  <radialGradient id="al" cx="257.68" cy="399.94" r="21.393" gradientTransform="matrix(.83382 1.5793 -1.2232 .64582 532.75 -264.59)" gradientUnits="userSpaceOnUse">
   <stop stop-color="#101010" stop-opacity=".5472" offset="0"/>
   <stop stop-color="#607162" stop-opacity=".6353" offset=".1091"/>
   <stop stop-color="#b1d2b4" stop-opacity=".7216" offset=".5958"/>
   <stop stop-color="#b1d2b4" stop-opacity="0" offset="1"/>
  </radialGradient>
  <radialGradient id="ak" cx="132.27" cy="318.58" r="8.03" gradientTransform="matrix(1.4448 0 0 .81741 -58.299 61.564)" gradientUnits="userSpaceOnUse">
   <stop stop-color="#101010" offset="0"/>
   <stop stop-color="#101010" stop-opacity="0" offset="1"/>
  </radialGradient>
  <radialGradient id="aj" cx="229.23" cy="448.42" r="14.234" gradientTransform="matrix(.77052 .63742 -4.2758 5.1686 1970 -2014.2)" gradientUnits="userSpaceOnUse" xlink:href="#q"/>
  <radialGradient id="ai" cx="250.27" cy="457.3" r="10.528" gradientTransform="matrix(.95463 .29778 -1.1993 3.8448 558.86 -1369.9)" gradientUnits="userSpaceOnUse" xlink:href="#k"/>
  <radialGradient id="ah" cx="273.27" cy="456.81" r="10.17" gradientTransform="matrix(-1.3511 .03338 -.08225 -3.3291 679.4 1963.3)" gradientUnits="userSpaceOnUse" xlink:href="#q"/>
  <radialGradient id="ag" cx="279.37" cy="450.91" r="5.3541" gradientTransform="matrix(1.6672 -.02515 .03678 2.4386 -202.98 -640.5)" gradientUnits="userSpaceOnUse" xlink:href="#p"/>
  <radialGradient id="ad" cx="430.65" cy="397.01" r="9.7176" gradientTransform="matrix(.97794 .20888 -.58803 2.753 245.5 -790.08)" gradientUnits="userSpaceOnUse" xlink:href="#k"/>
  <radialGradient id="ac" cx="452.79" cy="401.03" r="8.4086" gradientTransform="matrix(.95238 -.30492 .89195 2.7859 -336.14 -574.31)" gradientUnits="userSpaceOnUse" xlink:href="#k"/>
  <radialGradient id="ab" cx="419.34" cy="395.01" r="7.2796" gradientTransform="matrix(.90692 .42131 -1.3246 2.8514 562.28 -906.31)" gradientUnits="userSpaceOnUse" xlink:href="#p"/>
  <radialGradient id="aa" cx="128.25" cy="316.11" r="64.341" gradientTransform="matrix(-.00698 .42668 -1.456 -.02381 587.97 268.45)" gradientUnits="userSpaceOnUse" xlink:href="#o"/>
  <radialGradient id="z" cx="123.98" cy="421.65" r="62.214" gradientTransform="matrix(1.4199 -.99608 .33315 .47491 -192.53 333.17)" gradientUnits="userSpaceOnUse" xlink:href="#o"/>
  <radialGradient id="b" cx="310.96" cy="278.87" r="18.546" gradientTransform="matrix(.50409 .08895 -.04483 .25406 168.07 179.92)" gradientUnits="userSpaceOnUse" xlink:href="#n"/>
  <radialGradient id="a" cx="313.12" cy="274.74" r="7.69" gradientTransform="matrix(.90895 -.12685 .03624 .25964 18.556 244.47)" gradientUnits="userSpaceOnUse" xlink:href="#n"/>
  <radialGradient id="u" cx="442.97" cy="209.45" r="10.143" gradientTransform="matrix(-1.2578 1.5458 -.4081 -.33207 1090.8 -403.44)" gradientUnits="userSpaceOnUse" xlink:href="#i"/>
  <radialGradient id="t" cx="442.92" cy="208.07" r="10.143" gradientTransform="matrix(-1.6748 1.08 -.24627 -.38187 1257.8 -189.59)" gradientUnits="userSpaceOnUse" xlink:href="#i"/>
  <radialGradient id="s" cx="442.97" cy="209.45" r="10.143" gradientTransform="matrix(-.26483 1.2687 -.4165 -.05623 681.58 -346.06)" gradientUnits="userSpaceOnUse" xlink:href="#i"/>
  <radialGradient id="r" cx="442.97" cy="209.45" r="10.143" gradientTransform="matrix(-.47572 1.9352 -.51093 -.1256 806.8 -634.67)" gradientUnits="userSpaceOnUse" xlink:href="#i"/>
 </defs>
 <g transform="matrix(.81316 0 0 .8364 -58.175 -100.17)">
  <path d="m459.62 136.66c-2.8734 5.1576-2.7665 10.163-2.5254 12.627-5.7411 10.563-5.1499 18.593-4.2932 26.516 4.1448 9.2989 8.6039 17.891 15.405 21.213 1.3002 3.8759 2.4949 7.8362 7.0711 9.0914 2.9302-5.0239 6.5136-0.90138 10.102 3.283 1.3008-6.7855 1.497-14.798 8.5863-15.152 0.48163 1.2041 4.3093-3.0778 2.5254-5.5558-2.3698-3.292-1.107-7.241 0.25253-7.0711-0.0534-3.7071 2.7143-10.8-3.5355-7.0711 2.71-10.214-2.9781-5.7316-5.0508-7.5761 2.2084-5.3302-0.77124-6.0488-4.5457-6.0609 1.2359-3.3898-4.2792-6.1044-9.5964-8.8388-1.1394-8.8963-4.7961-6.8839-7.8287-7.5762-2.844 1.3335-5.5097 2.2035-5.0508-5.0508z" fill="url(#am)" stroke="#042a00"/>
  <path d="m119.2 337.43c-3.7656 4.6654-3.4452 10.693-3.283 16.668-9.3413 11.331-7.9922 17.727-9.0914 25.254-2.8621 4.4593-5.7242 15.495-8.5863 24.244 3.6798 8.9353 10.414 5.6544 16.668 4.2932 2.0981 3.5026 5.1139-0.33683 7.8287-1.7678 5.6927-5.2972 10.533 3.4731 17.425-4.5457l5.3033-6.0609c17.108 0.67271 13.83-6.4205 18.183-10.607 4.209-0.33672 7.7445-3.7039 10.607-10.102 4.6163 2.2422 8.0085-0.82039 10.607-7.3236 3.362-6.1648 6.6973-12.323 4.7982-17.173-4.7883 0.74602-4.2481-4.7245-5.3033-8.3338-5.3596 8.3092-10.209 6.9281-14.9 2.5254-2.663-2.457-6.3311 1.1163-9.5964 2.2728-1.6704-6.6999-7.8501-6.841-16.92-2.7779-3.072-6.9477-8.5698-1.7663-12.879-2.5254-7.0763 0.95749-7.3818-2.5988-10.859-4.0406z" fill="url(#bf)"/>
  <path d="m192.94 278.84c2.3646-2.625 6.5204-5.9686 10.859-5.3033 2.5955 3.4025 6.1657 1.4438 10.102-2.5254 3.5416-2.8022 6.3915-2.8377 8.5863-0.25254l-1.0102 3.0305c40.102 10.315 32.934 48.091 31.315 60.357-4.5481 22.442-17.401 34.315-29.042 47.73-4.2893 1.2627-7.1572 2.5254-8.0812 3.7881-8.1944 5.5849-8.8198 3.6007-12.122 4.2932-4.1994 2.5037-9.694 4.1439-15.91 5.3033-6.4769 3.4611-14.235 4.3607-22.728 3.7881 46.008-23.11 65.929-81.196 28.032-120.21z" fill="url(#w)" stroke="#132e00"/>
  <path d="m115.66 334.9c-3.1712 5.2078-1.6635 11.856-1.7678 17.678-7.635 9.9929-7.64 17.697-8.8388 25.759-3.7325 8.1098-5.1037 13.858-4.7982 17.93-7.6517 6.7344-6.2824 13.469-3.283 20.203 12.777 11.661 27.492 6.4113 31.567 4.5457 12.206-4.3887 24.412-11.774 36.618-22.223 12.653-8.5669 27.725-15.319 37.881-25.759 1.5994-3.3136 3.1988-5.3436 4.7982-11.112 2.0633-4.5116 3.779-9.1624 9.0914-12.374 2.5296-5.5592 0.39254-7.3851-3.7881-7.5762-7.03-1.3078-13.408-3.1857-18.435 1.5152l-5.8084 5.5558c2.6455 3.7228 0.0217 9.7858-1.7678 14.142l-4.2932 7.8287c-1.3718 4.9925-5.3344 3.94-8.5863 4.5457-3.4514 7.2573-6.9027 7.6228-10.354 9.0914-4.3768 10.609-10.617 12.834-17.678 11.364-5.9224 6.1778-11.901 13.375-17.173 7.8287-5.356-1.5257-10.591 8.1787-13.89 4.0406-5.3604 3.5278-9.4842 1.2722-12.374 0.50508-7.9056-2.6937-4.2136-5.3875-4.0406-8.0812 2.6726-7.1976 4.8074-15.471 8.0812-21.466-1.3814-10.456 6.1729-22.378 8.8388-25.506-0.52311-10.077 1.476-13.813 3.283-15.91z" fill="url(#z)" stroke="#005e0f"/>
  <path d="m116.67 334.65c9.2901 8.1437 9.7 6.7514 13.637 6.566 4.4521 0.50551 9.8737-3.3521 13.132 2.5254 6.7947-2.0599 14.071-5.1757 16.415 2.5254 4.7728-1.4007 8.1688-4.8133 11.617-0.25254 4.2372 1.2548 5.9002 6.2769 12.627-4.2931 4.3387 21.914 4.1558-2.6289 21.213-1.0102 5.6957 1.624 5.6724 1.732 11.869-5.0508 0 0 6.8498-8.1653 7.0711-13.132 0.17121-3.8427-4.5457-10.607-4.5457-10.607-1.8344-3.1544-5.2529-5.2527-9.0914-7.0711 1.1127-4.8479 16.876-1.3241-3.0305-18.183-3.4479-4.3474-7.8373-5.3994-12.627-5.0508 0.16836-4.714-3.0305-5.0508-9.5964-1.0102-6.4585-9.1852-8.9398 3.5531-10.607 0.50507-2.9017-5.3063-7.382-2.5372-11.112-3.5355-3.1583-1.6367-5.7105-5.092-10.102-3.0305-2.2548-2.1075-5.4969-1.7469-9.0914-0.50507-3.1468 0.98688-5.0403 2.2244-1.5152 4.5457-4.044 3.0337-4.5083 4.9636-2.2728 6.0609 1.963 2.0648 0.55664 2.7817-0.75761 3.5356-2.9455-1.3861-5.4682-1.2925-7.0711 2.0203-2.6877-0.91537-5.0221-1.2125-5.0508 2.5254-4.8741 1.852-5.026 3.7039-6.0609 5.5558l-12.627 3.5355c-4.8586-0.16404-5.8053 2.1169-5.3033 5.3033-0.21919 1.6969 1.4174 3.3786-2.0203 3.7881-9.2186 3.7179-6.5509 8.7837-6.3134 13.132 3.5355 8.2849 7.0711 8.6799 10.607 5.5558 2.991 0.34734 7.1486 2.5912 10.607 5.0508z" fill="#015100" stroke="#053200"/>
  <path d="m203.29 287.17c-3.6024 0.31674-7.1605 0.36822-10.102-3.283-11.014-5.1465-13.551 0.096-17.93 3.0305-3.4288 3.0305-4.258 6.0609-5.8084 9.0914 0.74632 2.0203 0.45459 4.0406 3.0305 6.0609 2.9162 2.0025 7.7967 4.2849 11.364 3.0305l6.0609-2.2728 8.0812-9.3439c0.38383-2.0602 6.2823-1.9735 11.112-2.2728z" fill="url(#y)"/>
  <path d="m195.97 294.24c1.9388-1.4541-3.5546-7.9362-8.0812-7.5762-5.227 0.41578-11.869 9.849-11.869 9.849s7.2296 6.0389 12.122 5.8084c6.5977-0.31087 7.8287-8.0812 7.8287-8.0812z" fill="url(#x)"/>
  <path d="m180.56 296.52c3.5037-2.1296 4.5085-8.4237 11.617-4.5457l3.7881 3.5355c4.879-0.94592 13.251-5.136 14.647 2.0203 0.80356-3.6864-3.7388-5.1429-14.9-2.0203-4.1605 4.7878-8.9772 6.2951-15.152 1.0102z" fill="#edffb0" stroke="#092a00"/>
  <path d="m102.5 308.97c-6.8512 0.55059-11.534 2.9082-12.679 8.2143-2.338 11.409 2.7541 4.9854 4.6429 6.25 1.4242 2.7018 1.8138 3.8517 2.3214 5.1786-5.8532 2.2097-10.05 4.7261-3.2143 9.2857 11.869 1.4108 17.455-0.32031 21.786-2.6786z" fill="#003d09" stroke="#000"/>
  <path d="m121.22 298.79c9.2916-1.6632 16.024 1.7923 21.971 6.8185 8.9919 3.6925 22.346-7.3383 26.517 12.627 5.8087-15.898 34.152-16.402 39.143-14.395 6.8616 4.0772 14.298 7.4075 14.647 19.951-1.7991 7.1767-5.2956 10.959-9.0914 14.142-4.6102 4.234-7.8458 4.3445-9.0914-1.5152-4.0679-4.9725-8.4823-7.3463-13.89-2.2728l-6.566 6.3135c-4.4545 1.7234-8.884 3.3884-11.364 0.50507-2.3663 1.093-3.7229 1.8951-8.5863-1.0102-3.8722 2.4577-7.7445 0.40366-11.617-1.0102-5.1675 3.2226-11.586 3.9558-16.162 0.75761-6.0876 3.8189-14.915 0.89465-19.193-3.7881-4.346-2.8142-7.5692-8.4352-14.395-5.0508-10.062-0.50038-13.011-14.811-0.25254-19.951-0.67303-5.5742 1.1819-8.9013 6.566-9.0914 2.9878-1.1702 5.1847-2.4986 11.364-3.0304z" fill="url(#aa)"/>
  <path d="m460 136.03c2.3555-2.2342 3.3505-7.3084 8.2075-3.9144 2.7179-2.4766 5.4613-4.7234 8.8388-1.2627 3.8722-3.9764 7.7445-3.8522 11.617 0.25254 7.0345-4.1651 9.5292-2.8825 9.849 1.0102 4.0061 0.35051 9.0618-6.1213 11.869 2.0203 12.444 2.7195 12.611 7.5556 5.5558 13.637-2.9398 3.2659-7.951 4.0602-12.374 5.5558-6.3252-3.683-5.7363 1.5237-7.8287 3.283-2.2677 0.15284-4.5965 0.48927-5.5558-3.283 0.49096-4.6841-0.92254-6.7496-5.8084-4.0406-2.577-0.0652-6.5798 2.7213-6.0609-3.5355-1.4732-11.406-4.8883-5.3342-7.5761-5.8084 0.58787-1.9528-2.8255-3.5055 3.7881-6.0609-11.431-2.4332-9.7409 1.5567-14.521 2.1466z" fill="#004309" stroke="#032700"/>
  <path d="m220.21 384.15c11.95 1.232 14.938 12.095 38.891 2.5254 27.779 3.3041 52.924 2.7316 83.338-15.657 5.0508 1.9415 10.102-0.12083 15.152-3.5355 3.5355 0.0382 7.0711-0.88512 10.607-3.5355 2.8621 0.22088 5.7242 3.4249 8.5863-2.5254 12.359-4.0406 25.706-8.0812 36.871-12.122l41.416-19.698c3.1988-6.1522 6.3976-5.4382 9.5964-5.0508 6.566 0.2267 13.132-5.1866 19.698-11.617 9.0178-2.9988 14.122-7.3022 19.193-11.617 7.2053-2.7278 13.475-6.3908 16.668-13.132 4.7791-1.07 8.8196-3.3711 9.5964-11.112 2.2265-1.1218 3.9763-2.9586 3.5355-8.0812 4.146-16.541 7.0696-32.594 4.5457-46.467-27.607 33.017-73.65 36.253-118.19 41.921-49.721 20.548-97.765 51.15-152.53 41.416-4.9546 4.8103-9.0158 4.2605-12.627 1.0102 2.4736 29.955-9.8935 54.053-34.345 77.277z" fill="url(#an)" stroke="#001f08"/>
  <path transform="matrix(.71108 0 0 1.1996 91.803 -60.465)" d="m321.37 302.96c15.633 22.833 11.687 43.57-3.6332 63.088 25.668-43.76-0.74739-52.753 3.6332-63.088z" fill="#101010" fill-opacity=".4765" filter="url(#e)"/>
  <path d="m254.56 308.38c3.9224-0.25071 7.5775 0.83512 12.122-2.5254l4.5457 6.0609c8.3731 1.9755 12.154-0.64138 16.668-2.5254 6.195 1.4487 11.703 3.814 23.739-2.5254 6.4659 0.2336 12.38 1.7548 22.728-7.0711 13.43 0.81239 18.667-4.5189 24.244-9.5964 13.775 2.8389 16.037-3.1786 21.718-6.566 7.8971-1.8677 15.425-4.1046 18.688-10.607 9.676 0.99082 15.712-3.7389 20.708-10.102 11.79 6.2033 18.113 3.1133 23.234-2.0203 8.401 1.2895 16.135 10.254 25.759-2.5254 10.546 2.007 16.03 0.33258 19.193-3.0305 5.1938 1.2226 4.7471-7.4928 20.203-8.0812l5.0508 1.0102 7.5762-4.5457c7.5126-1.0553 11.162-4.1707 8.5863-10.607 8.6532 0.35981 6.669-5.0082 7.0711-9.0914 1.6634-4.0487 6.9386-6.6526 2.5254-13.132 5.9023-4.8659 3.6598-7.9218-2.5254-10.102 6.3909-4.2771 2.8818-6.8072-2.0203-9.0914 1.5584-6.1706 1.4088-10.776-5.0508-9.5964 1.0068-9.588-3.3391-5.7943-6.0609-6.0609-0.82401-3.6765 0.1111-9.6399-7.0711-5.0508-1.1151-9.8341-6.0394-5.3838-9.5964-6.0609l-2.7779-1.5152c1.0603-11.947-2.6614-14.648-8.3338-7.0711-1.5221 0.48437-3.913-1.6376-6.0609-3.0304 1.5257-9.0256-5.3283-3.3866-8.5863-4.0406-4.0948 4.5086-0.0931-13.533-9.5964-9.5964l1.0102-4.0406c5.3053-3.0154-2.4414-1.5152-3.5355-2.5254-4.7862 1.0983-10.568 1.8647-7.5761 5.5558-0.23552 5.23 0.7551 8.2121 4.5457 6.0609 5.378-2.0629 7.9177 1.1454 8.5863 7.8287 3.4574 2.5193 10.072 1.8818 9.3439 8.5863 3.0705-0.17049 6.813-1.1624 4.0406 5.8084 2.6073 1.5016 9.2256-2.6123 5.8084 7.3236 1.6737 0.18707 4.7143-4.5467 3.283 6.8185-2.1768 2.8003-3.2629 5.4448-0.75761 7.5762-0.41197 2.3615 0.4122 5.341-3.7881 5.8084-5.3425 1.6444-5.4854 8.4884-7.0711 13.89-13.002-12.418-8.121 1.4859-11.364 3.5355-3.6523-1.8068-9.4628-6.9357-17.678 4.2932-3.4009-2.3878-2.5795-12.554-17.93 7.0711-3.1408 2.8175-6.4427 6.0861-6.3135-0.25254-7.3637-12.469-10.191 0.0142-15.152 0.75762-5.7925 6.3964-6.5631 1.7446-9.3439 1.5152-4.5076-2.2948-8.571-6.811-15.657 3.7881-7.1755-4.0438-16.37-0.0122-24.749 0.75761-15.919-7.8799-15.649 2.8306-26.769 2.5254-16.778-6.1078-15.538 0.79673-21.466 2.5254-13.976 1.6476-12.396-6.2373-29.547 4.7982-15.851-1.0169-14.619 2.4619-18.688 4.5457-4.6947 2.5504-15.028-0.56734-14.9 7.8287-6.2849 0.51917-5.83 1.8808-7.0711 3.0305-6.2828-2.2176-8.2076 3.4092-11.364 6.8185-10.196 0.17562-10.836 7.9092-15.657 8.0812l1.2627 3.7881c27.071 9.4257 26.613 23.022 32.83 35.608z" fill="#00730f" stroke="#000"/>
  <path transform="matrix(.71108 0 0 1.1996 71.371 -58.189)" d="m321.37 302.96c15.633 22.833 11.687 43.57-3.6332 63.088 25.668-43.76-0.74739-52.753 3.6332-63.088z" fill="#101010" fill-opacity=".4765" filter="url(#e)"/>
  <path transform="matrix(.71108 0 0 1.1996 45.656 -56.046)" d="m321.37 302.96c15.633 22.833 11.687 43.57-3.6332 63.088 25.668-43.76-0.74739-52.753 3.6332-63.088z" fill="#101010" fill-opacity=".4765" filter="url(#e)"/>
  <path d="m251.53 359.4c4.2236-3.2757 8.1346-6.7077 7.0711-12.627 1.7566-6.955 1.2555-15.811 28.284-15.152 12.607 5.3332 25.798 19.797 27.274 25.254 15.295 7.9129 19.64 15.826 20.203 23.739-5.0922 19.425-23.1 23.782-35.355 34.85-4.101 4.5457-7.1756 9.0914-8.5863 13.637-24.365 1.1841-36.889-5.2434-42.426-16.162 7.7733-8.8999 10.707-19.119 32.325-24.244-8.9354-0.97917-19.262 1.5193-25.759-5.5558-4.1494 0.20122-5.4297-3.4231-5.5558-8.5863-2.4061-4.2388-0.40104-9.5804 2.5254-15.152z" fill="#21712d" stroke="#001902"/>
  <path d="m275.52 458.9c1.6836-5.0508 5.5558-5.0508 8.5863 0 1.9004-5.7293-2.327-12.334-4.7982-18.688-4.6043 5.8019-5.1322 12.225-3.7881 18.688z" fill="url(#ag)" stroke="#0f3214"/>
  <path d="m247.49 412.94c-8.7547 1.6836-15.657 5.8926-17.678 11.617-2.1179 2.1903-8.1623 6.6737-6.0609 11.364 1.5976-2.212 3.8086-3.6572 8.0812-2.5254 3.0304 2.032 4.7982-0.10554 7.8287-2.0203 0.74894-2.8456 1.5659-5.6005 4.2932-5.8084 6.3374-0.0239 8.014 4.613 8.3338 10.607 10.178-7.1224 9.9296-0.0258 13.385 2.0203 3.7726-2.3297 7.8664-3.4815 13.637 1.5152l5.0508 14.647c0.41904 3.4532 0.24433 7.5002 0 11.617 4.4632 3.9011 6.7941-2.3258 8.5863-11.112-0.34559-9.9154-0.12261-20.968-3.0305-25.759-25.407 2.8504-32.701-7.2523-42.426-16.162z" fill="url(#be)" stroke="#001b00"/>
  <path d="m238.4 432.38c-7.5664 8.2751-11.457 15.799-13.637 20.708-2.5093 8.4563 0.15435 9.892 7.0711 5.5558 2.4939-2.3676 5.3034-4.7982 11.112-7.8287 3.4168-3.0995 7.2724-7.0894 9.3439-12.879 2.4273-15.659-14.12-16.264-13.89-5.5558z" fill="url(#aj)" stroke="#00360e"/>
  <path d="m252.29 436.93c-2.2563 10.043-4.3811 21.657-7.0711 26.517-0.75399 13.593 2.6423 9.2022 5.8084 5.8084 2.0203-3.2046 4.0406-2.9706 6.0609-10.354 2.4519-7.6174 4.9665-14.984 8.0812-19.951-3.5029-8.9711-8.0392-7.0916-12.879-2.0203z" fill="url(#ai)" stroke="#00340e"/>
  <path d="m264.7 438.23c-2.0526 5.3939-6.4157 12.107-5.3466 16.877 1.6836-0.95246 3.3672-1.6032 5.0508 0.75761 4.4596 5.3023 3.5612 7.9257 4.2932 11.364 1.7557 2.4213 3.1345 6.8531 6.8185-1.0102 0.8767-8.8611-0.73557-18.256 3.7447-26.517-1.8182-0.16298-3.0085-7.3426-14.561-1.4719z" fill="url(#ah)" stroke="#003508"/>
  <path transform="matrix(.71108 0 0 1.1996 215.66 -102.48)" d="m321.37 302.96c15.633 22.833 11.687 43.57-3.6332 63.088 25.668-43.76-0.74739-52.753 3.6332-63.088z" fill="#101010" fill-opacity=".4765" filter="url(#e)"/>
  <path d="m420.73 277.07c-33.984 1.4203-24.707 18.02-21.971 32.325l11.364 23.234c3.0844 8.9092 4.8538 17.95 1.2627 27.527l-6.3134 8.8388c3.6197-1e-3 7.2394-3.7487 10.859 4.2932 5.0383-2.5114 8.6354 1.4628 12.374 4.7982 3.9154 0.36044 6.7332-2.0232 13.132 4.5457 2.3002-1.7376 4.8892-3.058 13.132 3.7881-0.66559-6.4112-0.73471-7.4542-2.0203-19.445 3.6482-10.482 3.4114-22.69 1.0102-35.86 2.1022-1.6903 3.7858-4.6365 4.5457-10.354 1.9044-10.279-0.34411-19.001-3.7881-27.274-5.651-11.969-14.251-13.126-21.718-18.435-7.174-2.0078-8.3076 1.0179-11.869 2.0203z" fill="#21712d" stroke="#0b2200"/>
  <path d="m404.57 369.75c-5.6381 7.8-14.241 15.915-16.162 22.476-1.9579 4.7286-1.153 7.6153-1.2627 11.112 0.33745 7.6085 3.4214 2.3352 5.5558 1.5152 2.1362-1.7422 0.46564-5.1158 6.8185-5.0508 0.87208-4.6069 1.2938-9.1387 6.0609-14.395l10.102-11.617c-1.9839-10.53-6.7178-3.7533-11.112-4.0406z" fill="url(#af)" stroke="#0b2200"/>
  <path d="m415.17 373.29c6.9626-1.7727 10.347 1.0551 12.627 5.3033-4.472 8.0633-12.475 10.124-10.859 28.537-3.9994-2.6828-6.057 1.7541-8.0812 6.3135-3.2832-1.0076-7.9562 14.662-9.849-3.0305-0.17678-2.1348 1.1041-4.8526 4.2931-8.3338l-3.1567-2.5254c-2.2669-8.6709 8.5942-16.972 15.026-26.264z" fill="url(#ae)" stroke="#001b02"/>
  <path d="m428.3 378.59c0.99304 3.7894 3.4546 0.23635 2.0203 16.162-2.7779 4.9006-4.1669 11.819-6.9448 13.637-1.2206-1.7272-3.996-0.62147-6.8581-1.3852-1.4207-6.7488-0.66872-13.078 11.783-28.414z" fill="url(#ab)" stroke="#062e00"/>
  <path d="m429.31 378.84c2.3585 11.795-2.7195 20.285-6.0609 29.547 1.9926 2.0203 1.9463 4.0406 1.2627 6.0609-2.2764 5.5045-0.48449 5.5845 3.283 3.0305 2.5741-3.9963 5.6182-8.5801 10.859-15.91 1.1358-1.1681 0.79979-2.7042-0.75761-4.5457 2.4427-3.8432 3.3523-8.7084 3.7881-13.89-3.3564-2.1141-3.5381-7.0501-12.374-4.2932z" fill="url(#ad)" stroke="#002506"/>
  <path d="m439.16 396.02c3.2342-2.8398 4.4253 0.15124 6.3134 6.0609l1.2627 3.5355c-3.4218 4.4137-5.4528 7.9003 5.0508 3.0305 1.9183-2.005 3.7496-4.1404 3.0304-10.102-2.336-9.1282-0.32814-7.9145-0.25254-11.617-4.209-2.3446-8.1654-7.841-12.374-4.0406-0.62643 4.5692-1.1054 9.2121-3.0305 13.132z" fill="url(#ac)" stroke="#002803"/>
  <path d="m345.47 230.6c0.96554-9.9208 7.8025-13.551 18.183-13.385 7.8358-1.1894 9.5972 0.38228 10.102 2.5254 3.8721 1.8516 7.2518 2.7185 12.374 7.0711-10.217 1.2627-13.751 2.5254-19.698 3.7881-8.4762-6.4536-14.365-1.696-20.961 0z" fill="#005d0f" stroke="#002f05"/>
  <path d="m262.5 389.15c16.463-19.418 43.839-18.118 52.143-12.857-20.221-9.5918-29.754 5.494-35 12.143-6.9954 1.2392-14.884 3.2645-17.143 0.71428z" fill="url(#v)"/>
  <path d="m98.929 329.86 0.17857 7.3214c3.1276 7.1786 3.0051 6.7527 6.6072-1.25 0 0 3.4964-5.457 2.1428-5-6.1931 2.091-9.7976 0.15469-8.9286-1.0714z" fill="#fffff2" stroke="url(#ay)"/>
  <path d="m118.93 337.72c0.83892 3.737 0.24685 7.7602 3.2143 11.071 2.2377-0.63934 6.741-1.5985 7.5-2.5 3.0218-3.5893 3.2568-5.6684 2.1428-5-4.9973 1.6559-8.7399-1.7069-12.857-3.5714z" fill="#fffff2" stroke="url(#az)"/>
  <path d="m143.21 343.79c1.0765 3.5285 2.7632 6.3323 6.4286 6.7857 1.6029-2.5956 5.5054-5.5812 8.0357-6.7857-3.7409-3.3653-9.589-0.46866-14.464 0z" fill="#fffff2" stroke="url(#ax)"/>
  <path d="m161.79 347.01 1e-5 3.3929c0.39397 2.0398 1.9833 4.7027 6.0714 5.3571 0.6982-1.4286 0.74127-2.8572 3.2143-4.2857l7.3214-3.3929c-4.1031 0.8507-7.2481-1.546-9.1072-4.2857-2.5235 1.0636-7.6402 1.2628-7.5 3.2143z" fill="#fffff2" stroke="url(#aw)"/>
  <path d="m187.14 354.15-3.2143 2.3214c2.3877 3.3996 1.8871 7.1252-3.75 6.7857l-0.53572 5c1.5883 8.0445 2.2362 3.0769 3.2143 2.6786 0.26697-2.233 1.3453-4.369 3.0357-5.1786 1.4928-2.8015 4.2657-8.2174 3.0357-8.75 1.7284-3.7522 0.28784-2.9069-1.7857-2.8571z" fill="#fffff2" stroke="url(#av)"/>
  <path d="m166.96 376.11c1.1069 1.2411-0.52218 8.568 4.1072 4.4643 0.9349-5.9324 6.3867-7.519 8.75-5.3572-3.3966-1.3728-6.1164-2.0688-10.357-4.2857-0.50222 1.5606-0.23994 2.739-2.5 5.1786z" fill="#fffff2" stroke="url(#at)"/>
  <path d="m161.96 388.26c1.8253-1.2169 1.407-3.1611 5.3572-5.5357l-1.25-2.8572-3.5714-3.3928s-2.1931 2.9604-2.6786 4.8214c-1.0714 4.1071 2.1428 6.9643 2.1428 6.9643z" fill="#fffff2" stroke="url(#au)"/>
  <path d="m149.29 395.58c2.3214 0.50965 4.4643-0.51511 6.7857-1.4286 0.13579-2.7976-1.8869-5.5952-3.5714-8.3928-3.6752 4.3674-3.2316 7.3003-3.2143 9.8214z" fill="#fffff2" stroke="url(#as)"/>
  <path d="m138.93 402.54 6.7857-6.9643c-1.0449-2.278 0.75895 1.5675-4.1071-4.1072-2.8606 5.7007-3.6241 6.798-2.6786 11.071z" fill="#fffff2" stroke="url(#ar)"/>
  <path d="m126.79 403.08c2.0886-0.21849 3.6506 1.1848 5.3572 2.1429 2.1944 0.34626-0.37978-5.219-2.3214-10-1.0119 1.295-2.0238 1.4642-3.0357 4.4643z" fill="#fffff2" stroke="url(#aq)"/>
  <path d="m115.18 397.9c-2.2682 2.9825-2.4883 11.774-1.4286 10.714 3.0001 0.88902 6.808-0.26552 8.3929-2.6786l-2.3214-4.1071z" fill="#fffff2" stroke="url(#ap)"/>
  <path d="m100.54 407.36c-0.62716-1.5271-0.48016-4.472-1.25-7.3214-1.362 0.67958-2.8747 0.83128-5.1786-1.7857 1.0749 7.6635 4.0339 7.1628 6.4286 9.1071z" fill="#fffff2" stroke="url(#ao)"/>
  <path d="m106.43 373.79c3.7619-0.0762-1.2762 10.868-1.7857 11.071l-3.3929-4.2857-3.0357-4.1071c0.47274-1.7577 2.381-2.0833 4.1071-1.6072z" fill="#fffff2" stroke="url(#bc)"/>
  <path d="m102.86 389.51c-0.24559 3.2233-0.1448 6.032-2.6786 7.3214-5.201-0.6413-3.8244-5.372-4.4643-8.75 2.0501 1.1378 3.7418 2.9925 7.1428 1.4286z" fill="#fffff2" stroke="url(#bd)"/>
  <path d="m107.5 363.26c-2.1116-1.2143-2.6777-3.8967-3.2143-6.6072 2.887 0.11889 5.251 0.93514 9.4643-0.71428-0.0692 1.1291-0.33827 2.4248-3.2143 5.8929-0.46481 2.391-1.6234 2.3539-3.0357 1.4286z" fill="#fffff2" stroke="url(#bb)"/>
  <path d="m116.07 346.29c-1.2118 1.0043-11.992-5.5132-3.75 4.2857 2.4332 3.6784 1.8467 2.4428 2.8572 3.75 1.6853-1.2909 0.99152-4.9609 0.89286-8.0357z" fill="#fffff2" stroke="url(#ba)"/>
  <g transform="matrix(1 0 0 .93364 0 17.607)">
   <path d="m300 274.86 8.5714 14.643 20.357-6.7857-10.357-14.643z" fill="url(#b)" filter="url(#bi)" stroke="#132e00" stroke-opacity=".4631" stroke-width="2.8"/>
   <path d="m308.75 277.9c2.7543-2.2404 5.6985-3.5312 8.9286-3.3929 1.8436 0.73521 5.6276 0.17685 2.1429 4.4643-2.3471 0.53572-4.1228 1.0714-7.3214 1.6072-4.8772 0.92075-5.5281-0.27164-3.75-2.6786z" fill="url(#a)" filter="url(#c)" stroke="#032c00" stroke-opacity=".5"/>
  </g>
  <g transform="matrix(.96149 0 0 .95172 -8.6078 19.61)">
   <path d="m300 274.86 8.5714 14.643 20.357-6.7857-10.357-14.643z" fill="url(#b)" filter="url(#d)" stroke="#132e00" stroke-opacity=".7383" stroke-width="2.8"/>
   <path d="m308.75 277.9c2.7543-2.2404 5.6985-3.5312 8.9286-3.3929 1.8436 0.73521 5.6276 0.17685 2.1429 4.4643-2.3471 0.53572-4.1228 1.0714-7.3214 1.6072-4.8772 0.92075-5.5281-0.27164-3.75-2.6786z" fill="url(#a)" filter="url(#c)" stroke="#032c00" stroke-opacity=".5"/>
  </g>
  <g transform="matrix(.95186 0 0 .95172 -25.962 26.176)">
   <path d="m300 274.86 8.5714 14.643 20.357-6.7857-10.357-14.643z" fill="url(#b)" filter="url(#d)" stroke="#132e00" stroke-opacity=".7383" stroke-width="2.8"/>
   <path d="m308.75 277.9c2.7543-2.2404 5.6985-3.5312 8.9286-3.3929 1.8436 0.73521 5.6276 0.17685 2.1429 4.4643-2.3471 0.53572-4.1228 1.0714-7.3214 1.6072-4.8772 0.92075-5.5281-0.27164-3.75-2.6786z" fill="url(#a)" filter="url(#c)" stroke="#032c00" stroke-opacity=".5"/>
  </g>
  <g transform="matrix(.75139 0 0 1 21.364 20.503)">
   <path d="m300 274.86 8.5714 14.643 20.357-6.7857-10.357-14.643z" fill="url(#b)" filter="url(#d)" stroke="#132e00" stroke-opacity=".7383" stroke-width="3.2302"/>
   <path d="m308.75 277.9c2.7543-2.2404 5.6985-3.5312 8.9286-3.3929 1.8436 0.73521 5.6276 0.17685 2.1429 4.4643-2.3471 0.53572-4.1228 1.0714-7.3214 1.6072-4.8772 0.92075-5.5281-0.27164-3.75-2.6786z" fill="url(#a)" filter="url(#c)" stroke="#032c00" stroke-opacity=".5" stroke-width="1.1536"/>
  </g>
  <g transform="translate(-48.794 -2.2257)">
   <path d="m300 274.86 8.5714 14.643 20.357-6.7857-10.357-14.643z" fill="url(#b)" filter="url(#d)" stroke="#132e00" stroke-opacity=".7383" stroke-width="2.8"/>
   <path d="m308.75 277.9c2.7543-2.2404 5.6985-3.5312 8.9286-3.3929 1.8436 0.73521 5.6276 0.17685 2.1429 4.4643-2.3471 0.53572-4.1228 1.0714-7.3214 1.6072-4.8772 0.92075-5.5281-0.27164-3.75-2.6786z" fill="url(#a)" filter="url(#c)" stroke="#032c00" stroke-opacity=".5"/>
  </g>
  <g transform="translate(-28.591 -9.8019)">
   <path d="m300 274.86 8.5714 14.643 20.357-6.7857-10.357-14.643z" fill="url(#b)" filter="url(#d)" stroke="#132e00" stroke-opacity=".7383" stroke-width="2.8"/>
   <path d="m308.75 277.9c2.7543-2.2404 5.6985-3.5312 8.9286-3.3929 1.8436 0.73521 5.6276 0.17685 2.1429 4.4643-2.3471 0.53572-4.1228 1.0714-7.3214 1.6072-4.8772 0.92075-5.5281-0.27164-3.75-2.6786z" fill="url(#a)" filter="url(#c)" stroke="#032c00" stroke-opacity=".5"/>
  </g>
  <g transform="translate(-10.408 -16.368)">
   <path d="m300 274.86 8.5714 14.643 20.357-6.7857-10.357-14.643z" fill="url(#b)" filter="url(#d)" stroke="#132e00" stroke-opacity=".7383" stroke-width="2.8"/>
   <path d="m308.75 277.9c2.7543-2.2404 5.6985-3.5312 8.9286-3.3929 1.8436 0.73521 5.6276 0.17685 2.1429 4.4643-2.3471 0.53572-4.1228 1.0714-7.3214 1.6072-4.8772 0.92075-5.5281-0.27164-3.75-2.6786z" fill="url(#a)" filter="url(#c)" stroke="#032c00" stroke-opacity=".5"/>
  </g>
  <g transform="matrix(.98692 .16121 -.16121 .98692 58.852 -67.962)">
   <path d="m300 274.86 8.5714 14.643 20.357-6.7857-10.357-14.643z" fill="url(#b)" filter="url(#d)" stroke="#132e00" stroke-opacity=".7383" stroke-width="2.8"/>
   <path d="m308.75 277.9c2.7543-2.2404 5.6985-3.5312 8.9286-3.3929 1.8436 0.73521 5.6276 0.17685 2.1429 4.4643-2.3471 0.53572-4.1228 1.0714-7.3214 1.6072-4.8772 0.92075-5.5281-0.27164-3.75-2.6786z" fill="url(#a)" filter="url(#c)" stroke="#032c00" stroke-opacity=".5"/>
  </g>
  <g transform="matrix(.94715 .15082 -.15471 .9233 78.43 -33.572)">
   <path d="m300 274.86 8.5714 14.643 20.357-6.7857-10.357-14.643z" fill="url(#b)" filter="url(#d)" stroke="#132e00" stroke-opacity=".7383" stroke-width="2.8"/>
   <path d="m308.75 277.9c2.7543-2.2404 5.6985-3.5312 8.9286-3.3929 1.8436 0.73521 5.6276 0.17685 2.1429 4.4643-2.3471 0.53572-4.1228 1.0714-7.3214 1.6072-4.8772 0.92075-5.5281-0.27164-3.75-2.6786z" fill="url(#a)" filter="url(#c)" stroke="#032c00" stroke-opacity=".5"/>
  </g>
  <g transform="matrix(.88848 .14945 -.14513 .91494 104.77 -48.104)">
   <path d="m300 274.86 8.5714 14.643 20.357-6.7857-10.357-14.643z" fill="url(#b)" filter="url(#d)" stroke="#132e00" stroke-opacity=".7383" stroke-width="3.0649"/>
   <path d="m308.75 277.9c2.7543-2.2404 5.6985-3.5312 8.9286-3.3929 1.8436 0.73521 5.6276 0.17685 2.1429 4.4643-2.3471 0.53572-4.1228 1.0714-7.3214 1.6072-4.8772 0.92075-5.5281-0.27164-3.75-2.6786z" fill="url(#a)" filter="url(#c)" stroke="#032c00" stroke-opacity=".5" stroke-width="1.0946"/>
  </g>
  <g transform="matrix(.88848 .14194 -.14513 .86894 114.62 -18.73)">
   <path d="m300 274.86 8.5714 14.643 20.357-6.7857-10.357-14.643z" fill="url(#b)" filter="url(#d)" stroke="#132e00" stroke-opacity=".7383" stroke-width="3.0649"/>
   <path d="m308.75 277.9c2.7543-2.2404 5.6985-3.5312 8.9286-3.3929 1.8436 0.73521 5.6276 0.17685 2.1429 4.4643-2.3471 0.53572-4.1228 1.0714-7.3214 1.6072-4.8772 0.92075-5.5281-0.27164-3.75-2.6786z" fill="url(#a)" filter="url(#c)" stroke="#032c00" stroke-opacity=".5" stroke-width="1.0946"/>
  </g>
  <g transform="matrix(.88848 .14945 -.14513 .91494 124.72 -51.639)">
   <path d="m300 274.86 8.5714 14.643 20.357-6.7857-10.357-14.643z" fill="url(#b)" filter="url(#d)" stroke="#132e00" stroke-opacity=".7383" stroke-width="3.0649"/>
   <path d="m308.75 277.9c2.7543-2.2404 5.6985-3.5312 8.9286-3.3929 1.8436 0.73521 5.6276 0.17685 2.1429 4.4643-2.3471 0.53572-4.1228 1.0714-7.3214 1.6072-4.8772 0.92075-5.5281-0.27164-3.75-2.6786z" fill="url(#a)" filter="url(#c)" stroke="#032c00" stroke-opacity=".5" stroke-width="1.0946"/>
  </g>
  <g transform="matrix(.88848 .13442 -.14513 .82293 134.32 -7.54)">
   <path d="m300 274.86 8.5714 14.643 20.357-6.7857-10.357-14.643z" fill="url(#b)" filter="url(#d)" stroke="#132e00" stroke-opacity=".7383" stroke-width="3.0649"/>
   <path d="m308.75 277.9c2.7543-2.2404 5.6985-3.5312 8.9286-3.3929 1.8436 0.73521 5.6276 0.17685 2.1429 4.4643-2.3471 0.53572-4.1228 1.0714-7.3214 1.6072-4.8772 0.92075-5.5281-0.27164-3.75-2.6786z" fill="url(#a)" filter="url(#c)" stroke="#032c00" stroke-opacity=".5" stroke-width="1.0946"/>
  </g>
  <g transform="matrix(.87454 .12903 -.14285 .78995 147.91 -13.168)">
   <path d="m300 274.86 8.5714 14.643 20.357-6.7857-10.357-14.643z" fill="url(#b)" filter="url(#d)" stroke="#132e00" stroke-opacity=".7383" stroke-width="3.3247"/>
   <path d="m308.75 277.9c2.7543-2.2404 5.6985-3.5312 8.9286-3.3929 1.8436 0.73521 5.6276 0.17685 2.1429 4.4643-2.3471 0.53572-4.1228 1.0714-7.3214 1.6072-4.8772 0.92075-5.5281-0.27164-3.75-2.6786z" fill="url(#a)" filter="url(#c)" stroke="#032c00" stroke-opacity=".5" stroke-width="1.1874"/>
  </g>
  <g transform="matrix(.87454 .13457 -.14285 .82385 154.23 -11.648)">
   <path d="m300 274.86 8.5714 14.643 20.357-6.7857-10.357-14.643z" fill="url(#b)" filter="url(#d)" stroke="#132e00" stroke-opacity=".7383" stroke-width="3.0125"/>
   <path d="m308.75 277.9c2.7543-2.2404 5.6985-3.5312 8.9286-3.3929 1.8436 0.73521 5.6276 0.17685 2.1429 4.4643-2.3471 0.53572-4.1228 1.0714-7.3214 1.6072-4.8772 0.92075-5.5281-0.27164-3.75-2.6786z" fill="url(#a)" filter="url(#c)" stroke="#032c00" stroke-opacity=".5" stroke-width="1.0759"/>
  </g>
  <g transform="matrix(.9585 -.06234 .03329 .80217 -54.486 60.016)">
   <path d="m300 274.86 8.5714 14.643 20.357-6.7857-10.357-14.643z" fill="url(#b)" filter="url(#d)" stroke="#132e00" stroke-opacity=".7383" stroke-width="3.1889"/>
   <path d="m308.75 277.9c2.7543-2.2404 5.6985-3.5312 8.9286-3.3929 1.8436 0.73521 5.6276 0.17685 2.1429 4.4643-2.3471 0.53572-4.1228 1.0714-7.3214 1.6072-4.8772 0.92075-5.5281-0.27164-3.75-2.6786z" fill="url(#a)" filter="url(#c)" stroke="#032c00" stroke-opacity=".5" stroke-width="1.1389"/>
  </g>
  <g transform="matrix(.9585 -.06234 .03329 .80217 -33.408 53.282)">
   <path d="m300 274.86 8.5714 14.643 20.357-6.7857-10.357-14.643z" fill="url(#b)" filter="url(#d)" stroke="#132e00" stroke-opacity=".7383" stroke-width="3.1889"/>
   <path d="m308.75 277.9c2.7543-2.2404 5.6985-3.5312 8.9286-3.3929 1.8436 0.73521 5.6276 0.17685 2.1429 4.4643-2.3471 0.53572-4.1228 1.0714-7.3214 1.6072-4.8772 0.92075-5.5281-0.27164-3.75-2.6786z" fill="url(#a)" filter="url(#c)" stroke="#032c00" stroke-opacity=".5" stroke-width="1.1389"/>
  </g>
  <g transform="matrix(.9585 -.06234 .03329 .80217 -14.72 46.716)">
   <path d="m300 274.86 8.5714 14.643 20.357-6.7857-10.357-14.643z" fill="url(#b)" filter="url(#d)" stroke="#132e00" stroke-opacity=".7383" stroke-width="3.1889"/>
   <path d="m308.75 277.9c2.7543-2.2404 5.6985-3.5312 8.9286-3.3929 1.8436 0.73521 5.6276 0.17685 2.1429 4.4643-2.3471 0.53572-4.1228 1.0714-7.3214 1.6072-4.8772 0.92075-5.5281-0.27164-3.75-2.6786z" fill="url(#a)" filter="url(#c)" stroke="#032c00" stroke-opacity=".5" stroke-width="1.1389"/>
  </g>
  <g transform="matrix(.90462 -.05855 .03142 .7534 20.422 53.318)">
   <path d="m300 274.86 8.5714 14.643 20.357-6.7857-10.357-14.643z" fill="url(#b)" filter="url(#d)" stroke="#132e00" stroke-opacity=".7383" stroke-width="3.3871"/>
   <path d="m308.75 277.9c2.7543-2.2404 5.6985-3.5312 8.9286-3.3929 1.8436 0.73521 5.6276 0.17685 2.1429 4.4643-2.3471 0.53572-4.1228 1.0714-7.3214 1.6072-4.8772 0.92075-5.5281-0.27164-3.75-2.6786z" fill="url(#a)" filter="url(#c)" stroke="#032c00" stroke-opacity=".5" stroke-width="1.2097"/>
  </g>
  <g transform="matrix(.95942 .04603 -.05729 .80082 49.14 2.9129)">
   <path d="m300 274.86 8.5714 14.643 20.357-6.7857-10.357-14.643z" fill="url(#b)" filter="url(#d)" stroke="#132e00" stroke-opacity=".7383" stroke-width="3.1889"/>
   <path d="m308.75 277.9c2.7543-2.2404 5.6985-3.5312 8.9286-3.3929 1.8436 0.73521 5.6276 0.17685 2.1429 4.4643-2.3471 0.53572-4.1228 1.0714-7.3214 1.6072-4.8772 0.92075-5.5281-0.27164-3.75-2.6786z" fill="url(#a)" filter="url(#c)" stroke="#032c00" stroke-opacity=".5" stroke-width="1.1389"/>
  </g>
  <g transform="matrix(.96017 .02591 -.04049 .80184 65.432 4.9142)">
   <path d="m300 274.86 8.5714 14.643 20.357-6.7857-10.357-14.643z" fill="url(#b)" filter="url(#d)" stroke="#132e00" stroke-opacity=".7383" stroke-width="3.1889"/>
   <path d="m308.75 277.9c2.7543-2.2404 5.6985-3.5312 8.9286-3.3929 1.8436 0.73521 5.6276 0.17685 2.1429 4.4643-2.3471 0.53572-4.1228 1.0714-7.3214 1.6072-4.8772 0.92075-5.5281-0.27164-3.75-2.6786z" fill="url(#a)" filter="url(#c)" stroke="#032c00" stroke-opacity=".5" stroke-width="1.1389"/>
  </g>
  <g transform="matrix(.87227 .10479 -.11288 .66442 132.85 16.148)">
   <path d="m300 274.86 8.5714 14.643 20.357-6.7857-10.357-14.643z" fill="url(#b)" filter="url(#d)" stroke="#132e00" stroke-opacity=".7383" stroke-width="3.641"/>
   <path d="m308.75 277.9c2.7543-2.2404 5.6985-3.5312 8.9286-3.3929 1.8436 0.73521 5.6276 0.17685 2.1429 4.4643-2.3471 0.53572-4.1228 1.0714-7.3214 1.6072-4.8772 0.92075-5.5281-0.27164-3.75-2.6786z" fill="url(#a)" filter="url(#c)" stroke="#032c00" stroke-opacity=".5" stroke-width="1.3004"/>
  </g>
  <g transform="matrix(.60641 -.07598 .02106 .9777 53.861 35.465)">
   <path d="m300 274.86 8.5714 14.643 20.357-6.7857-10.357-14.643z" fill="url(#b)" filter="url(#d)" stroke="#132e00" stroke-opacity=".7383" stroke-width="3.6315"/>
   <path d="m308.75 277.9c2.7543-2.2404 5.6985-3.5312 8.9286-3.3929 1.8436 0.73521 5.6276 0.17685 2.1429 4.4643-2.3471 0.53572-4.1228 1.0714-7.3214 1.6072-4.8772 0.92075-5.5281-0.27164-3.75-2.6786z" fill="url(#a)" filter="url(#c)" stroke="#032c00" stroke-opacity=".5" stroke-width="1.297"/>
  </g>
  <g transform="matrix(.84742 -.39443 .31003 .72226 -112.02 194.9)">
   <path d="m300 274.86 8.5714 14.643 20.357-6.7857-10.357-14.643z" fill="url(#b)" filter="url(#d)" stroke="#132e00" stroke-opacity=".7383" stroke-width="3.2674"/>
   <path d="m308.75 277.9c2.7543-2.2404 5.6985-3.5312 8.9286-3.3929 1.8436 0.73521 5.6276 0.17685 2.1429 4.4643-2.3471 0.53572-4.1228 1.0714-7.3214 1.6072-4.8772 0.92075-5.5281-0.27164-3.75-2.6786z" fill="url(#a)" filter="url(#c)" stroke="#032c00" stroke-opacity=".5" stroke-width="1.167"/>
  </g>
  <g transform="matrix(.95471 .10555 -.10693 .79571 132.65 -10.843)">
   <path d="m300 274.86 8.5714 14.643 20.357-6.7857-10.357-14.643z" fill="url(#b)" filter="url(#d)" stroke="#132e00" stroke-opacity=".7383" stroke-width="3.1889"/>
   <path d="m308.75 277.9c2.7543-2.2404 5.6985-3.5312 8.9286-3.3929 1.8436 0.73521 5.6276 0.17685 2.1429 4.4643-2.3471 0.53572-4.1228 1.0714-7.3214 1.6072-4.8772 0.92075-5.5281-0.27164-3.75-2.6786z" fill="url(#a)" filter="url(#c)" stroke="#032c00" stroke-opacity=".5" stroke-width="1.1389"/>
  </g>
  <g transform="matrix(.86277 .07409 -.07488 .70127 172.07 22.354)">
   <path d="m300 274.86 8.5714 14.643 20.357-6.7857-10.357-14.643z" fill="url(#b)" filter="url(#d)" stroke="#132e00" stroke-opacity=".7383" stroke-width="3.5833"/>
   <path d="m308.75 277.9c2.7543-2.2404 5.6985-3.5312 8.9286-3.3929 1.8436 0.73521 5.6276 0.17685 2.1429 4.4643-2.3471 0.53572-4.1228 1.0714-7.3214 1.6072-4.8772 0.92075-5.5281-0.27164-3.75-2.6786z" fill="url(#a)" filter="url(#c)" stroke="#032c00" stroke-opacity=".5" stroke-width="1.2798"/>
  </g>
  <g transform="matrix(.82752 .13772 -.12307 .66138 214.26 10.944)">
   <path d="m300 274.86 8.5714 14.643 20.357-6.7857-10.357-14.643z" fill="url(#b)" filter="url(#d)" stroke="#132e00" stroke-opacity=".7383" stroke-width="3.7275"/>
   <path d="m308.75 277.9c2.7543-2.2404 5.6985-3.5312 8.9286-3.3929 1.8436 0.73521 5.6276 0.17685 2.1429 4.4643-2.3471 0.53572-4.1228 1.0714-7.3214 1.6072-4.8772 0.92075-5.5281-0.27164-3.75-2.6786z" fill="url(#a)" filter="url(#c)" stroke="#032c00" stroke-opacity=".5" stroke-width="1.3313"/>
  </g>
  <g transform="matrix(.68901 .05099 -.06929 .63627 259.78 44.777)">
   <path d="m300 274.86 8.5714 14.643 20.357-6.7857-10.357-14.643z" fill="url(#b)" filter="url(#d)" stroke="#132e00" stroke-opacity=".7383" stroke-width="4.2119"/>
   <path d="m308.75 277.9c2.7543-2.2404 5.6985-3.5312 8.9286-3.3929 1.8436 0.73521 5.6276 0.17685 2.1429 4.4643-2.3471 0.53572-4.1228 1.0714-7.3214 1.6072-4.8772 0.92075-5.5281-0.27164-3.75-2.6786z" fill="url(#a)" filter="url(#c)" stroke="#032c00" stroke-opacity=".5" stroke-width="1.5043"/>
  </g>
  <g transform="matrix(.67564 -.04844 .02347 .62332 252.48 75.804)">
   <path d="m300 274.86 8.5714 14.643 20.357-6.7857-10.357-14.643z" fill="url(#b)" filter="url(#d)" stroke="#132e00" stroke-opacity=".7383" stroke-width="4.3088"/>
   <path d="m308.75 277.9c2.7543-2.2404 5.6985-3.5312 8.9286-3.3929 1.8436 0.73521 5.6276 0.17685 2.1429 4.4643-2.3471 0.53572-4.1228 1.0714-7.3214 1.6072-4.8772 0.92075-5.5281-0.27164-3.75-2.6786z" fill="url(#a)" filter="url(#c)" stroke="#032c00" stroke-opacity=".5" stroke-width="1.5389"/>
  </g>
  <g transform="matrix(.68911 -.03454 .02393 .44448 263.02 116.51)">
   <path d="m300 274.86 8.5714 14.643 20.357-6.7857-10.357-14.643z" fill="url(#b)" filter="url(#d)" stroke="#132e00" stroke-opacity=".7383" stroke-width="5.0525"/>
   <path d="m308.75 277.9c2.7543-2.2404 5.6985-3.5312 8.9286-3.3929 1.8436 0.73521 5.6276 0.17685 2.1429 4.4643-2.3471 0.53572-4.1228 1.0714-7.3214 1.6072-4.8772 0.92075-5.5281-0.27164-3.75-2.6786z" fill="url(#a)" filter="url(#c)" stroke="#032c00" stroke-opacity=".5" stroke-width="1.8045"/>
  </g>
  <g transform="matrix(.55087 -.18993 .15245 .48659 282.26 148.07)">
   <path d="m300 274.86 8.5714 14.643 20.357-6.7857-10.357-14.643z" fill="url(#b)" filter="url(#d)" stroke="#132e00" stroke-opacity=".7383" stroke-width="5.1378"/>
   <path d="m308.75 277.9c2.7543-2.2404 5.6985-3.5312 8.9286-3.3929 1.8436 0.73521 5.6276 0.17685 2.1429 4.4643-2.3471 0.53572-4.1228 1.0714-7.3214 1.6072-4.8772 0.92075-5.5281-0.27164-3.75-2.6786z" fill="url(#a)" filter="url(#c)" stroke="#032c00" stroke-opacity=".5" stroke-width="1.8349"/>
  </g>
  <g transform="matrix(.95471 .10555 -.10693 .79571 138.7 1.4279)">
   <path d="m300 274.86 8.5714 14.643 20.357-6.7857-10.357-14.643z" fill="url(#b)" filter="url(#d)" stroke="#132e00" stroke-opacity=".7383" stroke-width="3.1889"/>
   <path d="m308.75 277.9c2.7543-2.2404 5.6985-3.5312 8.9286-3.3929 1.8436 0.73521 5.6276 0.17685 2.1429 4.4643-2.3471 0.53572-4.1228 1.0714-7.3214 1.6072-4.8772 0.92075-5.5281-0.27164-3.75-2.6786z" fill="url(#a)" filter="url(#c)" stroke="#032c00" stroke-opacity=".5" stroke-width="1.1389"/>
  </g>
  <g transform="matrix(.95471 .06325 -.10693 .47679 127.08 81.051)">
   <path d="m300 274.86 8.5714 14.643 20.357-6.7857-10.357-14.643z" fill="url(#b)" filter="url(#d)" stroke="#132e00" stroke-opacity=".7383" stroke-width="3.1889"/>
   <path d="m308.75 277.9c2.7543-2.2404 5.6985-3.5312 8.9286-3.3929 1.8436 0.73521 5.6276 0.17685 2.1429 4.4643-2.3471 0.53572-4.1228 1.0714-7.3214 1.6072-4.8772 0.92075-5.5281-0.27164-3.75-2.6786z" fill="url(#a)" filter="url(#c)" stroke="#032c00" stroke-opacity=".5" stroke-width="1.1389"/>
  </g>
  <g transform="matrix(.86277 .06508 -.07488 .61597 178.88 61.338)">
   <path d="m300 274.86 8.5714 14.643 20.357-6.7857-10.357-14.643z" fill="url(#b)" filter="url(#d)" stroke="#132e00" stroke-opacity=".7383" stroke-width="3.5833"/>
   <path d="m308.75 277.9c2.7543-2.2404 5.6985-3.5312 8.9286-3.3929 1.8436 0.73521 5.6276 0.17685 2.1429 4.4643-2.3471 0.53572-4.1228 1.0714-7.3214 1.6072-4.8772 0.92075-5.5281-0.27164-3.75-2.6786z" fill="url(#a)" filter="url(#c)" stroke="#032c00" stroke-opacity=".5" stroke-width="1.2798"/>
  </g>
  <g transform="matrix(.7258 .0633 -.06299 .59916 237.33 63.784)">
   <path d="m300 274.86 8.5714 14.643 20.357-6.7857-10.357-14.643z" fill="url(#b)" filter="url(#d)" stroke="#132e00" stroke-opacity=".7383" stroke-width="3.5833"/>
   <path d="m308.75 277.9c2.7543-2.2404 5.6985-3.5312 8.9286-3.3929 1.8436 0.73521 5.6276 0.17685 2.1429 4.4643-2.3471 0.53572-4.1228 1.0714-7.3214 1.6072-4.8772 0.92075-5.5281-0.27164-3.75-2.6786z" fill="url(#a)" filter="url(#c)" stroke="#032c00" stroke-opacity=".5" stroke-width="1.2798"/>
  </g>
  <g transform="matrix(.66139 -.02947 -.00227 .49607 256.64 118.73)">
   <path d="m300 274.86 8.5714 14.643 20.357-6.7857-10.357-14.643z" fill="url(#b)" filter="url(#d)" stroke="#132e00" stroke-opacity=".7383" stroke-width="3.5833"/>
   <path d="m308.75 277.9c2.7543-2.2404 5.6985-3.5312 8.9286-3.3929 1.8436 0.73521 5.6276 0.17685 2.1429 4.4643-2.3471 0.53572-4.1228 1.0714-7.3214 1.6072-4.8772 0.92075-5.5281-0.27164-3.75-2.6786z" fill="url(#a)" filter="url(#c)" stroke="#032c00" stroke-opacity=".5" stroke-width="1.2798"/>
  </g>
  <g transform="matrix(.73534 -.10862 .00202 .47452 246.26 144.92)">
   <path d="m300 274.86 8.5714 14.643 20.357-6.7857-10.357-14.643z" fill="url(#b)" filter="url(#d)" stroke="#132e00" stroke-opacity=".7383" stroke-width="3.5833"/>
   <path d="m308.75 277.9c2.7543-2.2404 5.6985-3.5312 8.9286-3.3929 1.8436 0.73521 5.6276 0.17685 2.1429 4.4643-2.3471 0.53572-4.1228 1.0714-7.3214 1.6072-4.8772 0.92075-5.5281-0.27164-3.75-2.6786z" fill="url(#a)" filter="url(#c)" stroke="#032c00" stroke-opacity=".5" stroke-width="1.2798"/>
  </g>
  <g transform="matrix(.67211 -.14452 .12792 .46489 245.2 152.88)">
   <path d="m300 274.86 8.5714 14.643 20.357-6.7857-10.357-14.643z" fill="url(#b)" filter="url(#d)" stroke="#132e00" stroke-opacity=".7383" stroke-width="3.5833"/>
   <path d="m308.75 277.9c2.7543-2.2404 5.6985-3.5312 8.9286-3.3929 1.8436 0.73521 5.6276 0.17685 2.1429 4.4643-2.3471 0.53572-4.1228 1.0714-7.3214 1.6072-4.8772 0.92075-5.5281-0.27164-3.75-2.6786z" fill="url(#a)" filter="url(#c)" stroke="#032c00" stroke-opacity=".5" stroke-width="1.2798"/>
  </g>
  <g transform="matrix(.61218 -.28389 .13887 .42803 274.75 199.21)">
   <path d="m300 274.86 8.5714 14.643 20.357-6.7857-10.357-14.643z" fill="url(#b)" filter="url(#d)" stroke="#132e00" stroke-opacity=".7383" stroke-width="3.5833"/>
   <path d="m308.75 277.9c2.7543-2.2404 5.6985-3.5312 8.9286-3.3929 1.8436 0.73521 5.6276 0.17685 2.1429 4.4643-2.3471 0.53572-4.1228 1.0714-7.3214 1.6072-4.8772 0.92075-5.5281-0.27164-3.75-2.6786z" fill="url(#a)" filter="url(#c)" stroke="#032c00" stroke-opacity=".5" stroke-width="1.2798"/>
  </g>
  <g transform="matrix(.36688 -.38014 .29396 .38474 308.49 227.51)">
   <path d="m300 274.86 8.5714 14.643 20.357-6.7857-10.357-14.643z" fill="url(#b)" filter="url(#d)" stroke="#132e00" stroke-opacity=".7383" stroke-width="5.1378"/>
   <path d="m308.75 277.9c2.7543-2.2404 5.6985-3.5312 8.9286-3.3929 1.8436 0.73521 5.6276 0.17685 2.1429 4.4643-2.3471 0.53572-4.1228 1.0714-7.3214 1.6072-4.8772 0.92075-5.5281-0.27164-3.75-2.6786z" fill="url(#a)" filter="url(#c)" stroke="#032c00" stroke-opacity=".5" stroke-width="1.8349"/>
  </g>
  <g transform="matrix(.36688 -.41955 .29396 .42462 316.96 232.5)">
   <path d="m300 274.86 8.5714 14.643 20.357-6.7857-10.357-14.643z" fill="url(#b)" filter="url(#d)" stroke="#132e00" stroke-opacity=".7383" stroke-width="5.1378"/>
   <path d="m308.75 277.9c2.7543-2.2404 5.6985-3.5312 8.9286-3.3929 1.8436 0.73521 5.6276 0.17685 2.1429 4.4643-2.3471 0.53572-4.1228 1.0714-7.3214 1.6072-4.8772 0.92075-5.5281-0.27164-3.75-2.6786z" fill="url(#a)" filter="url(#c)" stroke="#032c00" stroke-opacity=".5" stroke-width="1.8349"/>
  </g>
  <g transform="matrix(.21373 -.33347 .30117 .2229 358.85 248.83)">
   <path d="m300 274.86 8.5714 14.643 20.357-6.7857-10.357-14.643z" fill="url(#b)" filter="url(#d)" stroke="#132e00" stroke-opacity=".7383" stroke-width="5.1378"/>
   <path d="m308.75 277.9c2.7543-2.2404 5.6985-3.5312 8.9286-3.3929 1.8436 0.73521 5.6276 0.17685 2.1429 4.4643-2.3471 0.53572-4.1228 1.0714-7.3214 1.6072-4.8772 0.92075-5.5281-0.27164-3.75-2.6786z" fill="url(#a)" filter="url(#c)" stroke="#032c00" stroke-opacity=".5" stroke-width="1.8349"/>
  </g>
  <g transform="matrix(.2439 -.3887 .34368 .25982 345.52 257.19)">
   <path d="m300 274.86 8.5714 14.643 20.357-6.7857-10.357-14.643z" fill="url(#b)" filter="url(#d)" stroke="#132e00" stroke-opacity=".7383" stroke-width="5.1378"/>
   <path d="m308.75 277.9c2.7543-2.2404 5.6985-3.5312 8.9286-3.3929 1.8436 0.73521 5.6276 0.17685 2.1429 4.4643-2.3471 0.53572-4.1228 1.0714-7.3214 1.6072-4.8772 0.92075-5.5281-0.27164-3.75-2.6786z" fill="url(#a)" filter="url(#c)" stroke="#032c00" stroke-opacity=".5" stroke-width="1.8349"/>
  </g>
  <g transform="matrix(.1367 -.37174 .34218 .15263 373.36 271.15)">
   <path d="m300 274.86 8.5714 14.643 20.357-6.7857-10.357-14.643z" fill="url(#b)" filter="url(#d)" stroke="#132e00" stroke-opacity=".7383" stroke-width="5.1378"/>
   <path d="m308.75 277.9c2.7543-2.2404 5.6985-3.5312 8.9286-3.3929 1.8436 0.73521 5.6276 0.17685 2.1429 4.4643-2.3471 0.53572-4.1228 1.0714-7.3214 1.6072-4.8772 0.92075-5.5281-0.27164-3.75-2.6786z" fill="url(#a)" filter="url(#c)" stroke="#032c00" stroke-opacity=".5" stroke-width="1.8349"/>
  </g>
  <g transform="matrix(.09431 -.26219 .23608 .10765 416.35 241.56)">
   <path d="m300 274.86 8.5714 14.643 20.357-6.7857-10.357-14.643z" fill="url(#b)" filter="url(#d)" stroke="#132e00" stroke-opacity=".7383" stroke-width="5.1378"/>
   <path d="m308.75 277.9c2.7543-2.2404 5.6985-3.5312 8.9286-3.3929 1.8436 0.73521 5.6276 0.17685 2.1429 4.4643-2.3471 0.53572-4.1228 1.0714-7.3214 1.6072-4.8772 0.92075-5.5281-0.27164-3.75-2.6786z" fill="url(#a)" filter="url(#c)" stroke="#032c00" stroke-opacity=".5" stroke-width="1.8349"/>
  </g>
  <g transform="matrix(.1367 -.41914 .34218 .17209 380.19 280.94)">
   <path d="m300 274.86 8.5714 14.643 20.357-6.7857-10.357-14.643z" fill="url(#b)" filter="url(#d)" stroke="#132e00" stroke-opacity=".7383" stroke-width="5.1378"/>
   <path d="m308.75 277.9c2.7543-2.2404 5.6985-3.5312 8.9286-3.3929 1.8436 0.73521 5.6276 0.17685 2.1429 4.4643-2.3471 0.53572-4.1228 1.0714-7.3214 1.6072-4.8772 0.92075-5.5281-0.27164-3.75-2.6786z" fill="url(#a)" filter="url(#c)" stroke="#032c00" stroke-opacity=".5" stroke-width="1.8349"/>
  </g>
  <g transform="matrix(.11464 -.26463 .28696 .10865 402.07 241.31)">
   <path d="m300 274.86 8.5714 14.643 20.357-6.7857-10.357-14.643z" fill="url(#b)" filter="url(#d)" stroke="#132e00" stroke-opacity=".7383" stroke-width="5.1378"/>
   <path d="m308.75 277.9c2.7543-2.2404 5.6985-3.5312 8.9286-3.3929 1.8436 0.73521 5.6276 0.17685 2.1429 4.4643-2.3471 0.53572-4.1228 1.0714-7.3214 1.6072-4.8772 0.92075-5.5281-0.27164-3.75-2.6786z" fill="url(#a)" filter="url(#c)" stroke="#032c00" stroke-opacity=".5" stroke-width="1.8349"/>
  </g>
  <g transform="matrix(.86277 .04289 -.07488 .40595 166.35 105.18)">
   <path d="m300 274.86 8.5714 14.643 20.357-6.7857-10.357-14.643z" fill="url(#b)" filter="url(#d)" stroke="#132e00" stroke-opacity=".7383" stroke-width="3.5833"/>
   <path d="m308.75 277.9c2.7543-2.2404 5.6985-3.5312 8.9286-3.3929 1.8436 0.73521 5.6276 0.17685 2.1429 4.4643-2.3471 0.53572-4.1228 1.0714-7.3214 1.6072-4.8772 0.92075-5.5281-0.27164-3.75-2.6786z" fill="url(#a)" filter="url(#c)" stroke="#032c00" stroke-opacity=".5" stroke-width="1.2798"/>
  </g>
  <g transform="matrix(.83748 .02659 -.05192 .36563 185.77 120.33)">
   <path d="m300 274.86 8.5714 14.643 20.357-6.7857-10.357-14.643z" fill="url(#b)" filter="url(#d)" stroke="#132e00" stroke-opacity=".7383" stroke-width="3.7275"/>
   <path d="m308.75 277.9c2.7543-2.2404 5.6985-3.5312 8.9286-3.3929 1.8436 0.73521 5.6276 0.17685 2.1429 4.4643-2.3471 0.53572-4.1228 1.0714-7.3214 1.6072-4.8772 0.92075-5.5281-0.27164-3.75-2.6786z" fill="url(#a)" filter="url(#c)" stroke="#032c00" stroke-opacity=".5" stroke-width="1.3313"/>
  </g>
  <g transform="matrix(.73903 .02414 -.04581 .33191 231.09 128.87)">
   <path d="m300 274.86 8.5714 14.643 20.357-6.7857-10.357-14.643z" fill="url(#b)" filter="url(#d)" stroke="#132e00" stroke-opacity=".7383" stroke-width="3.7275"/>
   <path d="m308.75 277.9c2.7543-2.2404 5.6985-3.5312 8.9286-3.3929 1.8436 0.73521 5.6276 0.17685 2.1429 4.4643-2.3471 0.53572-4.1228 1.0714-7.3214 1.6072-4.8772 0.92075-5.5281-0.27164-3.75-2.6786z" fill="url(#a)" filter="url(#c)" stroke="#032c00" stroke-opacity=".5" stroke-width="1.3313"/>
  </g>
  <g transform="matrix(.74794 -.04282 -.02188 .28985 236.44 158.79)">
   <path d="m300 274.86 8.5714 14.643 20.357-6.7857-10.357-14.643z" fill="url(#b)" filter="url(#d)" stroke="#132e00" stroke-opacity=".7383" stroke-width="3.7275"/>
   <path d="m308.75 277.9c2.7543-2.2404 5.6985-3.5312 8.9286-3.3929 1.8436 0.73521 5.6276 0.17685 2.1429 4.4643-2.3471 0.53572-4.1228 1.0714-7.3214 1.6072-4.8772 0.92075-5.5281-0.27164-3.75-2.6786z" fill="url(#a)" filter="url(#c)" stroke="#032c00" stroke-opacity=".5" stroke-width="1.3313"/>
  </g>
  <g transform="matrix(.6596 -.04128 -.0193 .27943 277.42 158.3)">
   <path d="m300 274.86 8.5714 14.643 20.357-6.7857-10.357-14.643z" fill="url(#b)" filter="url(#d)" stroke="#132e00" stroke-opacity=".7383" stroke-width="3.7275"/>
   <path d="m308.75 277.9c2.7543-2.2404 5.6985-3.5312 8.9286-3.3929 1.8436 0.73521 5.6276 0.17685 2.1429 4.4643-2.3471 0.53572-4.1228 1.0714-7.3214 1.6072-4.8772 0.92075-5.5281-0.27164-3.75-2.6786z" fill="url(#a)" filter="url(#c)" stroke="#032c00" stroke-opacity=".5" stroke-width="1.3313"/>
  </g>
  <g transform="matrix(.63976 -.17992 .04298 .23389 276.47 210.88)">
   <path d="m300 274.86 8.5714 14.643 20.357-6.7857-10.357-14.643z" fill="url(#b)" filter="url(#d)" stroke="#132e00" stroke-opacity=".7383" stroke-width="3.7275"/>
   <path d="m308.75 277.9c2.7543-2.2404 5.6985-3.5312 8.9286-3.3929 1.8436 0.73521 5.6276 0.17685 2.1429 4.4643-2.3471 0.53572-4.1228 1.0714-7.3214 1.6072-4.8772 0.92075-5.5281-0.27164-3.75-2.6786z" fill="url(#a)" filter="url(#c)" stroke="#032c00" stroke-opacity=".5" stroke-width="1.3313"/>
  </g>
  <g transform="matrix(.53187 -.37838 .13658 .20108 292.75 276.69)">
   <path d="m300 274.86 8.5714 14.643 20.357-6.7857-10.357-14.643z" fill="url(#b)" filter="url(#d)" stroke="#132e00" stroke-opacity=".7383" stroke-width="3.7275"/>
   <path d="m308.75 277.9c2.7543-2.2404 5.6985-3.5312 8.9286-3.3929 1.8436 0.73521 5.6276 0.17685 2.1429 4.4643-2.3471 0.53572-4.1228 1.0714-7.3214 1.6072-4.8772 0.92075-5.5281-0.27164-3.75-2.6786z" fill="url(#a)" filter="url(#c)" stroke="#032c00" stroke-opacity=".5" stroke-width="1.3313"/>
  </g>
  <g transform="matrix(.97551 .01323 -.01245 .75917 -21.522 87.568)">
   <path d="m300 274.86 8.5714 14.643 20.357-6.7857-10.357-14.643z" fill="url(#b)" filter="url(#d)" stroke="#132e00" stroke-opacity=".7383" stroke-width="2.8"/>
   <path d="m308.75 277.9c2.7543-2.2404 5.6985-3.5312 8.9286-3.3929 1.8436 0.73521 5.6276 0.17685 2.1429 4.4643-2.3471 0.53572-4.1228 1.0714-7.3214 1.6072-4.8772 0.92075-5.5281-0.27164-3.75-2.6786z" fill="url(#a)" filter="url(#c)" stroke="#032c00" stroke-opacity=".5"/>
  </g>
  <g transform="matrix(1.0288 .01261 -.01313 .72344 -17.92 92.256)">
   <path d="m300 274.86 8.5714 14.643 20.357-6.7857-10.357-14.643z" fill="url(#b)" filter="url(#d)" stroke="#132e00" stroke-opacity=".7383" stroke-width="2.8"/>
   <path d="m308.75 277.9c2.7543-2.2404 5.6985-3.5312 8.9286-3.3929 1.8436 0.73521 5.6276 0.17685 2.1429 4.4643-2.3471 0.53572-4.1228 1.0714-7.3214 1.6072-4.8772 0.92075-5.5281-0.27164-3.75-2.6786z" fill="url(#a)" filter="url(#c)" stroke="#032c00" stroke-opacity=".5"/>
  </g>
  <g transform="matrix(.97551 .01323 -.01245 .75917 19.921 76.206)">
   <path d="m300 274.86 8.5714 14.643 20.357-6.7857-10.357-14.643z" fill="url(#b)" filter="url(#d)" stroke="#132e00" stroke-opacity=".7383" stroke-width="2.8"/>
   <path d="m308.75 277.9c2.7543-2.2404 5.6985-3.5312 8.9286-3.3929 1.8436 0.73521 5.6276 0.17685 2.1429 4.4643-2.3471 0.53572-4.1228 1.0714-7.3214 1.6072-4.8772 0.92075-5.5281-0.27164-3.75-2.6786z" fill="url(#a)" filter="url(#c)" stroke="#032c00" stroke-opacity=".5"/>
  </g>
  <g transform="matrix(1.0441 .01465 -.01333 .84068 18.385 47.22)">
   <path d="m300 274.86 8.5714 14.643 20.357-6.7857-10.357-14.643z" fill="url(#b)" filter="url(#d)" stroke="#132e00" stroke-opacity=".7383" stroke-width="2.8"/>
   <path d="m308.75 277.9c2.7543-2.2404 5.6985-3.5312 8.9286-3.3929 1.8436 0.73521 5.6276 0.17685 2.1429 4.4643-2.3471 0.53572-4.1228 1.0714-7.3214 1.6072-4.8772 0.92075-5.5281-0.27164-3.75-2.6786z" fill="url(#a)" filter="url(#c)" stroke="#032c00" stroke-opacity=".5"/>
  </g>
  <g transform="matrix(.97551 .01323 -.01245 .75917 58.135 65.492)">
   <path d="m300 274.86 8.5714 14.643 20.357-6.7857-10.357-14.643z" fill="url(#b)" filter="url(#d)" stroke="#132e00" stroke-opacity=".7383" stroke-width="2.8"/>
   <path d="m308.75 277.9c2.7543-2.2404 5.6985-3.5312 8.9286-3.3929 1.8436 0.73521 5.6276 0.17685 2.1429 4.4643-2.3471 0.53572-4.1228 1.0714-7.3214 1.6072-4.8772 0.92075-5.5281-0.27164-3.75-2.6786z" fill="url(#a)" filter="url(#c)" stroke="#032c00" stroke-opacity=".5"/>
  </g>
  <g transform="matrix(.85862 .0124 -.01096 .71122 111.98 73.408)">
   <path d="m300 274.86 8.5714 14.643 20.357-6.7857-10.357-14.643z" fill="url(#b)" filter="url(#d)" stroke="#132e00" stroke-opacity=".7383" stroke-width="2.8"/>
   <path d="m308.75 277.9c2.7543-2.2404 5.6985-3.5312 8.9286-3.3929 1.8436 0.73521 5.6276 0.17685 2.1429 4.4643-2.3471 0.53572-4.1228 1.0714-7.3214 1.6072-4.8772 0.92075-5.5281-0.27164-3.75-2.6786z" fill="url(#a)" filter="url(#c)" stroke="#032c00" stroke-opacity=".5"/>
  </g>
  <g transform="matrix(.75146 .01093 -.00959 .62731 161.54 91.368)">
   <path d="m300 274.86 8.5714 14.643 20.357-6.7857-10.357-14.643z" fill="url(#b)" filter="url(#d)" stroke="#132e00" stroke-opacity=".7383" stroke-width="2.8"/>
   <path d="m308.75 277.9c2.7543-2.2404 5.6985-3.5312 8.9286-3.3929 1.8436 0.73521 5.6276 0.17685 2.1429 4.4643-2.3471 0.53572-4.1228 1.0714-7.3214 1.6072-4.8772 0.92075-5.5281-0.27164-3.75-2.6786z" fill="url(#a)" filter="url(#c)" stroke="#032c00" stroke-opacity=".5"/>
  </g>
  <path transform="matrix(.54684 .00696 -.00698 .39964 240.34 153.41)" d="m300 274.86 8.5714 14.643 20.357-6.7857-10.357-14.643z" fill="url(#b)" filter="url(#d)"/>
  <path transform="matrix(.54684 .00696 -.00698 .39964 240.34 153.41)" d="m308.75 277.9c2.7543-2.2404 5.6985-3.5312 8.9286-3.3929 1.8436 0.73521 5.6276 0.17685 2.1429 4.4643-2.3471 0.53572-4.1228 1.0714-7.3214 1.6072-4.8772 0.92075-5.5281-0.27164-3.75-2.6786z" fill="url(#a)" filter="url(#c)" stroke="#032c00" stroke-opacity=".5"/>
  <g transform="matrix(.19864 -.2947 .27991 .19698 363.69 243.15)">
   <path d="m300 274.86 8.5714 14.643 20.357-6.7857-10.357-14.643z" fill="url(#b)" filter="url(#d)" stroke="#132e00" stroke-opacity=".7383" stroke-width="5.1378"/>
   <path d="m308.75 277.9c2.7543-2.2404 5.6985-3.5312 8.9286-3.3929 1.8436 0.73521 5.6276 0.17685 2.1429 4.4643-2.3471 0.53572-4.1228 1.0714-7.3214 1.6072-4.8772 0.92075-5.5281-0.27164-3.75-2.6786z" fill="url(#a)" filter="url(#c)" stroke="#032c00" stroke-opacity=".5" stroke-width="1.8349"/>
  </g>
  <g transform="matrix(.14003 -.30426 .27184 .15451 385.6 250.01)">
   <path d="m300 274.86 8.5714 14.643 20.357-6.7857-10.357-14.643z" fill="url(#b)" filter="url(#d)" stroke="#132e00" stroke-opacity=".7383" stroke-width="5.1378"/>
   <path d="m308.75 277.9c2.7543-2.2404 5.6985-3.5312 8.9286-3.3929 1.8436 0.73521 5.6276 0.17685 2.1429 4.4643-2.3471 0.53572-4.1228 1.0714-7.3214 1.6072-4.8772 0.92075-5.5281-0.27164-3.75-2.6786z" fill="url(#a)" filter="url(#c)" stroke="#032c00" stroke-opacity=".5" stroke-width="1.8349"/>
  </g>
  <g transform="matrix(.09431 -.26219 .23608 .10765 410.77 242.84)">
   <path d="m300 274.86 8.5714 14.643 20.357-6.7857-10.357-14.643z" fill="url(#b)" filter="url(#d)" stroke="#132e00" stroke-opacity=".7383" stroke-width="5.1378"/>
   <path d="m308.75 277.9c2.7543-2.2404 5.6985-3.5312 8.9286-3.3929 1.8436 0.73521 5.6276 0.17685 2.1429 4.4643-2.3471 0.53572-4.1228 1.0714-7.3214 1.6072-4.8772 0.92075-5.5281-0.27164-3.75-2.6786z" fill="url(#a)" filter="url(#c)" stroke="#032c00" stroke-opacity=".5" stroke-width="1.8349"/>
  </g>
  <g transform="matrix(.00916 -.29912 .23253 .03307 443.36 267.56)">
   <path d="m300 274.86 8.5714 14.643 20.357-6.7857-10.357-14.643z" fill="url(#b)" filter="url(#d)" stroke="#132e00" stroke-opacity=".7383" stroke-width="5.1378"/>
   <path d="m308.75 277.9c2.7543-2.2404 5.6985-3.5312 8.9286-3.3929 1.8436 0.73521 5.6276 0.17685 2.1429 4.4643-2.3471 0.53572-4.1228 1.0714-7.3214 1.6072-4.8772 0.92075-5.5281-0.27164-3.75-2.6786z" fill="url(#a)" filter="url(#c)" stroke="#032c00" stroke-opacity=".5" stroke-width="1.8349"/>
  </g>
  <g transform="matrix(-.00532 -.30404 .27546 .02277 441.14 270.82)">
   <path d="m300 274.86 8.5714 14.643 20.357-6.7857-10.357-14.643z" fill="url(#b)" filter="url(#d)" stroke="#132e00" stroke-opacity=".7383" stroke-width="5.1378"/>
   <path d="m308.75 277.9c2.7543-2.2404 5.6985-3.5312 8.9286-3.3929 1.8436 0.73521 5.6276 0.17685 2.1429 4.4643-2.3471 0.53572-4.1228 1.0714-7.3214 1.6072-4.8772 0.92075-5.5281-0.27164-3.75-2.6786z" fill="url(#a)" filter="url(#c)" stroke="#032c00" stroke-opacity=".5" stroke-width="1.8349"/>
  </g>
  <g transform="matrix(.00916 -.29912 .23253 .03307 438.37 268.27)">
   <path d="m300 274.86 8.5714 14.643 20.357-6.7857-10.357-14.643z" fill="url(#b)" filter="url(#d)" stroke="#132e00" stroke-opacity=".7383" stroke-width="5.1378"/>
   <path d="m308.75 277.9c2.7543-2.2404 5.6985-3.5312 8.9286-3.3929 1.8436 0.73521 5.6276 0.17685 2.1429 4.4643-2.3471 0.53572-4.1228 1.0714-7.3214 1.6072-4.8772 0.92075-5.5281-0.27164-3.75-2.6786z" fill="url(#a)" filter="url(#c)" stroke="#032c00" stroke-opacity=".5" stroke-width="1.8349"/>
  </g>
  <g transform="matrix(-.052 -.27054 .21456 -.0173 459.76 266.99)">
   <path d="m300 274.86 8.5714 14.643 20.357-6.7857-10.357-14.643z" fill="url(#b)" filter="url(#d)" stroke="#132e00" stroke-opacity=".7383" stroke-width="5.1378"/>
   <path d="m308.75 277.9c2.7543-2.2404 5.6985-3.5312 8.9286-3.3929 1.8436 0.73521 5.6276 0.17685 2.1429 4.4643-2.3471 0.53572-4.1228 1.0714-7.3214 1.6072-4.8772 0.92075-5.5281-0.27164-3.75-2.6786z" fill="url(#a)" filter="url(#c)" stroke="#032c00" stroke-opacity=".5" stroke-width="1.8349"/>
  </g>
  <g transform="matrix(-.052 -.27054 .21456 -.0173 464.88 266.9)">
   <path d="m300 274.86 8.5714 14.643 20.357-6.7857-10.357-14.643z" fill="url(#b)" filter="url(#d)" stroke="#132e00" stroke-opacity=".7383" stroke-width="5.1378"/>
   <path d="m308.75 277.9c2.7543-2.2404 5.6985-3.5312 8.9286-3.3929 1.8436 0.73521 5.6276 0.17685 2.1429 4.4643-2.3471 0.53572-4.1228 1.0714-7.3214 1.6072-4.8772 0.92075-5.5281-0.27164-3.75-2.6786z" fill="url(#a)" filter="url(#c)" stroke="#032c00" stroke-opacity=".5" stroke-width="1.8349"/>
  </g>
  <g transform="matrix(-.052 -.27054 .21456 -.0173 469.17 265.83)">
   <path d="m300 274.86 8.5714 14.643 20.357-6.7857-10.357-14.643z" fill="url(#b)" filter="url(#d)" stroke="#132e00" stroke-opacity=".7383" stroke-width="5.1378"/>
   <path d="m308.75 277.9c2.7543-2.2404 5.6985-3.5312 8.9286-3.3929 1.8436 0.73521 5.6276 0.17685 2.1429 4.4643-2.3471 0.53572-4.1228 1.0714-7.3214 1.6072-4.8772 0.92075-5.5281-0.27164-3.75-2.6786z" fill="url(#a)" filter="url(#c)" stroke="#032c00" stroke-opacity=".5" stroke-width="1.8349"/>
  </g>
  <g transform="matrix(-.10049 -.2601 .17767 -.05529 487.03 268.77)">
   <path d="m300 274.86 8.5714 14.643 20.357-6.7857-10.357-14.643z" fill="url(#b)" filter="url(#d)" stroke="#132e00" stroke-opacity=".7383" stroke-width="5.1378"/>
   <path d="m308.75 277.9c2.7543-2.2404 5.6985-3.5312 8.9286-3.3929 1.8436 0.73521 5.6276 0.17685 2.1429 4.4643-2.3471 0.53572-4.1228 1.0714-7.3214 1.6072-4.8772 0.92075-5.5281-0.27164-3.75-2.6786z" fill="url(#a)" filter="url(#c)" stroke="#032c00" stroke-opacity=".5" stroke-width="1.8349"/>
  </g>
  <g transform="matrix(-.09811 -.22099 .16304 -.0657 487.43 255.18)">
   <path d="m300 274.86 8.5714 14.643 20.357-6.7857-10.357-14.643z" fill="url(#b)" filter="url(#d)" stroke="#132e00" stroke-opacity=".7383" stroke-width="5.1378"/>
   <path d="m308.75 277.9c2.7543-2.2404 5.6985-3.5312 8.9286-3.3929 1.8436 0.73521 5.6276 0.17685 2.1429 4.4643-2.3471 0.53572-4.1228 1.0714-7.3214 1.6072-4.8772 0.92075-5.5281-0.27164-3.75-2.6786z" fill="url(#a)" filter="url(#c)" stroke="#032c00" stroke-opacity=".5" stroke-width="1.8349"/>
  </g>
  <g transform="matrix(-.10049 -.2601 .17767 -.05529 482.33 268.5)">
   <path d="m300 274.86 8.5714 14.643 20.357-6.7857-10.357-14.643z" fill="url(#b)" filter="url(#d)" stroke="#132e00" stroke-opacity=".7383" stroke-width="5.1378"/>
   <path d="m308.75 277.9c2.7543-2.2404 5.6985-3.5312 8.9286-3.3929 1.8436 0.73521 5.6276 0.17685 2.1429 4.4643-2.3471 0.53572-4.1228 1.0714-7.3214 1.6072-4.8772 0.92075-5.5281-0.27164-3.75-2.6786z" fill="url(#a)" filter="url(#c)" stroke="#032c00" stroke-opacity=".5" stroke-width="1.8349"/>
  </g>
  <g transform="matrix(-.10049 -.2601 .17767 -.05529 490.91 267.96)">
   <path d="m300 274.86 8.5714 14.643 20.357-6.7857-10.357-14.643z" fill="url(#b)" filter="url(#d)" stroke="#132e00" stroke-opacity=".7383" stroke-width="5.1378"/>
   <path d="m308.75 277.9c2.7543-2.2404 5.6985-3.5312 8.9286-3.3929 1.8436 0.73521 5.6276 0.17685 2.1429 4.4643-2.3471 0.53572-4.1228 1.0714-7.3214 1.6072-4.8772 0.92075-5.5281-0.27164-3.75-2.6786z" fill="url(#a)" filter="url(#c)" stroke="#032c00" stroke-opacity=".5" stroke-width="1.8349"/>
  </g>
  <g transform="matrix(-.06929 -.21423 .12251 -.04554 492.84 247.25)">
   <path d="m300 274.86 8.5714 14.643 20.357-6.7857-10.357-14.643z" fill="url(#b)" filter="url(#d)" stroke="#132e00" stroke-opacity=".7383" stroke-width="5.1378"/>
   <path d="m308.75 277.9c2.7543-2.2404 5.6985-3.5312 8.9286-3.3929 1.8436 0.73521 5.6276 0.17685 2.1429 4.4643-2.3471 0.53572-4.1228 1.0714-7.3214 1.6072-4.8772 0.92075-5.5281-0.27164-3.75-2.6786z" fill="url(#a)" filter="url(#c)" stroke="#032c00" stroke-opacity=".5" stroke-width="1.8349"/>
  </g>
  <g transform="matrix(-.12198 -.22313 .12766 -.07615 498.86 258.77)">
   <path d="m300 274.86 8.5714 14.643 20.357-6.7857-10.357-14.643z" fill="url(#b)" filter="url(#d)" stroke="#132e00" stroke-opacity=".7383" stroke-width="5.1378"/>
   <path d="m308.75 277.9c2.7543-2.2404 5.6985-3.5312 8.9286-3.3929 1.8436 0.73521 5.6276 0.17685 2.1429 4.4643-2.3471 0.53572-4.1228 1.0714-7.3214 1.6072-4.8772 0.92075-5.5281-0.27164-3.75-2.6786z" fill="url(#a)" filter="url(#c)" stroke="#032c00" stroke-opacity=".5" stroke-width="1.8349"/>
  </g>
  <g transform="matrix(-.12198 -.22313 .12766 -.07615 500.34 255.55)">
   <path d="m300 274.86 8.5714 14.643 20.357-6.7857-10.357-14.643z" fill="url(#b)" filter="url(#d)" stroke="#132e00" stroke-opacity=".7383" stroke-width="5.1378"/>
   <path d="m308.75 277.9c2.7543-2.2404 5.6985-3.5312 8.9286-3.3929 1.8436 0.73521 5.6276 0.17685 2.1429 4.4643-2.3471 0.53572-4.1228 1.0714-7.3214 1.6072-4.8772 0.92075-5.5281-0.27164-3.75-2.6786z" fill="url(#a)" filter="url(#c)" stroke="#032c00" stroke-opacity=".5" stroke-width="1.8349"/>
  </g>
  <g transform="matrix(-.17037 -.1888 .10654 -.10366 516.8 247.98)">
   <path d="m300 274.86 8.5714 14.643 20.357-6.7857-10.357-14.643z" fill="url(#b)" filter="url(#d)" stroke="#132e00" stroke-opacity=".7383" stroke-width="5.1378"/>
   <path d="m308.75 277.9c2.7543-2.2404 5.6985-3.5312 8.9286-3.3929 1.8436 0.73521 5.6276 0.17685 2.1429 4.4643-2.3471 0.53572-4.1228 1.0714-7.3214 1.6072-4.8772 0.92075-5.5281-0.27164-3.75-2.6786z" fill="url(#a)" filter="url(#c)" stroke="#032c00" stroke-opacity=".5" stroke-width="1.8349"/>
  </g>
  <g transform="matrix(-.17037 -.1888 .10654 -.10366 516.5 251.17)">
   <path d="m300 274.86 8.5714 14.643 20.357-6.7857-10.357-14.643z" fill="url(#b)" filter="url(#d)" stroke="#132e00" stroke-opacity=".7383" stroke-width="5.1378"/>
   <path d="m308.75 277.9c2.7543-2.2404 5.6985-3.5312 8.9286-3.3929 1.8436 0.73521 5.6276 0.17685 2.1429 4.4643-2.3471 0.53572-4.1228 1.0714-7.3214 1.6072-4.8772 0.92075-5.5281-0.27164-3.75-2.6786z" fill="url(#a)" filter="url(#c)" stroke="#032c00" stroke-opacity=".5" stroke-width="1.8349"/>
  </g>
  <g transform="matrix(-.20075 -.1561 .08677 -.12069 526.75 239.57)">
   <path d="m300 274.86 8.5714 14.643 20.357-6.7857-10.357-14.643z" fill="url(#b)" filter="url(#d)" stroke="#132e00" stroke-opacity=".7383" stroke-width="5.1378"/>
   <path d="m308.75 277.9c2.7543-2.2404 5.6985-3.5312 8.9286-3.3929 1.8436 0.73521 5.6276 0.17685 2.1429 4.4643-2.3471 0.53572-4.1228 1.0714-7.3214 1.6072-4.8772 0.92075-5.5281-0.27164-3.75-2.6786z" fill="url(#a)" filter="url(#c)" stroke="#032c00" stroke-opacity=".5" stroke-width="1.8349"/>
  </g>
  <g transform="matrix(.88371 -.05303 -.05635 .23662 170.99 211.48)">
   <path d="m300 274.86 8.5714 14.643 20.357-6.7857-10.357-14.643z" fill="url(#b)" filter="url(#d)" stroke="#132e00" stroke-opacity=".7383" stroke-width="3.5833"/>
   <path d="m308.75 277.9c2.7543-2.2404 5.6985-3.5312 8.9286-3.3929 1.8436 0.73521 5.6276 0.17685 2.1429 4.4643-2.3471 0.53572-4.1228 1.0714-7.3214 1.6072-4.8772 0.92075-5.5281-0.27164-3.75-2.6786z" fill="url(#a)" filter="url(#c)" stroke="#032c00" stroke-opacity=".5" stroke-width="1.2798"/>
  </g>
  <g transform="matrix(.9683 -.05863 -.06174 .26162 168.03 204.18)">
   <path d="m300 274.86 8.5714 14.643 20.357-6.7857-10.357-14.643z" fill="url(#b)" filter="url(#d)" stroke="#132e00" stroke-opacity=".7383" stroke-width="3.5833"/>
   <path d="m308.75 277.9c2.7543-2.2404 5.6985-3.5312 8.9286-3.3929 1.8436 0.73521 5.6276 0.17685 2.1429 4.4643-2.3471 0.53572-4.1228 1.0714-7.3214 1.6072-4.8772 0.92075-5.5281-0.27164-3.75-2.6786z" fill="url(#a)" filter="url(#c)" stroke="#032c00" stroke-opacity=".5" stroke-width="1.2798"/>
  </g>
  <g transform="matrix(.89643 -.19805 -.02937 .30855 198.52 230.05)">
   <path d="m300 274.86 8.5714 14.643 20.357-6.7857-10.357-14.643z" fill="url(#b)" filter="url(#d)" stroke="#132e00" stroke-opacity=".7383" stroke-width="3.5833"/>
   <path d="m308.75 277.9c2.7543-2.2404 5.6985-3.5312 8.9286-3.3929 1.8436 0.73521 5.6276 0.17685 2.1429 4.4643-2.3471 0.53572-4.1228 1.0714-7.3214 1.6072-4.8772 0.92075-5.5281-0.27164-3.75-2.6786z" fill="url(#a)" filter="url(#c)" stroke="#032c00" stroke-opacity=".5" stroke-width="1.2798"/>
  </g>
  <g transform="matrix(.65598 -.11241 .03282 .36689 269.94 180.93)">
   <path d="m300 274.86 8.5714 14.643 20.357-6.7857-10.357-14.643z" fill="url(#b)" filter="url(#d)" stroke="#132e00" stroke-opacity=".7383" stroke-width="3.5833"/>
   <path d="m308.75 277.9c2.7543-2.2404 5.6985-3.5312 8.9286-3.3929 1.8436 0.73521 5.6276 0.17685 2.1429 4.4643-2.3471 0.53572-4.1228 1.0714-7.3214 1.6072-4.8772 0.92075-5.5281-0.27164-3.75-2.6786z" fill="url(#a)" filter="url(#c)" stroke="#032c00" stroke-opacity=".5" stroke-width="1.2798"/>
  </g>
  <g transform="matrix(.75503 -.19723 .08588 .37704 238.65 198.43)">
   <path d="m300 274.86 8.5714 14.643 20.357-6.7857-10.357-14.643z" fill="url(#b)" filter="url(#d)" stroke="#132e00" stroke-opacity=".7383" stroke-width="3.5833"/>
   <path d="m308.75 277.9c2.7543-2.2404 5.6985-3.5312 8.9286-3.3929 1.8436 0.73521 5.6276 0.17685 2.1429 4.4643-2.3471 0.53572-4.1228 1.0714-7.3214 1.6072-4.8772 0.92075-5.5281-0.27164-3.75-2.6786z" fill="url(#a)" filter="url(#c)" stroke="#032c00" stroke-opacity=".5" stroke-width="1.2798"/>
  </g>
  <g transform="matrix(.60921 -.31174 .13819 .47004 283.85 199.7)">
   <path d="m300 274.86 8.5714 14.643 20.357-6.7857-10.357-14.643z" fill="url(#b)" filter="url(#d)" stroke="#132e00" stroke-opacity=".7383" stroke-width="3.5833"/>
   <path d="m308.75 277.9c2.7543-2.2404 5.6985-3.5312 8.9286-3.3929 1.8436 0.73521 5.6276 0.17685 2.1429 4.4643-2.3471 0.53572-4.1228 1.0714-7.3214 1.6072-4.8772 0.92075-5.5281-0.27164-3.75-2.6786z" fill="url(#a)" filter="url(#c)" stroke="#032c00" stroke-opacity=".5" stroke-width="1.2798"/>
  </g>
  <g transform="matrix(.40612 -.44154 .32541 .44688 304.79 235.96)">
   <path d="m300 274.86 9.5531 15.613 16.721-11.577-7.7029-10.822z" fill="url(#b)" filter="url(#g)" stroke="#132e00" stroke-opacity=".7383" stroke-width="2.6831"/>
   <path d="m308.75 277.9c2.7543-2.2404 5.6985-3.5312 8.9286-3.3929 1.8436 0.73521 5.6276 0.17685 2.1429 4.4643-2.3471 0.53572-4.1228 1.0714-7.3214 1.6072-4.8772 0.92075-5.5281-0.27164-3.75-2.6786z" fill="url(#a)" filter="url(#c)" stroke="#032c00" stroke-opacity=".5" stroke-width="1.8349"/>
  </g>
  <g transform="matrix(.26553 -.46458 .33808 .34489 347.77 259.17)">
   <path d="m300 274.86 9.5531 15.613 16.721-11.577-7.7029-10.822z" fill="url(#b)" filter="url(#g)" stroke="#132e00" stroke-opacity=".7383" stroke-width="2.6831"/>
   <path d="m308.75 277.9c2.7543-2.2404 5.6985-3.5312 8.9286-3.3929 1.8436 0.73521 5.6276 0.17685 2.1429 4.4643-2.3471 0.53572-4.1228 1.0714-7.3214 1.6072-4.8772 0.92075-5.5281-0.27164-3.75-2.6786z" fill="url(#a)" filter="url(#c)" stroke="#032c00" stroke-opacity=".5" stroke-width="1.8349"/>
  </g>
  <g transform="matrix(.18603 -.46173 .3376 .27245 372.93 266.36)">
   <path d="m300 274.86 9.5531 15.613 16.721-11.577-7.7029-10.822z" fill="url(#b)" filter="url(#g)" stroke="#132e00" stroke-opacity=".7383" stroke-width="2.6831"/>
   <path d="m308.75 277.9c2.7543-2.2404 5.6985-3.5312 8.9286-3.3929 1.8436 0.73521 5.6276 0.17685 2.1429 4.4643-2.3471 0.53572-4.1228 1.0714-7.3214 1.6072-4.8772 0.92075-5.5281-0.27164-3.75-2.6786z" fill="url(#a)" filter="url(#c)" stroke="#032c00" stroke-opacity=".5" stroke-width="1.8349"/>
  </g>
  <g transform="matrix(.08269 -.30994 .31436 .1366 410.97 246.89)">
   <path d="m300 274.86 9.5531 15.613 16.721-11.577-7.7029-10.822z" fill="url(#b)" filter="url(#g)" stroke="#132e00" stroke-opacity=".7383" stroke-width="2.6831"/>
   <path d="m308.75 277.9c2.7543-2.2404 5.6985-3.5312 8.9286-3.3929 1.8436 0.73521 5.6276 0.17685 2.1429 4.4643-2.3471 0.53572-4.1228 1.0714-7.3214 1.6072-4.8772 0.92075-5.5281-0.27164-3.75-2.6786z" fill="url(#a)" filter="url(#c)" stroke="#032c00" stroke-opacity=".5" stroke-width="1.8349"/>
  </g>
  <g transform="matrix(.0159 -.3159 .27309 .11544 440.12 247.18)">
   <path d="m300 274.86 9.5531 15.613 16.721-11.577-7.7029-10.822z" fill="url(#b)" filter="url(#g)" stroke="#132e00" stroke-opacity=".7383" stroke-width="2.6831"/>
   <path d="m308.75 277.9c2.7543-2.2404 5.6985-3.5312 8.9286-3.3929 1.8436 0.73521 5.6276 0.17685 2.1429 4.4643-2.3471 0.53572-4.1228 1.0714-7.3214 1.6072-4.8772 0.92075-5.5281-0.27164-3.75-2.6786z" fill="url(#a)" filter="url(#c)" stroke="#032c00" stroke-opacity=".5" stroke-width="1.8349"/>
  </g>
  <g transform="matrix(-.10157 -.27439 .28885 .03635 467.8 250.19)">
   <path d="m300 274.86 9.5531 15.613 16.721-11.577-7.7029-10.822z" fill="url(#b)" filter="url(#g)" stroke="#132e00" stroke-opacity=".7383" stroke-width="2.6831"/>
   <path d="m308.75 277.9c2.7543-2.2404 5.6985-3.5312 8.9286-3.3929 1.8436 0.73521 5.6276 0.17685 2.1429 4.4643-2.3471 0.53572-4.1228 1.0714-7.3214 1.6072-4.8772 0.92075-5.5281-0.27164-3.75-2.6786z" fill="url(#a)" filter="url(#c)" stroke="#032c00" stroke-opacity=".5" stroke-width="1.8349"/>
  </g>
  <path d="m295 305.22 4.2857 5.5357" fill="none" filter="url(#f)" stroke="#000"/>
  <path d="m316.96 300.67 4.2857 5.5357" fill="none" filter="url(#f)" stroke="#000"/>
  <path d="m337.14 295.13 3.2143 3.9286" fill="none" filter="url(#f)" stroke="#000"/>
  <path d="m371.79 280.49 4.2857 5.5357" fill="none" filter="url(#f)" stroke="#000"/>
  <path d="m481.43 251.2 4.2857 5.5357" fill="none" filter="url(#f)" stroke="#000"/>
  <path d="m493.04 245.31 4.2857 5.5357" fill="none" filter="url(#f)" stroke="#000"/>
  <path d="m511.79 240.31 4.2857 5.5357" fill="none" filter="url(#f)" stroke="#000"/>
  <path d="m524.46 230.31 4.8214 5.1786" fill="none" filter="url(#f)" stroke="#000"/>
  <path transform="matrix(1 0 0 .87179 0 27.651)" d="m528.04 215.67 7.6786 5.7143" fill="none" filter="url(#f)" stroke="#000"/>
  <path transform="matrix(1 0 0 .84401 0 32.389)" d="m528.75 202.99 7.6786 4.6429" fill="none" filter="url(#f)" stroke="#000"/>
  <path transform="matrix(1 0 0 .69888 0 57.574)" d="m528.21 191.2 5.5357 1.4286" fill="none" filter="url(#f)" stroke="#000"/>
  <path transform="matrix(1 0 0 .62213 0 69.077)" d="m524.11 183.7 4.6429-0.89285" fill="none" filter="url(#f)" stroke="#000"/>
  <path transform="matrix(.45018 -.31051 .22538 .33009 317.92 244.41)" d="m300 274.86 8.5714 14.643 20.357-6.7857-10.357-14.643z" fill="url(#b)" filter="url(#d)"/>
  <path transform="matrix(.45018 -.31051 .22538 .33009 317.92 244.41)" d="m308.75 277.9c2.7543-2.2404 5.6985-3.5312 8.9286-3.3929 1.8436 0.73521 5.6276 0.17685 2.1429 4.4643-2.3471 0.53572-4.1228 1.0714-7.3214 1.6072-4.8772 0.92075-5.5281-0.27164-3.75-2.6786z" fill="url(#a)" filter="url(#c)" stroke="#032c00" stroke-opacity=".5"/>
  <path transform="matrix(.24044 -.41198 .26079 .20367 383.3 299.52)" d="m300 274.86 8.5714 14.643 20.357-6.7857-10.357-14.643z" fill="url(#b)" filter="url(#d)"/>
  <path transform="matrix(.24044 -.41198 .26079 .20367 383.3 299.52)" d="m308.75 277.9c2.7543-2.2404 5.6985-3.5312 8.9286-3.3929 1.8436 0.73521 5.6276 0.17685 2.1429 4.4643-2.3471 0.53572-4.1228 1.0714-7.3214 1.6072-4.8772 0.92075-5.5281-0.27164-3.75-2.6786z" fill="url(#a)" filter="url(#c)" stroke="#032c00" stroke-opacity=".5"/>
  <path transform="matrix(.07898 -.49505 .26654 .07998 434.76 345.83)" d="m300 274.86 8.5714 14.643 20.357-6.7857-10.357-14.643z" fill="url(#b)" filter="url(#d)"/>
  <path transform="matrix(.07898 -.49505 .26654 .07998 434.76 345.83)" d="m308.75 277.9c2.7543-2.2404 5.6985-3.5312 8.9286-3.3929 1.8436 0.73521 5.6276 0.17685 2.1429 4.4643-2.3471 0.53572-4.1228 1.0714-7.3214 1.6072-4.8772 0.92075-5.5281-0.27164-3.75-2.6786z" fill="url(#a)" filter="url(#c)" stroke="#032c00" stroke-opacity=".5"/>
  <path transform="matrix(.08242 -.47456 .30306 .07051 422.43 328.18)" d="m300 274.86 8.5714 14.643 20.357-6.7857-10.357-14.643z" fill="url(#b)" filter="url(#d)"/>
  <path transform="matrix(.08242 -.47456 .30306 .07051 422.43 328.18)" d="m308.75 277.9c2.7543-2.2404 5.6985-3.5312 8.9286-3.3929 1.8436 0.73521 5.6276 0.17685 2.1429 4.4643-2.3471 0.53572-4.1228 1.0714-7.3214 1.6072-4.8772 0.92075-5.5281-0.27164-3.75-2.6786z" fill="url(#a)" filter="url(#c)" stroke="#032c00" stroke-opacity=".5"/>
  <path d="m463.39 137.18c6.0828 7.4104 14.804 17.736 26.786 26.429l0.35715-3.5714s-4.8214-1.7857-4.8214-2.5-1.25-4.8214-1.25-4.8214c-6.7754-1.0876-13.788-9.0543-21.071-15.536z" fill="#101010" fill-opacity=".6544"/>
  <path transform="matrix(.71108 0 0 1.1996 113.51 -63.904)" d="m321.37 302.96c15.633 22.833 11.687 43.57-3.6332 63.088 25.668-43.76-0.74739-52.753 3.6332-63.088z" fill="#101010" fill-opacity=".4765" filter="url(#e)"/>
  <path transform="matrix(.71108 0 0 1.2328 130.66 -82.553)" d="m321.37 302.96c15.633 22.833 11.687 43.57-3.6332 63.088 25.668-43.76-0.74739-52.753 3.6332-63.088z" fill="#101010" fill-opacity=".4765" filter="url(#e)"/>
  <path transform="matrix(.71108 0 0 1.2883 149.23 -105.78)" d="m321.37 302.96c15.633 22.833 11.687 43.57-3.6332 63.088 25.668-43.76-0.74739-52.753 3.6332-63.088z" fill="#101010" fill-opacity=".4765" filter="url(#e)"/>
  <path transform="matrix(.71108 0 0 1.2772 163.51 -107.42)" d="m321.37 302.96c15.633 22.833 11.687 43.57-3.6332 63.088 25.668-43.76-0.74739-52.753 3.6332-63.088z" fill="#101010" fill-opacity=".4765" filter="url(#e)"/>
  <path transform="matrix(.71108 0 0 1.1996 238.51 -106.05)" d="m321.37 302.96c15.633 22.833 11.687 43.57-3.6332 63.088 25.668-43.76-0.74739-52.753 3.6332-63.088z" fill="#101010" fill-opacity=".4765" filter="url(#e)"/>
  <path transform="matrix(.71108 0 0 .93347 257.08 -28.283)" d="m321.37 302.96c15.633 22.833 11.687 43.57-3.6332 63.088 25.668-43.76-0.74739-52.753 3.6332-63.088z" fill="#101010" fill-opacity=".4765" filter="url(#e)"/>
  <path transform="matrix(.71108 0 0 .86695 270.66 -12.414)" d="m321.37 302.96c15.633 22.833 11.687 43.57-3.6332 63.088 25.668-43.76-0.74739-52.753 3.6332-63.088z" fill="#101010" fill-opacity=".4765" filter="url(#e)"/>
  <path transform="matrix(.71108 0 0 .76716 288.51 11.39)" d="m321.37 302.96c15.633 22.833 11.687 43.57-3.6332 63.088 25.668-43.76-0.74739-52.753 3.6332-63.088z" fill="#101010" fill-opacity=".4765" filter="url(#e)"/>
  <path transform="matrix(.32584 0 0 .73389 425.2 12.182)" d="m321.37 302.96c15.633 22.833 11.687 43.57-3.6332 63.088 25.668-43.76-0.74739-52.753 3.6332-63.088z" fill="#101010" fill-opacity=".4765" filter="url(#e)"/>
  <path transform="matrix(-.71108 0 0 .82259 690.06 -106.83)" d="m321.37 302.96c15.633 22.833 11.687 43.57-3.6332 63.088 25.668-43.76-0.74739-52.753 3.6332-63.088z" fill="#101010" fill-opacity=".4765" filter="url(#e)"/>
  <path transform="matrix(-.70639 -.08153 -.09431 .81717 728.66 -68.812)" d="m321.37 302.96c15.633 22.833 11.687 43.57-3.6332 63.088 25.668-43.76-0.74739-52.753 3.6332-63.088z" fill="#101010" fill-opacity=".4765" filter="url(#e)"/>
  <path transform="matrix(-.70576 -.0868 -.09094 .73941 736.61 -35.68)" d="m321.37 302.96c15.633 22.833 11.687 43.57-3.6332 63.088 25.668-43.76-0.74739-52.753 3.6332-63.088z" fill="#101010" fill-opacity=".4765" filter="url(#e)"/>
  <path transform="matrix(-.70576 -.07646 -.09094 .6513 742.81 -6.0095)" d="m321.37 302.96c15.633 22.833 11.687 43.57-3.6332 63.088 25.668-43.76-0.74739-52.753 3.6332-63.088z" fill="#101010" fill-opacity=".4765" filter="url(#e)"/>
  <path transform="matrix(-.68096 -.19822 -.19873 .56945 773.03 64.849)" d="m321.37 302.96c15.633 22.833 11.687 43.57-3.6332 63.088 25.668-43.76-0.74739-52.753 3.6332-63.088z" fill="#101010" fill-opacity=".4765" filter="url(#e)"/>
  <path transform="matrix(-.68096 -.12639 -.19873 .36308 775.2 114.66)" d="m321.37 302.96c15.633 22.833 11.687 43.57-3.6332 63.088 25.668-43.76-0.74739-52.753 3.6332-63.088z" fill="#101010" fill-opacity=".4765" filter="url(#e)"/>
  <path d="m453.93 213.08c-2.6149-0.83379-9.787 6.466-13.929 12.857l-5.3571 0.35714c3.9974-3.7378-0.39474 1.1543 13.759-13.864 2.3475-1.2993 4.1894-1.0819 5.5267 0.6493z" fill="url(#u)"/>
  <path d="m469.89 210.3c-2.6149-0.83379-9.787 6.466-13.929 12.857l-5.3571 0.35714c3.9974-3.7378-6.8454-2.9925 13.759-13.864z" fill="url(#t)"/>
  <path d="m481.06 205.86c-0.64034 2.6388-3.7612 3.9723-4.1172 8.8801l-3.5972 1.9089c1.3076-3.3726 4.0515-16.525 4.8624-12.043z" fill="url(#s)"/>
  <path d="m494.82 195.04c-2.7202 0.36483-5.3231 3.8438-6.3328 11.392l-2.9218 1.983c2.0144-5.0884 2.3772-11.032 3.9813-11.598 2.8136-3.4959 3.6723-1.6157 5.2734-1.7771z" fill="url(#r)"/>
  <path transform="matrix(.9611 .493 -.48679 1.2666 73.151 -231.15)" d="m321.37 302.96c15.633 22.833 11.687 43.57-3.6332 63.088 25.668-43.76-0.74739-52.753 3.6332-63.088z" fill="#101010" fill-opacity=".802" filter="url(#h)"/>
  <path transform="matrix(.9611 .493 -.48679 1.2666 84.178 -231.95)" d="m321.37 302.96c15.633 22.833 11.687 43.57-3.6332 63.088 25.668-43.76-0.74739-52.753 3.6332-63.088z" fill="#101010" fill-opacity=".802" filter="url(#h)"/>
  <path transform="matrix(.88751 .61571 -.64993 1.1912 138.53 -235.36)" d="m321.37 302.96c15.633 22.833 11.687 43.57-3.6332 63.088 25.668-43.76-0.74739-52.753 3.6332-63.088z" fill="#101010" fill-opacity=".802" filter="url(#h)"/>
  <path transform="matrix(.40336 -.36998 -.48962 -.54248 249.09 590.46)" d="m321.37 302.96c15.633 22.833 11.687 43.57-3.6332 63.088 25.668-43.76-0.74739-52.753 3.6332-63.088z" fill="#101010" fill-opacity=".802" filter="url(#h)"/>
  <path transform="matrix(.40336 -.36998 -.48962 -.54248 262.67 591.41)" d="m321.37 302.96c15.633 22.833 11.687 43.57-3.6332 63.088 25.668-43.76-0.74739-52.753 3.6332-63.088z" fill="#101010" fill-opacity=".802" filter="url(#h)"/>
  <path d="m188.26 291.85c-2.2914 2.8296-1.2169 5.2471 0.8009 6.6633-1.3879-2.5501-1.1936-4.8067-0.8009-6.6633z" fill="#101010"/>
  <path d="m188.17 291.89c2.8933 2.2104 2.4184 4.8129 0.79088 6.6645 0.74826-2.8052 0.028-4.9526-0.79088-6.6645z" fill="#101010"/>
  <path d="m427.29 298.79c8.158 5.6506 16.905 7.3694 26.264 32.83l3.0305-4.5457c-2.9945-26.719-20.672-23.425-29.294-28.284z" fill="url(#bh)"/>
  <path d="m248.93 412.72c7.6434-8.5364 11.468-18.248 30.714-23.214-1.1029 28.013 20.457 11.847 11.071 40-18.824 1.0805-33.429-3.5929-41.786-16.786z" fill="url(#al)" opacity=".8346"/>
  <path d="m412.86 353.43c11.566 13.22 25.577 15.708 40 15 2.4401 5.5061 0.67919 11.863 1.4286 18.214l-50-17.5c4.7012-5.6069 8.5838-11.05 8.5714-15.714z" fill="url(#bg)"/>
  <path d="m124.37 318.56c-3.6062 0.69334-1.6842 1.2879-2.58 3.792 1.1154 5.808 6.1234 4.5041 11.352 2.0684 6.382 4.0591 17.416 6.7784 5.16-4.4814-2.3238-3.1563-7.5942-6.2676-13.932-1.3789z" fill="url(#ak)" stroke="#132e00" stroke-opacity=".4631"/>
 </g>
</svg>
