<?xml version="1.0" encoding="UTF-8"?>
<svg viewBox="0 0 214.47084 458.97244" xmlns="http://www.w3.org/2000/svg">
 <g transform="translate(-134.74 -81.822)">
  <g fill-rule="evenodd">
   <path d="m302.59 357.18s-3.2095 12.319-3.2095 18.046-1.2272 8.2444-1.2114 11.926 0.1888 6.97 2.1239 11.061 2.5173 6.8913 1.9037 9.8964-0.42479 7.0801-0.42479 7.0801 2.3127-3.6187 2.2655-5.963 1.4317-2.9107 0.91251 1.4318-3.8074 3.603-2.0138 8.0241 4.6255 8.6062 4.2951 7.206-2.4229-6.3878-2.1554-10.337 3.6972-5.4281 2.2655-9.4873 1.7621-2.0454 1.2586 2.596-0.88104 6.2777-0.17306 8.4804 1.0856-1.7464 1.4002-5.6955 0.88104-10.148 0.75518-16.316-1.7621-8.7164-2.3914-14.742-1.4002-8.3702-2.9735-11.737c-1.7803-3.8101 0.73944-11.895-2.6274-11.47z" fill="#160702"/>
   <path d="m139.82 150.63c-19.172-5.7137 23.335-31.209 5.5833-33.969 0.7539-2.0298 3.1896-4.2723 3.1896-4.2723s-10.44-4.7937-12.45-15.71c3.5288-3.186 19.965-1.5982 20.99 3.7585 4.2074 0.54616-3.3558-22.53 11.733-17.325 4.1108 1.4183-3.6877 9.1968 0.23256 12.411 6.8148-2.9741 1.0023-16.356 11.645-13.236 9.0448 2.2508-6.5853 16.197 3.889 19.16 0.60965-1.8857 0.60622-5.2309 0.60622-5.2309s1.8424-5.6047 9.4172-4.879c3.7158 0.35599-0.95052 14.679-0.95052 14.679s0.9261 2.7689-2.8112 7.6792c1.509 3.7166 18.005 36.614 29.937 62.664 11.523 25.21 23.273 0.98943 51.554 57.673 29.207 20.866 38.74 14.566 52.326 54.007 13.011 37.772-1.2474 92.887 4.9564 112.76 2.284 7.3174-0.87509 19.397-0.51425 24.733s5.081 67.054 20.054 95.671c-1.8794 1.7205-8.1582 10.263-21.251 4.3701 0.93054-5.4099 2.1263-7.263 1.6959-17.037-0.34672-7.8744-2.8444-7.3942-1.2978-17.698-1.3872-14.702-7.6428-48.673-10.856-63.809-7.9576-13.657-5.5194-15.245-4.9099-27.345 0.97875-19.432-20.343-65.293-20.343-65.293s-12.346 21.548-10.078 33.843 9.0211 24.203 8.5572 30.364-6.1086 54.052-8.0674 62.016-0.03724 29.573 3.2877 37.203 5.8766 16.78 5.4642 20.466 5.6853 11.446 5.6357 19.978c-8.3492 4.5345-18.403 1.5882-18.403 1.5882s1.8042-14.074 0.07732-17.708-5.1907-11.601-3.0156-20.234c0.71843-2.8515-3.5629 6.9176 3.0626 20.149-3.2101 5.9164-15.807 3.9185-15.807 3.9185s-2.6806-7.578 2.1135-19.796 8.0159-29.951 6.1859-40.7 0.59282-16.548-4.7683-19.925-8.474-17.142-5.7161-26.138-3.9287-54.467-8.2846-63.772-12.217-12.81-12.217-12.81-6.8045 19.873-5.4642 32.658-2.8094 32.348-3.2734 35.828 2.0783 18.183-3.5405 34.267-8.9953 50.623-8.9953 50.623 2.0456 15.079-3.0381 23.131c-2.1409 3.3911-1.1047 11.07-1.6163 14.02-3.2218 3.4405-18.202 3.6719-23.28 0.06327 3.9079-10.098 10.304-17.567 10.304-17.567s-1.291-8.8329 5.6166-19.607 8.9755-53.231 8.9755-53.231-1.7094-18.519 0.26141-30.571c6.6578-40.714-3.526-41.675-7.7273-62.682s2.467-44.133 1.6026-57.118c-0.86853-13.046 10.094-33.504 8.0716-36.638-19.085-29.566-39.312-112.9-43.24-112.97-39.29-0.64014-18.254 12.606-35.108 7.5833z" fill="#ffdfbe"/>
   <path d="m135.29 144.01c-2.3339 6.3882 10.805 9.2821 12.329 6.8916 2.2943-3.5976 3.6168-5.0511 7.9891-6.3204-3.0007-8.1833-16.067-7.1577-16.721-7.4814s-2.3785 3.5735-3.5976 6.9102z" fill="#a46749"/>
   <path d="m134.82 146.2c0.21368 3.5447 6.6374 6.8408 11.435 4.2263s3.2393-7.2977 7.9193-8.0719c-3.795-7.1001-14.384-5.1649-15.037-5.4885s-4.5324 5.7551-4.3167 9.3341z" fill="#e18e64"/>
   <path d="m144.15 142.83s3.1093 0.34267 3.782-0.85034-0.25382-3.6171-1.8402-1.8657-1.4341 2.2972-1.9417 2.716z" fill="#784b35"/>
   <path d="m168.86 117.4c0.22513-0.80886 4.4232-2.1248 6.1743-1.7922 2.5805 0.49009 4.6294 0.83184 4.6294 0.83184s-2.5958 3.9307-5.614 4.0508c-1.7342 0.069-4.163 1.8192-5.1897-3.0904z"/>
   <path d="m148.68 117.86s0.68406-0.10085 1.132 1.5223c0.19129 0.69322-0.33507 2.7436-0.33507 2.7436s-1.1545-2.6938-0.79691-4.2659z"/>
   <path d="m292.36 334.61c-0.64355 0.81023-11.934 22.492-10.121 33.535s7.749 21.578 8.5724 29.117c0.60513 5.5398-8.4652 68.622-8.4816 66.591-0.17151-21.269 1.192-26.771 0.6495-35.965-0.71427-10.285-4.701-87.522-5.5524-89.384-1.2372-2.7055 14.801-15.398 16.202-17.61s-0.61361 12.89-1.2692 13.716z" fill="#dfc4a6"/>
   <path d="m269.88 450.01c-0.07403 1.1105 0.87356 16.968 1.7175 21.81s-2.5286 25.605-8.6023 41.192c-2.9612 7.5994 0.37015 12.541 0.37015 12.541s8.9352 2.6512 15.458-2.9317c1.3311-1.1394-4.427-3.213-3.3166-21.618 1.6098-26.616-5.5967-51.394-5.6263-50.994z" fill="#dfc4a6"/>
   <path d="m329.7 508.35c-0.08496 1.1465-0.80405 12.57-1.7592 17.053 12.258 6.6222 21.384-3.7177 21.174-4.1933-1.339-3.0235-5.5691-13.373-5.5691-13.373s-7.9881 2.0165-13.845 0.5129z" fill="#d3d3d3"/>
   <path d="m200.2 517.45s3.7477 3.5945 6.6166 4.4094c2.9232 0.83036 7.9575-0.6561 7.9575-0.6561s0.11845 11.757 0.14024 12.691-8.0749 2.4552-11.857 2.0646-8.9345 0.14454-11.889-1.7488c2.0593-7.3406 9.0318-16.76 9.0318-16.76z" fill="#d3d3d3"/>
   <path d="m262.91 512.31s-2.2579 5.0544-1.8272 13.268c8.3284 1.1992 15.307-0.11865 18.087-3.344-2.1732-3.252-3.3344-9.1898-3.3344-9.1898l-12.926-0.73435z" fill="#d3d3d3"/>
   <path d="m279.03 522s-0.44514 12.106-1.0795 17.607c8.3239 2.2126 16.135 0.70662 19.348-1.0015 0.6756-2.9429-3.3634-13.451-5.0107-17.184-2.9981 4.431-13.257 0.57838-13.257 0.57838z" fill="#d3d3d3"/>
   <path d="m283.42 451.63c0.24788 0.17287 1.0014-3.1228 0.45458-3.2078s-0.60713-0.29624-0.60713-0.29624-0.04113 3.369 0.15255 3.504z" fill="#8e3410"/>
   <path d="m283.62 446.72c1.1311 0.83674 1.3039-4.3532 1.3302-4.4895 0.02858-0.1486-1.1362-0.99901-1.3377-0.58194s-1.1042 4.249 0.00756 5.0715z" fill="#783114"/>
   <path d="m284.05 440.25c-1.6379-1.0183-0.8815-3.3716-0.26967-3.6707s1.6059 0.15997 1.5361 1.7138 0.37149 2.9752-1.2664 1.9569z" fill="#783114"/>
   <path d="m282.68 408.42c0.40355-1.367 1.3847 4.1734 1.7365 4.2905 0.4258 0.14176 0.11537 6.2416-0.10791 6.6859-0.2349 0.46737-0.19405 1.3533-0.70158 1.0552s-1.3305-10.665-0.92699-12.032z" fill="#783114"/>
   <path d="m283.28 421.98c0.39582-0.35034 0.0689 0.91383 1.0234 1.4468s0.85015 1.7054 0.34729 2.0095-0.6577 1.0768-1.3028 0.21942-0.40099-3.3808-0.06781-3.6757z" fill="#783114"/>
   <path d="m285.44 421.85c-0.06612 0.05809 1.2888 3.4246 1.4785 3.3679s0.81249-7.98 0.62938-8.1955c-0.16579-0.19507-2.0417 4.7695-2.1079 4.8276z" fill="#783114"/>
   <path d="m284.2 427.48c-0.27981 0.76848-1.3586 2.9709 1.4166 1.8049 1.0228-1.104 0.02582-2.3074 0.02582-2.3074s-1.1626-0.266-1.4424 0.50249z" fill="#783114"/>
   <path d="m283.68 430.83s-0.99311 0.79503 1.0603 4.3528c0.8336 1.4443 0.82296-0.78134 0.82296-0.78134l-0.44764-3.4204-1.4356-0.15113z" fill="#783114"/>
   <path d="m285.01 410.46c0.02607 0.61912 1.6346 4.9753 2.1156 4.9367 0.47015-0.03775 2.6925-14.742 2.5547-14.981s-3.4605-0.615-3.5476-0.0159-1.1488 9.4415-1.1228 10.06z" fill="#783114"/>
   <path d="m289.62 398.52c0.37916-0.264-0.82471-5.2357-0.99804-5.2344s-4.2655 2.1371-3.8992 3.3099 4.1058 2.4755 4.8972 1.9245z" fill="#783114"/>
   <path d="m283.97 393.52c0.39513 0.06018 4.0451-2.1732 4.1785-2.5488s-2.314-6.2472-2.6935-6.4434c-0.36229-0.1874-1.8482 8.9369-1.4851 8.9922z" fill="#783114"/>
   <path d="m282.9 384.43c0.83604 0.10638 0.39775-5.6563 0.39775-5.6563l-2.814-7.1797s1.6043 12.733 2.4163 12.836z" fill="#783114"/>
   <path d="m160.79 109.87c-2.0948-0.79772-0.58384-3.8578-2.5132-3.9103s5.7169-6.1893 6.2554-5.3155 2.6905 5.2873 7.5187 3.5409c4.8618-1.7585-9.166 6.4826-11.261 5.6849z" fill="#8b300c"/>
   <path d="m156.58 126.46c0.01977-0.78964 3.1771-4.6279 3.9916-5.6081 0.79579-0.95759 2.3593 5.018 2.4773 5.8374 0.1252 0.86894-4.319 3.2892-4.6292 3.3644s-1.8596-2.8041-1.8398-3.5937z" fill="#8b300c"/>
   <path d="m159.53 132.38s0.92446 2.3553 0.21559 4.2735 5.087-2.1646 5.087-2.1646l-1.4695-4.6836-3.8332 2.5747z" fill="#8b300c"/>
   <path d="m146.85 130.72s9.9759-10.83 9.7882-13.499 0.47201-7.4983 0.47201-7.4983 4.5202 3.621 5.9394 1.92c0.13345-0.15994-10.133 16.263-10.529 18.223s-5.3999 1.251-5.6709 0.85484z" fill="#8b300c"/>
   <path d="m162.77 117.14s5.5445-7.1284 5.8668-5.6965-2.7722 6.5585-2.8095 6.2386c-0.01484-0.12714-4.4085 1.4045-3.0572-0.54215z" fill="#8b300c"/>
   <path d="m166.48 131.96c1.2423 0.02009 4.8869-6.8674 6.3255-7.5554s-5.8794-4.024-5.8794-4.024c-2.4431-1.1816-1.6798 11.56-0.44604 11.579z" fill="#8b300c"/>
   <path d="m149.21 110.09c-0.2111-0.66158-11.092-11.815-10.174-12.573 1.1962-1.3013 14.751 0.38625 15.472 5.033 0.79037 5.092-5.0871 8.2021-5.2982 7.5405z" fill="#4e4d4a"/>
   <path d="m187.99 97.079c-0.09375-3.4546 5.355-3.4105 5.355-3.4105s0.54225 15.12-6.5325 17.269c-15.612-7.9694 1.497-2.0849 1.1774-13.859z" fill="#7a7873"/>
   <path d="m142.56 135.61s6.0421-0.7322 8.4386 2.042c1.9763 2.2878 1.336-4.3998 1.336-4.3998s-4.547-2.1017-6.0482-0.70479-5.451 2.784-3.7264 3.0626z" fill="#8b300c"/>
   <path d="m161.05 139.27 4.8774-3.0592s6.1464-0.56531 2.5329 2.3731c-0.69766 0.56731-10.882 2.8638-7.4103 0.68609z" fill="#8b300c"/>
   <path d="m171.45 137.14-0.63633 1.943c-0.03391 0.09975 3.9369 0.63968 3.6-0.15182-0.20896-0.49096-2.4842-1.6869-2.9637-1.7911z" fill="#8b300c"/>
   <path d="m172.64 127.84c1.7513-0.70889 9.7057 4.5736 9.6322 5.9422-0.07937 1.4777-5.1728 6.0993-5.3373 3.9198s-4.2791-2.7345-7.4064-2.7345 1.3602-6.4186 3.1115-7.1275z" fill="#8b300c"/>
   <path d="m180.11 123.27c-0.57269 1.0213-3.6767 1.5464-3.3142 3.0991s4.9828 3.0293 7.596 2.934c1.1503-0.04196-3.7091-7.0544-4.2818-6.0331z" fill="#8b300c"/>
   <path d="m189.56 131.18c0.92905 1.1524 2.182-5.18 0.35384-7.0093-2.6339-2.6355-3.9099-5.1171-4.1889-5.2528-0.99781-0.48536-1.9327 2.999-1.75 4.0935 0.49062 2.9395 4.9021 7.3214 5.5851 8.1686z" fill="#8b300c"/>
   <path d="m181.26 139.69s-1.8016 6.9843-0.84733 5.5384c0.96923-1.4684 7.1286-9.3398 6.3884-11.08-0.76387-1.7963-5.0442 2.9808-5.541 5.542z" fill="#783114"/>
   <path d="m181.31 146.76 3.1874-3.2763 3.5652 4.0657s-1.1081 6.3501-2.5154 6.9965-5.0855-4.6518-4.2371-7.7859z" fill="#783114"/>
   <path d="m187 140.49c-0.52405 0.35303 2.3292 6.6209 2.6153 5.1241 0.19032-0.99578 3.8274-6.3483 3.6505-6.7408-1.0595-2.3503-2.6874-4.7807-3.2629-4.7121-0.46625 0.05561-1.5667 5.3613-3.0028 6.3288z" fill="#783114"/>
   <path d="m192.66 128.35-0.86177 4.694s3.3442 5.5484 3.25 4.9812c-0.76276-4.5909 0.14053-5.237 0.14053-5.237l-2.5287-4.4383z" fill="#8b300c"/>
   <path d="m196.91 141.02 3.0335 7.7666s1.595-1.1534 1.4074-3.4574-4.6894-10.344-4.6894-10.344l0.24854 6.0344z" fill="#8b300c"/>
   <path d="m194.7 140.68c-0.7803-0.22809-5.3829 9.7229-5.3829 9.7229s-2.0952 6.9577-1.935 6.9986c0.2145 0.05482 5.1528 0.32682 5.181 0.1668 0.0494-0.28113 5.4443-7.0234 5.3582-7.4434-0.12483-0.60855-2.3944-9.2033-3.2212-9.445z" fill="#783114"/>
   <path d="m175.4 142.16 8.7922 16.017s-1.8702 3.4356-2.6377 1.5829c-0.75415-1.8205-6.1546-17.599-6.1546-17.599z" fill="#783114"/>
   <path d="m182.12 162.6 5.7126 13.083 2.971 0.64634s-0.81488-4.0639-1.5672-5.6885c-1.4462-3.1232-7.1164-8.0411-7.1164-8.0411z" fill="#783114"/>
   <path d="m185.79 160.13c0.54285 1.1044 3.3268 7.9288 6.4796 8.8748 2.3889 0.71682 5.6225-2.9724 6.1664-3.5252 1.0664-1.0839 2.1567-13.913 1.9067-14.127-1.2633-1.0828-4.2541 6.2671-6.4107 8.5158-2.1459 2.2375-9.7496-3.0089-8.1419 0.26195z" fill="#783114"/>
   <path d="m201.81 156.09c0.14051 0.43189 3.1478 2.988 3.3706 2.8868 0.26396-0.11979 0.63935-4.1252 0.63935-4.1252l-3.0775-6.3924s-1.0434 7.2899-0.93249 7.6308z" fill="#8b300c"/>
   <path d="m206.94 156.85s0.56108 8.5706 0.95802 10.029 1.8211 3.0561 1.9623 2.8821 3.701 0.08726 3.701 0.08726l-6.6214-12.998z" fill="#8b300c"/>
   <path d="m201.43 158.21-0.32316 7.9542 4.1072 5.9526s0.34984-0.96978 0.58403-2.6196-0.58693-7.853-0.58693-7.853l-3.7812-3.4342z" fill="#8b300c"/>
   <path d="m199.73 167.85 4.0134 5.0248-6.2234 9.9558s-4.3366-4.3339-4.5437-5.0828-0.69984-4.7792-0.69984-4.7792l7.4535-5.1186z" fill="#783114"/>
   <path d="m192.96 191.92 2.8563 0.3336s0.09728-3.5836-0.46753-5.8603-6.9041-8.5647-6.9041-8.5647l4.5153 14.091z" fill="#783114"/>
   <path d="m197.56 185.12s0.24038 6.1347 0.54803 6.2625 10.666-5.1707 11.266-7.0219-3.6798-9.5746-3.6798-9.5746l-8.1342 10.334z" fill="#783114"/>
   <path d="m208.25 170.82c-0.06255 0.58379-0.1177 3.9601 0.08935 4.8864 0.21276 0.95183 2.921 7.6663 3.3477 7.4151s0.96261-9.0945 0.96261-9.0945l-4.3997-3.207z" fill="#8b300c"/>
   <path d="m212.97 185.1c-1.0428 0.71107 2.4274 5.2825 2.4274 5.2825s3.2252-5.5859 3.4357-5.969 0.41796-5.3457 0.07893-6.0748c-0.32882-0.70716-4.0342-3.4274-4.0342-3.4274s-0.86508 9.4776-1.9079 10.189z" fill="#8b300c"/>
   <path d="m198.14 193.05c1.4633 0.94219 7.7391-3.1408 8.7479-3.8246 1.0152-0.6882 3.9626-3.6843 3.9626-3.6843l2.6091 6.0555s-9.7038 13.063-12.028 10.082-4.7356-9.5589-3.2913-8.6289z" fill="#783114"/>
   <path d="m201.4 208.3c-0.10425-0.69847-0.76116-3.5568-1.656-5.5684s-4.7134-7.3376-4.7134-7.3376l3.586 11.134 2.7833 1.7722z" fill="#783114"/>
   <path d="m202.95 204.74s-0.33073 5.7479-0.09383 6.182c0.3117 0.57124 7.2867 6.681 7.2867 6.681s10.881-8.9522 9.2854-11.922c-1.9385-3.6066-3.2546-14.907-4.6806-12.763s-1.3774 2.6751-2.9947 4.7136-8.8029 7.1083-8.8029 7.1083z" fill="#783114"/>
   <path d="m217.7 192.75s1.7233 8.041 3.1841 9.4676 2.8518 1.6484 2.8518 1.6484 1.5442-4.9535 1.6157-7.2989-0.94114-8.745-0.94114-8.745l-2.8534-4.0688-3.8571 8.9967z" fill="#8b300c"/>
   <path d="m199.98 211.48 6.7968 5.7829c1.733 1.0385 6.0385 15.039 5.6813 15.901-0.52558 1.2688-5.3031-3.5548-5.3031-3.5548l-6.9769-17.577-0.19806-0.55252z" fill="#783114"/>
   <path d="m210.83 219.58 3.9017 13.4s5.8402 0.34198 7.8184-2.429c1.9691-2.7582 6.3955-5.2363 6.5124-6.3681s-7.1929-17.766-7.1929-17.766-2.2019 7.4322-3.9554 9.1488-7.0842 4.0135-7.0842 4.0135z" fill="#783114"/>
   <path d="m227.43 200.71c-1.0094-0.64147-1.5379 4.3726-2.664 5.5685s5.8813 16.61 6.4105 16.996 4.4036-6.0927 4.7572-8.5941c0.35415-2.5053-7.5009-13.333-8.5038-13.97z" fill="#8b300c"/>
   <path d="m226.53 189.42 0.84975 7.8101 7.3397 10.626s-0.04304-6.8642-1.256-9.6898c-1.3065-3.0436-6.9335-8.7464-6.9335-8.7464z" fill="#8b300c"/>
   <path d="m236.29 202.24s-0.32613 7.0519 0.66112 9.5698c0.99582 2.5398 11.289 11.16 11.289 11.16l-1.2542-8.4418-10.696-12.288z" fill="#8b300c"/>
   <path d="m233.71 224.52 3.9043-8.701s8.2579 7.7351 9.1698 8.492c0.96122 0.79783 2.4357 16.03 2.4357 16.03l-1.6027 6.3352-7.2975-5.8235-6.6096-16.333z" fill="#8b300c"/>
   <path d="m228.35 229.95s0.27366 10.539 3.4129 15.871c1.1984 2.0355 6.2095-3.8551 6.2738-4.5532 0.20984-2.2773-5.9716-16.168-5.9716-16.168l-3.7151 4.8505z" fill="#8b300c"/>
   <path d="m214.24 235c1.0326 0.3451 12.158-2.0212 12.158-2.0212s1.9786 9.5204 2.3045 10.382c0.32011 0.8463 2.1225 4.0138 2.1225 4.0138l-8.8723 3.1039c-1.867-2.9611-8.7449-15.823-7.7124-15.478z" fill="#783114"/>
   <path d="m207.96 232.62s3.037 1.8596 4.968 4.315 5.797 12.265 5.797 12.265l-3.0739-0.46889-7.6911-16.111z" fill="#783114"/>
   <path d="m217.96 252.67c0.42016 0.04423 13.998 11.868 13.998 11.868l-1.7101 1.5554s-12.232-0.40764-11.332-5.7651c0.89175-5.3115-0.95538-7.6584-0.95538-7.6584z" fill="#783114"/>
   <path d="m221.62 253.02 12.612 9.6936 13.703-8.8237 0.07371-4.6588-8.6759-5.853s-4.6665 5.6634-7.4155 7.1725-10.298 2.4695-10.298 2.4695z" fill="#8b300c"/>
   <path d="m248.96 214.59 0.85373 7.75 10.585 1.7987c-3.3269-4.0273-6.0146-7.9559-10.856-10.876l-0.58263 1.3272z" fill="#8b300c"/>
   <path d="m249.67 225.36s1.3742 6.4827 1.3784 9.9737-1.8383 10.418-1.7765 13.084 0.82558 4.504 0.82558 4.504l5.0493 1.8134 10.209-1.2532s-4.8773-12.551-6.811-15.414-4.3122-4.4303-4.3122-4.4303 3.6274 1.4688 5.6464 3.8774 5.8306 12.841 5.8306 12.841l5.4031-5.2338s-8.624-17.009-9.0532-17.596-2.6934-2.0788-2.6934-2.0788l-9.6963-0.08864z" fill="#8b300c"/>
   <path d="m264.39 230.27 8.7367 16.142 6.9983 3.4465-5.3839-11.708-10.351-7.8803z" fill="#8b300c"/>
   <path d="m275.61 238.15 6.3974 12.191 9.8922 5.8309 2.3213-6.9657-18.611-11.057z" fill="#8b300c"/>
   <path d="m265.94 255.1c-0.00408-1.8219 6.295-7.4968 6.295-7.4968l9.7266 7.0451 4.3083 16.227-4.7102 3.9659s-15.615-17.874-15.62-19.741z" fill="#8b300c"/>
   <path d="m254.54 256.88-0.80747 19.132 8.6538 10.128 7.5702-1.2089-0.73348-20.644-4.279-7.3682-10.404-0.03973z" fill="#8b300c"/>
   <path d="m234.78 267.91 13.452-12.44 4.5776 1.0579s-0.89908 17.58-1.4771 17.562c-2.8053-0.09128-13.73 9.2487-13.73 9.2487l-2.8232-15.429z" fill="#8c300c"/>
   <path d="m217.8 264.37 13.979 3.9987s1.9006 5.5882 2.3938 8.0645 0.87908 8.374 0.87908 8.374l-19.908-13.848 2.656-6.5893z" fill="#783114"/>
   <path d="m215.48 272.71c1.197 1.9875 8.0531 6.2025 8.1436 7.1201s-4.1652 8.0408-4.8021 8.2258-6.6594-6.4845-6.3512-7.3738 1.8128-9.9595 3.0098-7.972z" fill="#783114"/>
   <path d="m212.92 284.93c2.0017 0.04512 7.6384 7.0624 7.3354 8.9453s-6.2029 7.789-6.835 8.0369-2.5621-5.9537-2.5621-5.9537l0.20469-5.1163s-0.1447-5.9573 1.857-5.9122z" fill="#783114"/>
   <path d="m223.19 283.46s4.1924-0.81202 5.5665-0.50657c1.3843 0.30771 4.9568 2.9786 5.0221 4.3248s-1.3415 6.3738-1.7857 6.8772-9.5295 0.02221-10.084-0.49389c-0.52187-0.48585-0.37192-6.4718-0.37192-6.4718l1.6529-3.7298z" fill="#783114"/>
   <path d="m237.31 288.19c2.4841-6.5416 13.506-10.203 14.501-9.386 1.0343 0.84942 7.5289 7.2866 8.4327 10.527s-8.436 14.852-9.3902 14.819-13.543-15.96-13.543-15.96z" fill="#8b300c"/>
   <path d="m271.29 266.03 0.61182 18.923 6.6263 8.6488 2.9422-5.8624-0.56045-10.841-9.62-10.868z" fill="#8b300c"/>
   <path d="m283.33 275.16-0.06634 14.507s3.8306 7.8649 4.2764 6.2569 6.7878-3.9496 6.7878-3.9496l0.28748-11.647-6.6931-8.3003-4.5923 3.1329z" fill="#8b300c"/>
   <path d="m283.56 254.59 4.5407 15.053 7.5481 9.1112 3.2138-4.0912-3.4593-11.088-6.3297-7.5547-5.5137-1.4301z" fill="#8b300c"/>
   <path d="m295.88 249.74-1.884 8.265 13.091 11.728-0.51145-12.612-10.696-7.3809z" fill="#8b300c"/>
   <path d="m297.83 263.82 2.7421 10.541 4.2443 3.3931 2.2571-5.2876-9.2435-8.6468z" fill="#8b300c"/>
   <path d="m308.7 260.11-0.05722 13.297 4.1647 7.3568 6.0709-5.2665-4.5642-8.4649-5.6142-6.9222z" fill="#8b300c"/>
   <path d="m305.75 280.19-0.16909 12.603 4.524-4.3519-0.33908-8.4551-2.0566-4.6662-1.9592 4.8703z" fill="#8b300c"/>
   <path d="m299.05 276.8-2.0787 3.7152-0.68553 14.072 3.3318 5.9562 3.8994-5.0495 0.64867-15.399-4.6218-3.7374-0.49387 0.44229z" fill="#8b300c"/>
   <path d="m256.83 302.79 5.4326-13.011 8.4253-2.8528 4.924 7.3199-2.2777 9.5388 0.52336 10.984s-8.3958 4.1059-8.6096 3.6931-1.1646-11.477-1.1646-11.477l-7.2533-4.1944z" fill="#8b300c"/>
   <path d="m277.14 295.27s-2.2565 11.045-1.0098 15.219 4.7085 7.4735 5.4145 7.8126c3.1093 1.0896 16.481-14.06 16.481-14.06l-4.4178-10.182s-10.667 7.5061-11.562 7.9217c-0.84183 0.39083-4.9059-6.7114-4.9059-6.7114z" fill="#8b300c"/>
   <path d="m282.16 291.27s-1.9901 2.8208-1.9018 4.1649 2.3367 3.73 2.3367 3.73 1.6121-2.0155 1.7048-3.4592-2.1397-4.4357-2.1397-4.4357z" fill="#8b300c"/>
   <path d="m299.94 302.19 8.4917-9.2218 0.29485 9.008-4.9092 6.6123s-2.8954-1.3639-3.4866-2.3884-0.28011-3.6489-0.28011-3.6489l-0.11057-0.36121z" fill="#8b300c"/>
   <path d="m316.35 279.9 4.4318-2.0764 3.8858 10.31-6.6775 3.9899-3.1658-8.5086 1.5258-3.7152z" fill="#8b300c"/>
   <path d="m311.56 282.8 2.1612 1.8593 3.1328 8.9638-0.24057 9.6403s1.4447 6.1434 0.75655 7.2184c-0.66111 1.0327-12.093-0.67501-10.909-1.9977 1.1112-1.2414 3.225-3.9543 4.3819-7.8455s0.71757-17.839 0.71757-17.839z" fill="#8b300c"/>
   <path d="m318.47 296.21s-0.5602 6.5957 0.14587 8.2789 1.3222 4.8797 1.3222 4.8797 5.7417-9.7692 6.3182-11.384-1.1851-6.5115-1.1851-6.5115-3.0202 0.10129-3.4478-0.15671-3.0206 5.0856-3.1533 4.894z" fill="#8b300c"/>
   <path d="m327.35 298.63c-0.18428 0.55286-1.6184 4.3632-2.5927 6.3581s-4.5332 5.6419-4.5332 5.6419 0.67815 5.2485 2.4988 7.1209 6.1771 3.6415 6.1771 3.6415l0.8416-7.1518-2.3917-15.611z" fill="#8b300c"/>
   <path d="m323.26 322.65 5.2704 0.00737-0.52423 8.0464c-1.3987 1.3429-4.4392 8.0412-5.0506 9.5155 0 0-6.197-3.556-6.1086-3.8877s6.5456-8.1971 6.5456-8.1971l-0.13268-5.4844z" fill="#8b300c"/>
   <path d="m330.04 322.12-0.7927 11.174-5.0346 8.2635 2.4406 3.0065 3.4612-5.9119-0.07456-16.532z" fill="#8b300c"/>
   <path d="m310.99 313.31 7.6956-0.37595 3.2581 7.4452s0.36856 6.568 0.05897 6.1478-6.0739 8.5805-6.0739 8.5805l-5.521-6.6344-1.1868-7.5853 1.7691-7.5779z" fill="#8b300c"/>
   <path d="m282.43 320.46s4.4784-1.3831 6.1108-2.5063c3.5636-2.4521 9.8774-10.504 9.8774-10.504l3.25 2.4327s-14.797 17.1-16.381 17.84c-1.4089 0.65809-4.2361-3.0972-4.2361-3.0972l1.3784-4.1649z" fill="#8b300c"/>
   <path d="m264.37 321.33 10.711-5.282s4.8771 2.6097 5.2483 5.1011c0.05376 0.36079-8.2144 13.565-8.2144 13.565l-4.9359-0.03075-2.8094-13.353z" fill="#8b300c"/>
   <path d="m253.48 305.68-8.0641 15.016 4.5849 5.4623 6.9437-1.5406 6.9879-5.735s-1.7838-11.109-4.7913-12.369-5.639-1.032-5.6611-0.83298z" fill="#8b300c"/>
   <path d="m249.44 305.47-5.7643 14.006s-5.0346 0.72978-5.956-0.77401-4.9903-9.9147-4.408-13.999 1.4448-16.151 1.4448-16.151l14.683 16.918z" fill="#8b300c"/>
   <path d="m214.34 303.38 8.8602-7.6357 8.8307 0.72979-0.64867 12.509 3.4866 8.234-7.7766 8.6173s-8.2558-8.234-8.5949-9.3618-4.3195-12.901-4.1573-13.093z" fill="#783114"/>
   <path d="m210.9 299.69c-0.29485-0.02211 6.3296 17.073 5.5651 17.633s-5.6992-4.5514-7.3384-5.6282l1.7733-12.004z" fill="#783114"/>
   <path d="m308.39 312.93s-1.123 10.114-1.3754 10.13-2.2076-2.1727-3.0649-3.7484-2.2725-6.5253-2.1786-6.7755 2.3746-2.2972 3.6769-2.1245 2.942 2.5185 2.942 2.5185z" fill="#8b300c"/>
   <path d="m295.64 337.27s17.463-7.4235 2.4864-0.54467c-3.4125 1.5674 7.273 2.0498 7.273 2.0498s4.3001 3.018 4.2219 2.773 3.6225-4.3993 3.6225-4.3993c-1.3986-1.0599-4.2424-1.582-4.3746-3.7472l-0.24349-3.988-5.4781-5.4731-7.5077 13.33z" fill="#8b300c"/>
   <path d="m300.25 315.41c-0.51319-0.16084-4.6083 3.1855-4.8486 5.2834s-0.9393 13.132-0.18654 13.507 7.3754-12.908 7.5162-13.479-1.9678-5.1506-2.481-5.3115z" fill="#8b300c"/>
   <path d="m296.19 338.69c-0.23977 0.02606 3.2831 9.352 6.2627 14.46l6.9788 0.17313 2.4469-2.3784s-2.4364-3.4544-3.0619-6.1805-12.553-6.0118-12.626-6.0744z" fill="#8b300c"/>
   <path d="m310.7 343.09c-0.29088 0.85776 2.9084 7.1463 2.8876 6.9013s4.2881-0.3559 4.5347-0.25542 0.8169 1.7113 0.58898 2.0746-5.181 0.18765-5.181 0.18765-3.0909 2.7261-3.315 2.8043 1.6848 4.0163 3.044 4.6026 4.2861-0.74459 4.2861-0.74459 7.8984-11.609 7.749-12.224-9.0697-8.3955-9.5019-8.4494-4.8015 4.2452-5.0924 5.103z" fill="#8b300c"/>
   <path d="m329.06 344.2-4.4669 6.9847 2.8146 3.8468 1.9715-2.8824 0.48395-10.732-0.80317 2.7833z" fill="#8b300c"/>
   <path d="m323.71 352.82 2.0015 4.0397-7.165 6.8216-0.08527-3.3136 5.2487-7.5476z" fill="#8b300c"/>
   <path d="m318.23 366.39c0.76272 0.20654 2.8966 4.8611 3.1781 4.7882s4.4825-4.0605 4.4825-4.0605-0.6495-2.1524-0.34401-3.0076c0.27936-0.78208 2.283-1.6784 1.9859-1.9286s-2.9866-1.4595-2.9866-1.4595l-6.3158 5.668z" fill="#8b300c"/>
   <path d="m328.88 355.66c-0.28668 0.29711-3.2152 3.8441-3.2152 3.8441l1.8532 0.62929 1.3619-4.4734z" fill="#8b300c"/>
   <path d="m324.32 371.06s2.3299 4.0292 1.892 7.6571-2.1527 5.275-2.1527 5.275l-5.0559-0.09382 0.34922-7.8448 4.9673-4.9935z" fill="#8b300c"/>
   <path d="m306.75 362 3.6486 4.024 5.8638-0.62028s0.29518-2.1979 0.06416-3.0985c-0.12627-0.49226-0.84599-1.4676-0.84599-1.4676l-8.7305 1.1624z" fill="#8b300c"/>
   <path d="m310.16 369.7 4.0551 0.73496 2.0894-2.301s-5.7223-0.37294-6.0559-0.399-0.02606 2.1006-0.08861 1.9651z" fill="#8b300c"/>
   <path d="m313.36 372.79 4.3939 3.0858 2.5905-3.7582s-1.7096-2.2987-1.9754-2.4499-4.3626 2.9242-4.6493 3.0389-0.20849 0.03649-0.35965 0.0834z" fill="#8b300c"/>
   <path d="m309.08 375.75 4.3626 7.7405 3.8258-2.3039 0.55771-3.7634-8.7462-1.6732z" fill="#8b300c"/>
   <path d="m307.13 371.2 3.1951 2.7001 0.72972-2.2622-3.9248-0.43785z" fill="#8b300c"/>
   <path d="m303.49 354.17c-0.42343 0.02545 1.4981 6.4776 1.4981 6.4776s6.5044-0.47422 6.2073-0.91745c-3.403-5.076-7.7054-5.5601-7.7054-5.5601z" fill="#8b300c"/>
   <path d="m305.75 362.05c-0.98964-0.81274 0.69959 6.6908 0.69959 6.6908l2.9395-1.4556-3.6391-5.2352z" fill="#8b300c"/>
   <path d="m311.97 386.83c-0.17201 0.21371 5.1028 5.0561 5.1028 5.0561l3.2785-0.44306 2.4393-3.9146-4.9099-2.8304-5.9107 2.1319z" fill="#8b300c"/>
   <path d="m320.33 394.94c-0.22934-0.34924 1.1206-3.1066 1.1206-3.1066s1.4777-0.53219 1.8451-1.0529c0.77394-1.0967 0.78705-4.4045 0.78705-4.4045l2.5051-2.271 0.22092 6.2325s-1.7157 1.1952-2.1631 1.9442c-0.43156 0.72253-0.66196 2.7261-0.66196 2.7261l-3.6538-0.06776z" fill="#8b300c"/>
   <path d="m313.39 392.04s1.8608 2.2379 2.872 2.9138 3.7215 1.5116 3.7215 1.5116-1.1316 7.8287-2.0266 9.1944c-0.43821 0.66872-2.3479-4.3028-3.2442-5.6137s-1.2071-4.4259-1.2071-4.4259l-0.36585-3.7365 0.25019 0.15637z" fill="#8b300c"/>
   <path d="m321.1 397.6c0.01043 0.2502-1.3298 6.7904-1.3298 6.7904l4.1931 0.46622 2.3228-8.4033-0.19285-2.9502s-1.0162 3.0258-1.9025 3.6539-3.0909 0.44306-3.0909 0.44306z" fill="#8b300c"/>
   <path d="m319.05 405.31 2.8459 6.281 2.4758 0.23977 0.41176-4.9153-5.7335-1.6054z" fill="#8b300c"/>
   <path d="m328.35 399.2-3.333 6.0594 4.4658 0.5186c1.1936-2.7523-0.7552-4.3854-1.1328-6.578z" fill="#8b300c"/>
   <path d="m327.91 407.01-2.6299-0.43363s0.14764 4.1521-0.03127 5.3462-0.68744 3.4652-0.68744 3.4652l3.2935 2.7702 0.65153-5.0717s1.1813-3.2728 1.0148-4.0993-1.6112-1.9769-1.6112-1.9769z" fill="#8b300c"/>
   <path d="m321.84 412.75-2.9642 6.1055 0.66683 2.9537s2.6531-0.96001 3.5078-1.5325 1.267-7.0966 1.267-7.0966l-2.4775-0.43023z" fill="#8b300c"/>
   <path d="m325.05 416.78 2.3798 2.2727 0.64608 11.428s-2.257-5.1891-2.7189-5.7483-4.5256-0.27403-5.0832-0.82978 3.5958-2.6934 3.5958-2.6934l1.1804-4.4295z" fill="#8b300c"/>
   <path d="m318.73 423.57 1.621 2.8512-0.37782 3.4551-1.7592-2.6576 0.51601-3.6487z" fill="#8b300c"/>
   <path d="m321.24 426-0.74061 5.0383 5.838 2.3057 1.1155-1.9835s-2.3535-5.4909-3.0607-5.5122-3.1522 0.15169-3.1522 0.15169z" fill="#8b300c"/>
   <path d="m320.4 431.78 0.7269 9.1187 4.5463 0.69739 2.0949-2.6144-0.98966-3.6412-6.3785-3.5605z" fill="#8b300c"/>
   <path d="m325.98 442.44 0.46389 2.4394 2.6947 0.07297-0.24498-4.0188-2.9136 1.5064z" fill="#8b300c"/>
   <path d="m321.77 443.41s3.2264 0.42742 3.4349 0.36487 0.80269 2.8147 0.80269 2.8147l-3.7372 0.26583-0.50038-3.4454z" fill="#8b300c"/>
   <path d="m322.72 449.24 0.54729 3.3099 2.3924-0.56295s0.42219-2.2153 0.15115-2.2987-2.9241-0.39615-3.0909-0.44827z" fill="#8b300c"/>
   <path d="m327.58 448.41 1.6873-1.7516 1.1257 1.0726-0.02669 1.7872-2.4005 0.29917-0.38571-1.4074z" fill="#8b300c"/>
   <path d="m325.55 454-0.48474 2.1058 3.4192 1.2145 3.1505 0.47341-0.73198-6.7544-2.4914 0.34402-2.8615 2.6167z" fill="#8b300c"/>
   <path d="m324.94 459.64 0.81832 3.336 2.455-0.20329 1.2249-2.7105-4.2115-0.56294-0.28667 0.14073z" fill="#8b300c"/>
   <path d="m326.71 465.83c-0.2971 0.10947 0.06776 2.6323 0.06776 2.6323l4.0395 1.2927-0.54729-3.4506-3.56-0.47434z" fill="#8b300c"/>
   <path d="m327.17 471.31-0.0834 3.4506 2.6635 0.37009-0.50037-2.4864-1.7826-1.4334-0.2971 0.09903z" fill="#8b300c"/>
   <path d="m330.96 471.25 0.3857 2.1944 2.8615 0.53688 0.62993-0.70674-1.1251-3.2964-2.7521 1.2718z" fill="#8b300c"/>
   <path d="m331.84 475.23-1.6836 1.6054 0.5994 1.3761 3.4088 0.21371 1.0796-2.2527-3.4043-0.94254z" fill="#8b300c"/>
   <path d="m333.2 479.52-1.1102 0.88612 3.3515 1.8348 0.78705-2.7053-3.0283-0.01564z" fill="#8b300c"/>
   <path d="m328.41 482.93 2.2569-0.18243s-0.28668 4.2325-0.62026 4.4462-1.8086-2.0693-1.8086-2.0693l0.172-2.1944z" fill="#8b300c"/>
   <path d="m269.13 337.24s-5.6123 3.2919-5.2956 9.2156c1.4843 2.2536 4.4264 13.027 4.3039 13.147l3.4968-0.25632s2.7783-13.071 4.125-14.809c-1.7849-7.453-6.63-7.2974-6.63-7.2974z" fill="#8b300c"/>
   <path d="m253.75 351.46 6.2547-2.5437 6.3085 10.657-2.7642 8.3578-7.8601-5.5727-1.9389-10.899z" fill="#8b300c"/>
   <path d="m249.76 328.4c-2.5691-1.842-1.2925 15.304 0.77153 17.097s3.169 2.6271 3.169 2.6271 6.1286-3.0723 7.8303-4.8609 3.5086-6.3353 3.5086-6.3353-1.154-13.426-3.035-12.453c-1.8958 0.98045-9.6012 5.8209-12.245 3.9256z" fill="#8b300c"/>
   <path d="m265.13 369.85c0.28855 4.7002 0.78337 8.1644 0.78337 8.1644l7.3894 3.1362s-0.1834-3.8863 0.62547-6.1298 3.3748-8.3042 3.3748-8.3042l-6.252-4.2474s-6.2097 2.6807-5.9211 7.3808z" fill="#8b300c"/>
   <path d="m256.84 366.3 6.8295 4.9233s-1.414 2.9729-1.2539 4.3159 0.96518 2.702 2.1147 3.6786l-3.7054 6.2907-3.9849-19.208z" fill="#8b300c"/>
   <path d="m265.63 382.53c-1.6555 0.69899-2.627 3.6279-2.627 3.6279s0.0154 2.2989 1.4594 3.3777 8.5356 1.5321 8.8131 1.6173 1.5078 1.9546 1.3404 2.0314-1.0216 4.8997-1.0216 4.8997l2.627 4.6287 3.0648-5.2125s-2.6222-4.3973-3.5652-6.4843-2.6687-7.4017-2.6687-7.4017-5.7667-1.7832-7.4222-1.0842z" fill="#8b300c"/>
   <path d="m265.78 391.96 0.21439 8.6289 4.9562-0.18468 1.7513-4.441 0.37528-2.6688-7.2972-1.3344z" fill="#8b300c"/>
   <path d="m261.21 386.75 2.8563 13.886-2.1624 2.1535-0.69388-16.039z" fill="#8b300c"/>
   <path d="m262.13 404.61 6.0657 8.303-5.7542 2.5448-0.40944-3.299 0.09795-7.5488z" fill="#8b300c"/>
   <path d="m266.67 403.53-0.31273 4.2117 5.1497 5.8171 2.9397-2.6688s-0.36643-6.4474-1.0424-7.0472-6.7342-0.31274-6.7342-0.31274z" fill="#8b300c"/>
   <path d="m268.4 414.55-5.48 2.8279s6.8422 1.8053 8.0426 1.9717 3.2941 1.2093 3.2941 1.2093l-1.7513-4.8163-4.1054-1.1926z" fill="#8b300c"/>
   <path d="m262.21 418.45-1.0997 4.8137 11.614 1.7519 0.87155-3.1346-11.386-3.431z" fill="#8b300c"/>
   <path d="m273.89 414.17 1.417 5.366-1.417-5.366z" fill="#8b300c"/>
   <path d="m279.22 401.44s-2.8036 4.7535-3.1065 6.38 0.33358 3.9198 0.33358 3.9198l2.9459-1.7268-0.173-8.573z" fill="#8b300c"/>
   <path d="m275.49 376.58-0.25019 7.8187 2.2467 7.646 0.73471-19.093-2.7312 3.6279z" fill="#8b300c"/>
   <path d="m276.28 349.88 1.029 13.688-4.0134-3.4402 2.9844-10.248z" fill="#8b300c"/>
   <path d="m229.15 328.1c2.1149-0.71455 5.6989-9.7843 7.3657-7.9705s4.913 1.0614 6.6672 2.0431 4.064 4.5722 4.064 4.5722-1.5452 12.322-1.3939 14.692-6.2207 1.2683-6.289 1.1644-1.2316-4.3718-0.67759-4.785c0.5823-0.43438 3.6198-0.47098 3.945-0.89651s-0.98422-2.6969-1.4327-2.7105-3.745 2.2681-4.4303 2.7194-9.9111-8.1214-7.8185-8.8284z" fill="#783114"/>
   <path d="m217.31 319.35c0.53792-0.02979 12.752 14.768 13.093 15.585s0.26769 8.8992-0.62546 11.301c-1.0905 2.9321-2.8701 4.4081-2.8667 4.3993l-9.3508 0.5838s-0.50556-5.8581-1.3983-8.2342-5.5592-6.6888-5.5592-6.6888 6.2139-16.919 6.7073-16.946z" fill="#783114"/>
   <path d="m208.71 313.07s-2.02 15.678-1.5291 18.989c0.49738 3.3538 5.0591-2.6901 5.0591-2.6901l1.1154-10.529-4.6454-5.7693z" fill="#783114"/>
   <path d="m207.15 335.62 7.926 9.0616 0.77141 9.0697s-3.6412 8.1964-4.0965 7.296c-5.0948-13.506-4.601-25.427-4.601-25.427z" fill="#783114"/>
   <path d="m231.98 337.67c-0.56618 0.1343-0.13597 7.6581-0.01043 7.7978 0.14615 0.16268 5.3629 4.0959 5.6084 3.9302s-0.03203-7.7473-0.36329-8.191c-0.29787-0.3989-4.6794-3.6688-5.2347-3.5371z" fill="#783114"/>
   <path d="m231.01 347.68c-0.05734-0.0417-0.745 5.6043-0.81311 5.9214s4.4254 1.5195 4.7223 1.2301-0.80721-6.1224-1.7722-6.5781-2.0797-0.53167-2.137-0.57337z" fill="#783114"/>
   <path d="m215.53 359.09c-0.50465-3.2585 10.153-6.8804 10.153-6.8804s6.1068 5.414 6.2801 8.4069 1.1422 13.35 1.1422 13.35l-9.9867 0.13553s-7.0844-11.753-7.589-15.012z" fill="#783114"/>
   <path d="m212.07 361.75 9.256 13.481s-3.694 2.8444-3.9161 1.8716c-1.4134-6.1915-5.34-15.352-5.34-15.352z" fill="#783114"/>
   <path d="m221.77 376.82c-0.12109 0.29313-4.9378 0.07543-2.4961 9.302 1.561 4.6083 4.2152 2.6876 6.7227 2.1766 2.5573-0.52117-2.344 1.7569-1.9494 2.2101 0.38285 0.43967 1.7818 6.2035 2.9397 5.1186 1.1444-1.0722 7.0642-4.6204 6.974-5.2854s-0.7512-13.828-0.7987-14.555c-0.04518-0.69221-11.271 0.74042-11.392 1.0336z" fill="#783114"/>
   <path d="m220.02 390.55 4.5554 6.3267-2.6086 5.3782-2.1058-0.18764-1.0529-2.5333 1.2118-8.984z" fill="#783114"/>
   <path d="m225.73 398.81 7.7306-5.0843-1.8599 9.7307-8.0013-0.9947 2.1306-3.6517z" fill="#783114"/>
   <path d="m221.74 408.1c0.09382-0.48997-1.0589-4.4109-1.0589-4.4109l4.4738 0.14703 6.1405 1.2945-1.1585 6.8461-7.9019 0.27179-0.49501-4.1486z" fill="#783114"/>
   <path d="m218.71 401.79 2.3458 9.7281-2.7473-2.3102 0.4015-7.4179z" fill="#783114"/>
   <path d="m218.53 409.95 4.4873 6.8334-5.5235-0.06979c-2.3535-0.79165 0.79448-4.7683 1.0362-6.7636z" fill="#783114"/>
   <path d="m222.95 413.65c-0.5942 0.0834 2.761 1.4908 2.761 1.4908l5.4598 0.91179-0.78035-3.199-7.4404 0.79636z" fill="#783114"/>
   <path d="m222.14 418.15c-0.00543-0.0671-0.05892 2.265 0.50626 2.645 1.5937 1.0716 3.9301 0.21516 4.0942 0.26375s-2.1403 0.95884-2.1403 0.95884-0.9673 1.8254-0.66499 1.325 7.0969-1.4396 7.0969-1.4396l-0.08661-5.0101-8.8055 1.2571z" fill="#783114"/>
   <path d="m224.05 424.3 2.7205-0.08828 4.2055-0.67276 0.24535 4.6842c-1.383-0.54775-2.1885-1.9228-3.5348-2.0717l-4.4003 0.48633 0.76369-2.3378z" fill="#8b300c"/>
   <path d="m216.16 422.09 3.1735-1.8894c1.3985 1.4867 0.30048-6.5181 3.0863 3.0455l-6.4847 1.2336 0.2248-2.3897z" fill="#783114"/>
   <path d="m216.59 417.36s-0.70792 4.483-0.33264 3.8784 2.3858-1.9456 2.3858-1.9456l2.2347-1.5951-4.2879-0.33766z" fill="#783114"/>
   <path d="m278.12 328.95c1.3674-0.96921 3.2822-1.0913 3.2822-1.0913l2.4891 1.0818-9.4365 8.4346-0.4037-2.152s2.7015-5.3038 4.0689-6.273z" fill="#8b300c"/>
   <path d="m169.21 86.313s-1.9675 7.1466-3.1083 8.727c-1.3772 1.9079-1.9405 9.3868-3.6924-4.0061-0.12704-0.96528 1.4021-7.1184 2.4382-7.4595s5.5124-0.38226 4.3626 2.7386z" fill="#8b300c"/>
   <path d="m175.69 85.764c1.8916 2.0118-2.1252 17.33-0.25269 15.971 4.9564-3.5969 9.0125-15.678 6.4834-17.796-1.5094-1.2636-8.1223-0.18719-6.2307 1.8247z" fill="#8b300c"/>
   <path d="m154.84 129.41s-0.59778 3.586-2.0887 9.4993c-0.58283 2.3116 3.7961 2.0284 4.7672 0.64681 1.5766-2.243-1.4783-9.35-2.6786-10.146z" fill="#8b300c"/>
   <path d="m314.06 402.71c-0.40308-0.18236 5.2592 7.2174 4.789 7.3421s-1.3436 10.999-1.4684 12.573-4.1652-5.5282-4.4435-8.4746 1.3148-11.613 1.1229-11.44z" fill="#99603b"/>
   <path d="m275.29 421.41-1.2562 3.4518s3.7028 1.0478 4.71-3.185-1.9423-9.7769-1.9423-9.7769l-1.5115 9.5101z" fill="#8e3410"/>
   <path d="m215.88 433.79s8.844-8.3908 11.248-3.8552-1.6327 10.16-1.6327 10.16-7.7101 0.86176-9.615-6.3044z" fill="#783114"/>
   <path d="m281.45778,391.95121c.42846-.02228.59219,1.22456.68553.46885 .09467-.76648.78482-7.56018-.39106-6.6365-1.16241.9131-.64977,6.18612-.29447,6.16765z" fill="#783114"/>
   <path d="m282.07 393.91c1.3808-0.24399 2.1166 12.685 1.6655 12.768s-1.3834-3.1684-1.3834-3.1684-1.6628-9.3554-0.28205-9.5994z" fill="#783114"/>
   <path d="m279.91 369.17c-0.64548-0.36515-0.66576-10.281 0.634-9.062s1.01 8.3448 1.01 8.3448c-0.40075 0.51132-0.9985 1.0823-1.644 0.71717z" fill="#783114"/>
   <path d="m270.12 445.44s4.3792 0.92374 5.5272 2.8745-0.78827 2.8213-0.62232 8.5054-1.4429 1.5042-2.729-1.0474-2.2381-10.623-2.1758-10.332z" fill="#8e3410"/>
   <path d="m280.43 440.42c0.79287 0.62558 1.7679 15.483 0.99059 17.489s-1.5048 1.8848-4.1291 2.4029c-1.3276-1.4936 2.3456-20.517 3.1385-19.892z" fill="#8e3410"/>
   <path d="m274.59 462.65 4.0617 9.1162s-1.7089-1.0119-2.8291-1.821-2.4785-9.0854-2.4785-9.0854l1.2458 1.7902z" fill="#8e3410"/>
   <path d="m277.53 462.21c-1.0476 0.39177 3.443 11.802 3.3544 7.9778s0.9502-8.4755 0.88063-8.7057c-0.0574-0.18993-3.1874 0.33614-4.235 0.7279z" fill="#8e3410"/>
   <path d="m275.86 472.35s2.5848 1.2701 3.0143 2.6275c1.0494 3.3157-1.9674 8.6274-1.9674 8.6274l-1.047-11.255z" fill="#8e3410"/>
   <path d="m281.22 474.33c-0.22931 1.9521 0.80303 9.2162 1.3704 12.043 0.5717 2.8481-4.0637-0.29926-3.7546-1.0372s2.6485-13.256 2.3842-11.006z" fill="#8e3410"/>
   <path d="m276.82 486.56s3.1048 3.0911 2.4493 5.123-0.47215 5.0554-2.1183 4.1242-0.331-9.2472-0.331-9.2472z" fill="#8e3410"/>
   <path d="m281.05 489.18c-0.28817 0.45503 0.63488 7.4833 0.63488 7.4833 0.34946 0.42397-0.83058 0.35302 4.3957 3.9756 0 0-3.107-9.6847-3.604-10.961s-1.1346-0.95851-1.4265-0.49756z" fill="#8e3410"/>
   <path d="m278.05 497.72c-1.7563-1.3119-1.0226 3.9588-1.0226 3.9588l5.3296-0.48235c0.68682-1.0583-2.5432-2.1589-4.307-3.4764z" fill="#8e3410"/>
   <path d="m216.71 439.27s1.7955 4.3256 3.8562 3.5706-2.3871 3.3258-2.7748 8.1003-1.7546-1.2446-1.4894-2.428 0.57128-9.7326 0.40806-9.2429z" fill="#783114"/>
   <path d="m223.81 442.72s3.3461-0.04081 3.8562-1.3262-0.6323 5.092-1.8769 8.3566-1.6324 0.49867-2.0813-0.52152 0.16323-6.57 0.10202-6.5088z" fill="#783114"/>
   <path d="m221.3 446.52s-2.6492 7.0571-1.9556 8.669 2.5891-0.6749 2.5891-0.6749l-0.63352-7.9941z" fill="#783114"/>
   <path d="m224.35 453.5s-1.5916 4.2177-2.6135 4.2095c-2.4241-0.01993 0.80262 5.9063 0.80262 5.9063l1.8109-10.116z" fill="#783114"/>
   <path d="m215.9 453.78-0.34754 5.6145s7.5393 8.3775 3.7199 0.99252c-0.62526-1.209-2.6787-5.8929-3.3724-6.607z" fill="#783114"/>
   <path d="m215.51 461.79c-1.8703 4.1221 3.1473 4.032 3.1473 4.032l-3.1473-4.032z" fill="#783114"/>
   <path d="m221 464.98c-1.1834 0.59171 0.18674 2.5842-0.7722 3.5228s1.6644 3.2091 1.5828 1.8217 0.67469-3.5043 0.67469-3.5043l-1.4853-1.8402z" fill="#783114"/>
   <path d="m215.24 467.37s-0.40928 2.1951 0.22321 3.8274 3.2541-2.0287 3.1317-3.0692-2.3756-0.41133-2.3756-0.41133l-0.97934-0.34686z" fill="#783114"/>
   <path d="m214.6 472.51-0.09582 3.5375s3.9027 4.6224 3.6579 2.8473-1.2421-6.0098-1.2421-6.0098l-2.3199-0.37492z" fill="#783114"/>
   <path d="m219.64 471.56c-1.5302 1.5711 0.01006 6.6617 0.01006 6.6617s1.3976-2.0703 1.5608-3.8047-1.1016-3.1835-1.5709-2.857z" fill="#783114"/>
   <path d="m214.27 478.45c-1.4282 2.2444-0.87355 6.357-0.39748 6.2296 0.50424-0.13494 2.5075-2.3488 2.3851-3.6751s-1.3755-3.0441-1.9876-2.5544z" fill="#783114"/>
   <path d="m217.91 482.07c-2.1423 2.7749-0.9238 2.6744 0.03514 3.3069s1.6696-0.03857 1.8328-1.9157 0.32282-3.0028 0.32282-3.0028l-2.1908 1.6116z" fill="#783114"/>
   <path d="m214.94 485.83c-1.5302 2.6525-4.1198 1.2624-2.9773 2.1806s6.1705 4.5691 5.6605 1.4065-1.9283-2.9546-2.6832-3.5871z" fill="#783114"/>
   <path d="m270.92 456.5 1.9016 6.8736-1.0517 1.3917-0.84987-8.2653z" fill="#783114"/>
   <path d="m271.89 465.88 1.0517-0.50994 0.64802 6.1299-1.3492-2.4966-0.35057-3.1234z" fill="#783114"/>
   <path d="m272.51 473.36-0.43556 3.6864 1.5935-1.5404-1.1579-2.146z" fill="#783114"/>
   <path d="m274.18 477.81-2.2415 1.2642s-0.47805 2.9746-0.48867 4.2389 2.0715 0.43557 2.0715 0.43557 1.7635-2.0716 1.3067-3.5696-0.50992-2.1991-0.64802-2.3691z" fill="#783114"/>
   <path d="m271.22 485.64-0.48867 2.3797s2.8364 0.71179 3.0489-0.02125-2.2096-2.6878-2.5602-2.3585z" fill="#783114"/>
   <path d="m274.76 484.59-0.72239 1.9866 1.1898 1.6254-0.46742-3.6121z" fill="#783114"/>
   <path d="m270.69 489.55 0.72239 1.9866s1.3704 1.4236 1.4554 0.11686-1.7635-1.976-2.1778-2.1035z" fill="#783114"/>
   <path d="m274.29 489.79c-0.33994 0.63743-0.54178 3.0065-0.02124 2.7197s1.3385-2.0716 1.1261-2.6559-0.82862-0.18061-1.1048-0.06375z" fill="#783114"/>
   <path d="m190.81 113.86c1.3184 2.3108 6.1331 8.2941 7.0811 12.372s8.3075 14.392 8.4531 17.055 8.9447 21.427 11.087 24.422 12.623 20.057 16.662 21.988c8.0919 3.8693 22.279 10.288 38.22 44.294-20.635-17.988-35.995-36.151-37.485-37.195-17.537-12.291-40.21-68.816-46.403-81.901 0.92266 0.016 2.3839-1.0352 2.3839-1.0352z" fill="#8b300c"/>
   <path transform="translate(-1.6049 -1.177)" d="m218.45 426.73c-2.5874 0.5949-0.80352 5.1834-0.80352 5.1834s6.8808-3.1915 6.032-3.3726c-1.7843-0.38066 0.90536-3.4405 0.90536-3.4405s-3.5464 1.0348-6.1338 1.6297z" fill="#783114"/>
   <path transform="translate(-1.6049 -1.177)" d="m263.47 428.98s0.31747 4.1727 2.8119 9.4339 12.427 3.1295 12.427 3.1295 2.3584-8.935 0.36283-11.339-18.005-3.9459-15.602-1.2246z" fill="#8e3410"/>
   <path transform="translate(-1.6049 -1.177)" d="m281.14 356.36c-0.51098 1.5491 2.5115 5.2712 2.5115 5.2712s0.81819-8.9027 3.4163-13.85c2.9525-5.6217-1.9818-9.2764-2.4686-9.2434 0 0 2.0545 1.1066-3.4593 17.822z" fill="#783114"/>
   <path transform="translate(-1.6049 -1.177)" d="m281.11 357.17s2.9681-10.062 2.9842-10.672 0.70529-8.0007-1.6702-9.6928-1.314 20.365-1.314 20.365z" fill="#783114"/>
   <path transform="translate(-1.6049 -1.177)" d="m284.04 335.11c-1.7315-0.52124 4.6157 7.0355 5.357 4.982 0 0 2.2967-6.6968 2.7876-7.7218 0.48304-1.0087 1.192-5.6897 0.07724-5.5993-1.8474 0.14975-8.2218 8.3392-8.2218 8.3392z" fill="#742a0d" fill-opacity=".94118"/>
   <path d="m278.6 539.18s5.1899 1.0412 6.9446 0.74883-0.04405-9.9549-0.04405-9.9549l2.6428 10.337s8.0239-1.3327 8.501-1.9968c0.45641-0.63546-4.0229-14.492-4.0229-14.492s-5.2832 4.3826-13.17 0.35239c-2.3659 2.5363-0.85156 15.006-0.85156 15.006z" fill="#a7a7a7"/>
   <path d="m329.15 525.34s5.3181 1.7906 9.1763 1.2627c-0.45828-2.0108-1.3214-12.128-1.3214-12.128s2.3256 9.025 4.2138 11.1c1.9325 2.1238 6.8272-4.581 6.8272-4.581l-4.9479-10.483c0.00153-0.00136-5.3793 2.1763-12.127 1.0718-0.66872-0.10945-1.9234 11.687-1.8206 13.758z" fill="#a7a7a7"/>
   <path d="m262.86 512.61s-2.7911 9.6893-1.9527 11.482 1.3361 0.77819 1.3361 0.77819l2.3344-8.8684-0.4111 9.1767s12.441-0.34647 13.493-3.333c-1.4297-2.5754-2.9364-8.3692-2.9364-8.3692l-11.863-0.86628z" fill="#a7a7a7"/>
   <path d="m193.29 534s18.937 1.609 19.938-0.41111c1.5777-3.1839 1.0396-11.781 0.57261-11.232-1.3361 1.571-10.291 1.4739-13.493-4.1699-0.1306-0.23022-7.018 15.813-7.018 15.813z" fill="#a7a7a7"/>
  </g>
 </g>
</svg>
