<?xml version="1.0" encoding="UTF-8"?>
<svg enable-background="new 0 0 418.072 237.714" viewBox="0 0 418.072 237.714" xmlns="http://www.w3.org/2000/svg">
 <path d="m389.711,48.601c-3.049-9.699-1.563-20.505-5.232-29.646-4.943-12.316-10.465-.095-10.465,7.848-3.429-4.791-10.614-7.387-14.824-10.463-5.006-3.658-6.21-3.958-6.104,2.616 .101,6.273 4.362,12.321 6.977,18.311 1.99,4.56 2.479,4.497 5.232,6.976 2.25,2.025 4.313,1.86 5.231,5.232-10.042-.883-20.424,7.215-27.905,13.079-1.852-5.967-8.959-10.788-14.824-12.208-3.489-.845-5.237.607-8.365-1.583-3.515-2.46-6.918-4.896-10.234-7.609-10.388-8.498-23.882-17.24-37.066-20.378-32.808-7.81-57.18,1.247-85.767,17.581-24.992,14.28-52.246,27.277-81.278,30.042-32.089,3.056-59.412-8.695-83.795-29.014-5.479-4.564-11.576-12.157-14.761-18.526-1.491-2.983-4.456-7.491-3.778-10.882 .655-3.277 1.372-6.452.645-9.333-7.26,5.543.415,24.646 3.707,30.818 8.013,15.022 17.937,24.678 31.203,35.151 23.308,18.399 59.026,21.882 87.479,20.384 14.368-.756 28.498-4.484 42.427-7.877 4.141-1.008 29.813-9.037 23.108,4.359-1.007,2.013 4.099,12.035 5.668,13.952 4.087,4.991 11.929,2.335 14.389,4.795 6.584,6.584 19.781,10.899 29.472,10.899 9.023,0 7.589,37.024 7.589,44.252 0,9.482-3.313,14.542-6.104,22.888-4.045,12.097 7.739,13.329 16.133,16.131 5.473,1.827 14.248,9.887 18.313,13.951 6.852,6.851 14.071,12.299 20.492,19.62 2.895,3.301 6.626,6.878 11.336,6.975 1.567.032 3.556-2.694 4.361-2.616 1.329.128 3.187,1.856 4.36,1.744 2.249-.215 2.604,2.625 4.796.436 1.063-1.061.822-5.782 1.309-7.41 3.99,2.037 4.493.117 7.848,0 5.057-.177 5.071,2.897 6.104-3.489 .713-4.406-3.784-14.248-6.54-17.002-12.021-12.007-30.652-12.006-44.91-20.491-30.53-18.17 3.488-47.432 3.488-71.5 0,.297 8.423-1.527 9.593-.872 3.051,1.709 4.263,9.885 3.052,13.517-1.256,3.769-10.521,10.755-13.517,11.77 5.61,6.397 14.965,2.571 21.364.437 11.522-3.844 13.79-8.715 16.134-19.619 2.129-9.907 11.696-13.108 20.847-17.029 9.972-4.273 17.495-14.39 21.883-23.952 6.155,6.7 16.766,6.08 24.417,8.72 8.693,3 14.724,5.33 21.364-1.308 6.876-6.872-1.481-10.724-6.54-18.311-2.744-4.115-4.226-9.113-7.849-12.644-3.574-3.486-8.546-3.77-10.463-8.722" fill="#f7edcc" fill-rule="evenodd" stroke="#000" stroke-linecap="square" stroke-miterlimit="10" stroke-width=".7506"/>
 <path d="m370.525,49.473c-10.042-.883-20.424,7.215-27.905,13.079 3.775.035 23.035,5.76 16.569-5.232 5.408.719 7.682-5.692 11.336-7.847" fill="#e8cca6" fill-rule="evenodd"/>
 <path d="m323.437,229.095c-1.729,5.79-.017,10.019-6.977,6.539-4.164-2.082-5.815,1.283-10.465.436-4.88-.89-9.857-6.159-12.209-10.464 3.074,2.006 16.753,9.323 17.441,2.616 4.523,6.868 10.677-8.53 12.21.873" fill="#4c3305" fill-rule="evenodd"/>
 <path d="m188.271,37.266c-24.025,13.728-49.186,25.865-76.739,30.518-24.827,4.192-57.624-.487-76.739-18.311 5.772,10.122 22.609,15.474 33.036,18.682 13.601,4.185 26.381,5.84 40.525,4.898 13.151-.876 25.949-7.035 38.736-9.774 13.106-2.808 28.596-11.634 42.053-10.318-9.506-.934-7.865-12.205-.872-15.695" fill="#e8cca6" fill-rule="evenodd"/>
 <path d="m330.41 113.12c16.142-6.078 31.009-16.221 38.37-32.262" fill="none" stroke="#000" stroke-linecap="square" stroke-miterlimit="10" stroke-width=".7506"/>
 <path d="m308.61,141.899c7.45-2.486 13.873-5.032 16.569-13.079 1.766-5.271-.542-12.405 5.232-15.695-2.408-.338-8.66-.673-10.464,0-3.633,1.356-1.871-1.132-3.488,2.615-.824,1.91.759,5.773.872,7.849 .279,5.113-.148,8.092-2.617,12.207-1.674,2.793-6.087,5.701-6.104,6.103" fill="#73592b" fill-rule="evenodd" stroke="#000" stroke-linecap="square" stroke-miterlimit="10" stroke-width=".7506"/>
 <path d="m331.28 229.1c10.446 6.053 4.485-9.945 2.616-13.952-2.328-4.992-4.71-9.765-10.464-12.644-14.996-7.501-53.179-10.202-50.488-34.386 1.582-14.225 8.887-27.854 13.41-41.425 1.978-5.932 5.54-9.328-0.42-10.948-7.114-1.934-7.771 3.818-8.583 9.511-1.797 12.572-4.821 28.584-9.729 40.19-1.87 4.423-4.114 5.252-2.616 10.464 1.691 5.885 7.995 10.934 12.209 14.823 10.692 9.868 23.436 13.878 35.317 21.799 6.25 4.167 10.132 21.926 18.748 16.568" fill="#73592b" fill-rule="evenodd" stroke="#000" stroke-linecap="square" stroke-miterlimit="10" stroke-width=".7506"/>
 <path d="m316.46,216.015c-7.364-8.472-18.613-9.791-27.469-15.695-8.925-5.95-18.662-13.77-23.545-23.541-1.934-3.868-.908-5.792.436-9.592 2.019-5.708 3.817-11.151 5.232-17.439 2.282-10.143 4.005-24.874 8.72-34.007-3.442,10.887-6.06,22.263-10.056,32.917-1.476,3.934-1.806,11.206-4.769,14.169-2.906,2.906-5.803,9.059-4.797,13.079 2.157,8.625 15.525,13.885 22.46,18.351 11.263,7.252 22.525,14.505 33.788,21.758" fill="#73592b" fill-rule="evenodd" stroke="#4f0d05" stroke-linecap="square" stroke-miterlimit="10" stroke-width=".7506"/>
 <path d="m323.437,229.095c1.52.531 8.146.298 8.283.436 3.92,3.92 5.292-1.592 5.669-3.925 1.067-6.599-4.354-10.577-6.104-15.694-1.784,6.027 4.768,10.48.872,18.311-.287-6.02-13.486-8.562-8.72.872" fill="#190000" fill-rule="evenodd"/>
 <path d="m265.01,113.125c-.085,5.705 9.601,8.498 11.336,13.951 4.676-17.414 5.458-32.935 4.361-50.573-.624-10.042-3.443-21.188-12.209-27.031-3.822-2.547-6.664-5.231-11.337-5.231-2.95,0-4.125.991-6.977-.436-5.836-2.92-5.954-5.524-12.821-4.149-10.647,2.13-20.323,5.288-29.649,10.883-11.519,6.91 3.297,13.184 1.485,20.733-1.369,5.706-8.559,3.301-13.081,5.232-1.581-3.705-1.362-8.573 1.745-11.336-12.937,2.549-6.92,18.019-3.908,25.545 1.645,4.11 2.791,6.786 6.524,9.333 4.146,2.828 6.895.518 10.465,1.744 1.474.506 2.725,1.854 3.923,3.051 2.939,2.937 7.401,3.922 11.385,5.249 4.317,1.438 9.302,1.469 13.469,3.035 1.945.731 4.36-1.438 4.36,1.308 0,1.88.432,4.712.871,6.54 1.97,8.189 4.361,14.169 4.361,23.059 0,8.948.206,17.766-.873,26.642-.914,7.519.046,10.308 7.85,11.336-1.043-14.274-15.619-67.459 8.72-68.885" fill="#cc9670" fill-rule="evenodd"/>
 <path d="m251.929,126.204c0,18.856 2.992,37.067 4.361,55.805-8.289-1.093-8.843-4.394-7.713-12.289 1.434-10.023.736-20.397.736-30.518 0-7.197-6.975-16.67-5.232-23.462 3.007-11.723 7.056,7.681 7.848,10.464" fill="#73592b" fill-rule="evenodd"/>
 <path d="m270.242,50.345c-3.077-2.508-6.253-4.196-9.593-6.104 .208,8.219 6.621,10.366 10.465,16.131 5.551,8.329 10.197,19.789 9.593,30.082 0-10.526.023-20.001-3.94-29.905-1.721-4.298-6.415-13.878 2.195-14.564-3.586-.134-7.504.716-8.72,4.36" fill="#f7edcc" fill-rule="evenodd"/>
 <path d="m214.431,104.405c-4.6-5.972-14.009-.111-18.731-9.559-2.108-4.217-3.043-8.641-3.94-12.24-.748-2.999.074-4.766-2.616-6.976 13.042,2.156 15.042,22.402 25.287,28.775" fill="#e8cca6" fill-rule="evenodd"/>
 <path d="m374.014,26.802c2.739,4.234 3.903,8.221 5.669,13.515 2.199,6.598 2.335,14.875 6.54,18.747 4.172,3.842 7.042,4.491 10.028,10.463 3.057,6.11 10.186,5.653 15.261,9.592-3.894,2.667-2.138,14.629-11.337,10.027-2.955-1.479-6.553-3.762-9.592-4.796-4.205-1.431-10.21-.352-13.953-2.616-5.73-3.467-2.616-3.837-2.616-9.156 0-3.529-.744-9.527-4.36-11.335-7.919-3.96 1.582-8.048 0-13.515-.905-3.126-3.459-1.751-5.231-3.488-2.414-2.364-3.021-4.298-4.796-7.848l-5.232-10.463c-1.086-2.175-.018-5.685-1.744-7.412-2.051-2.048.87-4.356 1.744-5.231 1.404-1.406 3.543,2.136 4.796,3.052 4.208,3.077 11.394,5.674 14.823,10.464" fill="#cc9670" fill-rule="evenodd"/>
 <path d="m411.512,79.119c-6.134-4.76-12.369-3.816-16.133-11.335-1.287-2.571-2.389-5.218-4.796-6.976-2.949-2.153-6.455-.533-7.412-4.36-2.165-8.656-3.374-16.948-6.541-25.286-1.533-4.038-5.389-10.303-.871-14.823 9.771-9.776 12.224,19.631 13.08,26.158 1.458,11.115 8.467,9.649 13.952,17.875 4.817,7.224 9.394,14.367 14.825,20.491-1.124-.01-1.37.006-2.616,0-.515-2.556-.898-1.649-2.617-3.488 .179,1.129-.32.994-.871,1.744" fill="#e8cca6" fill-rule="evenodd"/>
 <path d="m382.734,23.314c.527,3.711 6.704,15.968 3.925,18.747-1.354,1.354.745,5.483-.437,6.54-4.191,3.746-4.411-3.513-5.232-5.231-3.247-6.793-11.465-21.206-2.615-26.158 .868,2.291 2.1,4.907 4.359,6.102" fill="#f7edcc" fill-rule="evenodd"/>
 <path d="m381.86 48.601c-0.098-7.611-4.036-15.906-7.849-21.798" fill="none" stroke="#000" stroke-linecap="square" stroke-miterlimit="10" stroke-width=".7506"/>
 <path d="m363.55 61.68c4.921 7.847 5.721 24.472-5.231 27.903 4.678-4.774 4.94-16.741-1.744-20.055 4.188-0.232 6.517-3.89 6.975-7.848" fill="#73592b" fill-rule="evenodd"/>
 <path d="m316.46,113.125c19.638.541 29.082-8.404 38.369-25.286-5.722,5.719-10.503,7.43-17.44,10.898-4.703,2.352-2.956.237-7.848-1.307-3.879-1.225-8.24-2.275-12.209-2.616-9.719-.835-14.124,7.66-22.673,2.616 1.77,10.172 7.849,20.172 7.849,30.518 0,3.944-11.08,12.105-13.953,13.078 5.936,6.769 18.806,3.002 23.981-2.179 7.777-7.784 2.85-16.16 3.924-25.722" fill="#cc9466" fill-rule="evenodd"/>
 <path d="m341.749,86.095c-3.452,3.285-12.525.548-17.441,1.744 4.075-2.729 5.111-8.875 3.488-13.08-2.221,5.784-17.887,10.689-11.336,15.695s19.468.156 25.289-4.359" fill="#73592b" fill-rule="evenodd"/>
 <path d="m324.308,92.198c-1.424-.299-9.998-1.306-10.464-2.616-1.423-4.006 8.748-9.444 11.336-10.463-6.527.927-12.188,4.562-16.569,9.591 4.529,3.749 10.133,3.488 15.697,3.488" fill="#e8cca6" fill-rule="evenodd"/>
 <path d="m318.203,48.601c-20.102-13.915-38.396-24.708-63.077-27.45-22.847-2.538-45.515,7.456-65.983,16.115 6.263,3.269 17.011,5.449 23.545,2.18 4.557-2.279 5.975-7.981 11.336-10.027l-.871,1.744c3.67,4.978 10.387-2.378 16.568-3.924 7.682-1.92 15.322-1.382 23.126.178 19.662,3.93 37.731,11.854 55.356,21.184" fill="#f7edcc" fill-rule="evenodd"/>
 <path d="m282.45,61.68c4.179,5.142 4.102,13.973 2.616,20.055-.619,2.532-3.13,6.205-1.745,8.284 1.462,2.193.872,5.242.872,7.848 0,12.371 2.32,12.643 13.954,12.643-1.87-5.6-2.993-11.587-4.797-17.002-2.068-6.212 7.286-10.275 13.081-12.208 2.666-.889 11.771-.849 11.771-4.796 0-3.77 3.132-7.681 6.104-9.591-4.631.861-8.266-1.249-10.464-5.232-.748.791-.422.921-.872,1.744-8.45-3.244-25.967,9.51-26.161-7.848-.673,2.352-1.718,5.311-4.359,6.103" fill="#73592b" fill-rule="evenodd"/>
 <path d="m295.531,66.04c5.191-2.218 11.917-4.736 17.44-2.616 .269-1.086.091-.919.872-1.744-5.14.065-19.346-1.355-18.312,4.36" fill="#e8cca6" fill-rule="evenodd"/>
 <path d="m317.33 106.15c1.472 3.114 0 15.183 0 20.055 0 7.473-2.911 12.297-9.593 15.695" fill="none" stroke="#4c0d05" stroke-linecap="square" stroke-miterlimit="10" stroke-width=".7506"/>
 <path d="m375.758,46.857c-3.244-10.462-5.149-20.416-17.44-23.543 2.377,4.218 1.764,12.227 5.232,15.696 2.995,2.995 7.487,4.416 9.592,8.719 .358-1.857 1.187-.237 2.616-.872" fill="#73332b" fill-rule="evenodd"/>
 <path d="m375.758,46.857c-3.244-10.462-5.149-20.416-17.44-23.543 .265.947 1.184,2.754 1.744,3.488 6.424-2.881 14.704,14.572 15.696,20.055" fill="#4c0d05" fill-rule="evenodd"/>
 <path d="m381.862,59.937c1.242.884 10.381,4.029 7.849,6.975-3.744,4.355-7.366-5.62-7.849-6.975" fill-rule="evenodd"/>
 <path d="m386.22 61.68c2.236 1.116 3.429 2.812 3.488 5.232 2.205-2.205 2.256-5.425 0-7.847-0.557 2.936-1.809 1.455-3.488 2.615" fill="#73592b" fill-rule="evenodd"/>
 <path d="m415.871,86.095c-1.218.517-1.827,1.275-3.488.872 .579-.495 1.098-1.86 1.745-2.616-7.212,4.777-3.982-10.807 0-3.488-.425.341-1.944,1.331-2.616,1.744l.871.872c1.829-5.211 7.57-2.567 3.488.872 .789-.466 1.018-.017 1.745-.872-.874.779-1.134,1.648-1.745,2.616" fill="#190000" fill-rule="evenodd"/>
 <path d="m387.095,65.167c-.009-.04 1.287-.478-.872-.872-.29.872 0,1.163.872.872" fill="#e8cc75" fill-rule="evenodd"/>
 <path d="m214.431,59.064c6.96,7.708 17.466,12.403 27.034,15.694-13.275.001-22.242-2.416-27.034-15.694" fill="#e8cca6" fill-rule="evenodd"/>
 <path d="m210.944,79.991c2.222,3.717 10.606,6.104 14.823,6.104 .966,0 3.037,4.917 4.36,6.104 1.99,1.784 6.228,2.554 8.72,3.488-10.498.519-26.781-3.386-27.903-15.696" fill="#e8cca6" fill-rule="evenodd"/>
 <path d="m393.2 89.583c-7.663-2.773-18.208-1.961-24.417-8.72-11.04 19.317-28.613 32.262-51.45 32.262 18.109-2.582 35.761-14.31 46.427-29.242 2.226-3.116 1.706-7.517 5.895-7.38 2.094 0.069 4.414 4.059 6.104 5.231 5.194 3.605 14.039 2.599 17.441 7.849" fill="#e8cca6" fill-rule="evenodd"/>
 <path d="m299.02,134.053c-5.014,1.401-7.451,6.83-10.465,6.974 3.374-3.722-5.074-8.556 2.616-13.078 .019,4.109 2.477,2.513 4.36,0 .147,1.391.83,1.905.871,3.488 .819-.801 2.566-1.305 3.488-2.616 1.328,1.984.628,3.486-.87,5.232" fill="#190000" fill-rule="evenodd"/>
 <path d="m288.56 141.03c2.019-2.227-1.581-6.136-1.744-9.59-2.143 4.352-0.09 7.4 1.744 9.59" fill="#73592b" fill-rule="evenodd"/>
 <path d="m247.57 168.06c-1.14 6.729-13.948 26.026 2.617 25.286 3.375-9.62-7.126-16.413-2.617-25.286" fill="#4c3305" fill-rule="evenodd"/>
 <path d="m308.61,225.605c-1.855-5.326-8.52-2.926-12.208-4.359-3.642-1.415-13.72-8.02-15.26-12.643-1.353-4.063-5.616-10.85-8.722-13.951-5.199-5.193-12.844-5.24-17.876-10.028-2.653,2.85-11.059-.973-9.593-4.359-5.028,4.076-.801,8.166 3.488,10.464 5.108,2.737 13.788-.167 17.441,3.487 3.074,3.076 4.445,7.458 6.976,10.464 3.745,4.448 8.962,8.088 13.113,12.239 3.432,3.432 6.485,7.815 11.304,7.815 3.725,0 7.943-.671 11.337.871" fill="#e8cca6" fill-rule="evenodd"/>
 <path d="m279.83 49.473c2.103 2.521 3.61 5.763 6.977 6.103-1.418 8.573-8.576 4.423-5.232 0-2.886-1.165-3.513-3.675-1.745-6.103" fill="#e8cca6" fill-rule="evenodd"/>
 <path d="m318.203,48.601c4.259,5.303 10.988,5.002 15.697,8.72 2.042,1.613 3.014,4.419 5.231,6.104 3.892,2.955 5.157.503 8.722,1.744 20.112,7.001 4.088,35.524-13.081,33.134 4.327-3.864 7.79-8.039 7.848-13.951-4.343,3.376-10.294.387-14.824,2.616 .995-4.074 1.883-7.916.872-12.208-.392-1.662-3.204-9.872-6.54-6.539-1.893,1.891-5.128,8.975-6.977,9.592-7.433,2.479-15.763,2.185-21.365,8.283 .221-4.575-6.219-10.322-9.593-7.847-2.765-1.561-5.339-16.918-6.975-21.799-1.653-4.934-2.303-1.769-.873-6.104 .528-1.601 4.236-2.4 4.361-3.488 .881-7.674-7.97.824-8.722.872-3.748.242-8.449-6.911-14.824-3.488 3.314,1.979 2.899,7.541 4.797,11.335 .355.713 2.378,7.125 2.18,7.847-1.231,4.492-3.199,2.519-7.412,3.924-6.054,2.018-27.648-1.612-27.469-8.283-5.864-2.4-9.053-8.452-13.953-10.899-5.043-2.519-9.077,2.355-13.081,4.359-4.737,2.371-6.452,7.631-10.464,10.028-6.564,3.922-20.524,3.817-27.905,3.488 5.979-4.013 10.917-9.734 14.824-15.695 2.172-3.313 3.727-7.215 6.541-10.027 3.836-3.834 5.038-2.12 10.028-.872 5.083,1.272 14.468,3.411 18.749-.872 3.229-3.23 5.275-7.341 10.028-9.155l-.871,1.744c3.67,4.978 10.387-2.378 16.568-3.924 7.682-1.92 15.322-1.382 23.126.178 19.663,3.929 37.732,11.853 55.357,21.183" fill="#e8b597" fill-rule="evenodd"/>
 <path d="m178.68 64.296c-32.359 8.089-68.925 19.83-102.12 11.529-16.751-4.188-36.517-11.184-49.609-22.864-14.446-12.888-21.236-29.026-26.161-47.086-3.491 38.965 41.458 68.285 73.619 76.081 19.882 4.819 38.066 6.552 58.5 4.283 9.547-1.061 18.532-3.525 27.909-5.534 7.938-1.701 20.553-7.953 28.332-5.074-3.662-5.762-3.207-15.184 1.744-20.055-3.232 1.467-5.509 5.467-8.72 6.976 1.34-1.645 2.426-3.395 3.488-4.36-2.798 1.423-5.842 3.283-6.977 6.104" fill="#cc9670" fill-rule="evenodd"/>
 <path d="m299.02 109.64c-1.946-3.92 1.376-4.94 4.359-3.488 4.169 2.029 6.104 15.11 6.104 19.184 0 5.368-8.548 19.424-13.952 11.335 11.537-7.765 2.671-16.24 3.489-27.031" fill="#bfb280" fill-rule="evenodd"/>
 <path d="m284.19 189.86c9.107 13.56 27.505 11.021 37.498 20.928 1.119-2.045 1.452-2.119 4.361-2.616-5.065-3.511-13.011-4.807-19.186-6.977-8.232-2.893-15.206-6.858-22.673-11.335" fill="#bfb280" fill-rule="evenodd"/>
 <path d="m323.437,113.997c-.515,4.915-7.395,14.077-2.617,18.311 4.568,4.048 5.21-15.602 8.722-19.183-2.183.312-3.982.333-6.105.872" fill="#bfb280" fill-rule="evenodd"/>
 <path d="m189.143,75.631c-6.621-2.45-15.084,2.235-21.605,3.633-8.492,1.819-16.963,4.379-25.485,5.958-16.822,3.119-33.695,2.48-50.578.872 19.578,1.305 37.584-1.074 56.683-5.232 8.64-1.881 16.848-3.834 25.324-6.376 1.201-.36 12.434-4.699 12.61-4.523 1.251,1.251 2.005,3.92 3.051,5.668" fill="#e8cca6" fill-rule="evenodd"/>
 <path d="m188.27 37.266c22.031-8.975 44.503-18.399 68.824-15.84 12.839 1.352 23.853 5.082 35.521 10.526 10.399 4.853 18.637 13.734 29.076 18.393-19.743-13.82-38.634-30.093-63.658-33.134-26.068-3.167-47.64 8.256-69.763 20.055" fill="#e8c28e" fill-rule="evenodd"/>
 <path d="m389.71 48.601c-3.049-9.699-1.563-20.505-5.232-29.646-4.943-12.316-10.465-0.095-10.465 7.848-3.806-5.316-11.043-6.682-15.261-10.899-4.349-4.349-8.458-1.348-5.668 4.796" fill="none" stroke="#000" stroke-linecap="square" stroke-miterlimit="10" stroke-width=".7506"/>
 <path d="m353.08 20.699c1.301 5.973 5.34 11.657 7.412 17.875 2.199 6.596 8.419 4.984 10.028 10.899-10.042-0.883-20.424 7.215-27.905 13.079-1.852-5.967-8.959-10.788-14.824-12.208-6.934-1.678-10.627-2.67-16.726-7.659-9.933-8.125-23.287-18.185-36.023-21.217-13.115-3.122-27.533-7.06-41.008-3.433-16.671 4.487-29.35 10.473-44.645 18.63-25.103 13.388-48.463 24.118-76.267 30.738-29.337 6.984-57.526-4.058-81.823-19.675" fill="none" stroke="#000" stroke-linecap="square" stroke-miterlimit="10" stroke-width=".7506"/>
 <path d="m31.304,47.729c-8.315-6.929-15.31-13.827-21.963-22.38-2.97-3.818-4.84-8.32-6.362-12.885-1.257-3.771 1.333-8.2.419-11.82-6.794,5.188-.218,23.458 2.917,29.336 7.941,14.888 17.096,24.872 30.286,35.285 23.669,18.685 58.499,23.347 87.664,21.812 14.842-.782 28.82-4.716 43.273-7.813 10.641-2.28 21.107-9.151 24.221,3.343 1.035,4.152 2.418,9.195 4.78,13.919 3.409,6.82 9.703,3.648 14.406,5.264 3.013,1.035 4.521,4.836 7.848,5.667 7.13,1.781 13.551,4.543 20.929,5.668" fill="none" stroke="#000" stroke-linecap="square" stroke-miterlimit="10" stroke-width=".7506"/>
 <path d="m239.721,113.125c6.435-1.868 5.066,11.002 7.412,15.694 3.712,7.429 1.308,15.844 1.308,23.761 0,9.337-.706,16.895-4.812,25.101-1.68,3.356-3.662,8.611-1.293,12.176 3.077,4.63 8.646,2.472 13.081,4.36 6.575,2.8 11.73,9.478 18.055,13.272 7.31,4.386 14.879,11.622 20.314,18.116 2.429,2.902 5.217,7.727 8.722,9.592 5.499,2.926 7.243-1.098 11.336-.872 3.744.206 9.903,7.422 8.721-1.742" fill="none" stroke="#000" stroke-linecap="square" stroke-miterlimit="10" stroke-width=".7506"/>
 <path d="m322.564,232.583c.088-1.353.792-1.953.872-3.488 1.527.847 12.38,2.484 13.952.872 3.435-3.522-2.343-14.548-4.796-17.004-3.241-3.244-3.769-7.768-9.156-10.464-7.383-3.692-15.559-3.905-22.674-7.411" fill="none" stroke="#000" stroke-linecap="square" stroke-miterlimit="10" stroke-width=".7506"/>
 <path d="m300.763,195.088c-11.69-4.937-27.797-10.91-27.905-26.158-.102-14.225 9.429-30.286 13.953-43.598 2.627-7.729.96-8.719 7.849-8.719 2.107,0 4.7-2.468 5.668.435 1.007,3.023 2.368,5.926 2.181,9.156-.342,5.889-3.308,6.688-6.977,9.592-2.057,1.628-4.357,4.343-6.977,5.23 4.681,5.338 14.713,3.886 20.056.873" fill="none" stroke="#000" stroke-linecap="square" stroke-miterlimit="10" stroke-width=".7506"/>
 <path d="m308.61,141.899c7.45-2.486 13.873-5.032 16.569-13.079 2.006-5.987-.152-11.279 5.232-15.695 6.363-5.218 15.879-7.248 22.673-12.207 6.977-5.092 12.119-12.259 15.697-20.055 4.413,4.804 10.598,5.47 16.568,6.976 3.813.962 9.484,4.359 13.08,4.359 3.57,0 12.159,2.71 14.389-1.744 1.665-3.325 4.855-4.195 4.797-8.719" fill="none" stroke="#000" stroke-linecap="square" stroke-miterlimit="10" stroke-width=".7506"/>
 <path d="m417.62 81.735c-1.127-4.454-10.073-12.371-13.081-17.439-3.712-6.255-12.438-9.53-14.824-15.695" fill="none" stroke="#000" stroke-linecap="square" stroke-miterlimit="10" stroke-width=".7506"/>
 <path d="m313.84 233.45c0.054-3.463-1.12-8.052-3.488-10.464" fill="none" stroke="#4c0d05" stroke-linecap="square" stroke-miterlimit="10" stroke-width=".7506"/>
 <path d="m332.16 229.1c-1.032-3.441-1.987-6.965-3.488-10.464" fill="none" stroke="#4c0d05" stroke-linecap="square" stroke-miterlimit="10" stroke-width=".7506"/>
 <path d="m276.35 127.08c3.783-14.09 4.361-26.289 4.361-40.11 0-19.923-3.243-31.517-20.058-42.725" fill="none" stroke="#4c0d05" stroke-linecap="square" stroke-miterlimit="10" stroke-width=".7506"/>
 <path d="m199.61 84.351c3.392 6.387 8.765 16.285 14.824 20.055" fill="none" stroke="#4c0d05" stroke-linecap="square" stroke-miterlimit="10" stroke-width=".7506"/>
 <path d="m299.89 115.74c-2.939-8.165-4.675-16.642-7.411-24.85-1.515-4.541 17.281-11.225 21.364-10.9" fill="none" stroke="#4c0d05" stroke-linecap="square" stroke-miterlimit="10" stroke-width=".7506"/>
</svg>
