<?xml version="1.0" encoding="UTF-8"?>
<svg version="1.1" viewBox="0 0 31 31" xmlns="http://www.w3.org/2000/svg">
 <defs>
  <filter id="c" x="-.36" y="-.36" width="1.72" height="1.72" color-interpolation-filters="sRGB">
   <feGaussianBlur stdDeviation="2.46429"/>
  </filter>
  <linearGradient id="d" x1="131.75" x2="111.82" y1="738.97" y2="716.11" gradientUnits="userSpaceOnUse">
   <stop stop-color="#4b4" offset="0"/>
   <stop stop-color="#68cc68" offset="1"/>
  </linearGradient>
 </defs>
 <g transform="matrix(.90129 0 0 .90129 -60.324 -646.32)" fill-rule="evenodd">
  <path transform="translate(-37.5 7.1429)" d="m137.5 727.18a15.893 15.893 0 1 1 -31.786 0 15.893 15.893 0 1 1 31.786 0z" fill="url(#d)" stroke="#007d01" stroke-width="1.6643"/>
  <path transform="matrix(1.0137 0 0 .9248 -33.944 63.092)" d="m122.14 721.65a8.2143 8.2143 0 1 1 -16.429 0 8.2143 8.2143 0 1 1 16.429 0z" fill="#3ae364" fill-opacity=".75" filter="url(#c)"/>
 </g>
 <g transform="matrix(.025582 -.028612 .02948 .026358 -15.022 2.1062)">
  <g transform="matrix(.93969 .34202 -.34202 .93969 288.96 -29.281)" stroke-miterlimit=".5">
   <path transform="matrix(1.6441,-2.7919,-2.8197,-1.5958,278.45,1529)" d="m254.1 122.62c0 32.669-26.483 59.152-59.152 59.152s-59.152-26.483-59.152-59.152 26.483-59.152 59.152-59.152" fill="none" opacity=".5" stroke="#000" stroke-linecap="square" stroke-miterlimit=".5" stroke-width="30.865"/>
   <path transform="matrix(2.4143,-4.39,3.3006,1.9982,-1050.7,900.01)" d="m169.74 286.71 43.096-0.19189-21.382 37.418z" opacity=".50152" stroke-width="0"/>
  </g>
 </g>
 <g transform="matrix(.025582 -.028612 .02948 .026358 -14.622 2.4318)">
  <g transform="matrix(.93969 .34202 -.34202 .93969 288.96 -29.281)" stroke-miterlimit=".5">
   <path transform="matrix(1.6441,-2.7919,-2.8197,-1.5958,278.45,1529)" d="m254.1 122.62c0 32.669-26.483 59.152-59.152 59.152s-59.152-26.483-59.152-59.152 26.483-59.152 59.152-59.152" fill="none" stroke="#fff" stroke-linecap="square" stroke-miterlimit=".5" stroke-width="30.865"/>
   <path transform="matrix(2.4143,-4.39,3.3006,1.9982,-1050.7,900.01)" d="m169.74 286.71 43.096-0.19189-21.382 37.418z" fill="#fff" stroke-width="0"/>
  </g>
 </g>
</svg>
