<?xml version="1.0" encoding="UTF-8"?>
<svg enable-background="new 0 0 135.827 135.788" viewBox="0 0 135.827 135.788" xmlns="http://www.w3.org/2000/svg">
 <defs>
  <radialGradient id="a" cx="67.899" cy="67.871" r="63.123" gradientUnits="userSpaceOnUse">
   <stop stop-color="#d4e4f7" offset="0"/>
   <stop stop-color="#7fb5f7" offset="1"/>
  </radialGradient>
 </defs>
 <path d="m135.83 67.871c0 34.604-27.143 64.467-61.629 67.638-34.499 3.174-66.781-21.087-73.092-55.204-6.31-34.109 14.981-68.47 48.409-77.845 33.44-9.377 69.573 8.831 81.906 41.291 2.921 7.688 4.406 15.896 4.406 24.12" fill="#5471af"/>
 <path d="m131.02 67.871c0 34.401-28.723 63.123-63.123 63.123s-63.124-28.722-63.124-63.123 28.723-63.124 63.124-63.124 63.123 28.723 63.123 63.124" fill="url(#a)"/>
 <path d="m124.94 43.335c5.099 29.727-12.656 59.589-41.206 69.318-30.284 10.317-64.357-4.933-77.023-34.265 6.085 35.498 42.584 58.834 77.361 49.449 35.905-9.69 55.667-50.264 40.868-84.502" fill="#68a0f2"/>
 <path d="m107.325,39.85c-8.729,1.806-18.779-10.562-26.351-13.708-14.143-5.879-31.808-3.149-44.617,4.855-13.551,8.467-23.188,24.73-24.672,40.694-.003.046-.005.055 0,.024 .999-9.667.324-18.755 4.003-28.1 6.101-15.49 19.292-27.619 35.2-32.492 16.444-5.037 34.427-1.832 48.593,7.769 4.374,2.967 21.215,18.19 7.844,20.958" fill="#b3e7fc"/>
 <path d="m69.685,35.486v12.89c0,5.086-.323,4.511 4.709,4.511 6.503,0 26.144-3.574 26.144,6.791 0,6.436 3.475,25.46-6.689,25.46-2.913,0-24.163-.7-24.163.648v14.9c0,4.555-4.701,8.931-8.864,4.78l-19.14-19.075c-3.965-3.952-19.588-15.04-12.936-21.721 4.872-6.647 12.335-12.346 18.15-18.164 3.989-3.991 7.979-7.984 11.966-11.975 2.763-2.765 10.823-5.815 10.823.955" fill="#fff"/>
 <path d="m60.233,31.892c-6.05,6.056-12.101,12.11-18.151,18.166-4.234,4.238-17.7,13.58-15.815,20.837 .745,2.877 3.727,5.113 5.742,7.12l12.164,12.125 11.429,11.391c2.143,2.137 4.665,5.645 7.856,6.168 7.33,1.203 7.123-5.902 7.123-10.802v-8.576c0-2.647.09-2.287 2.676-2.287 6.774,0 28.177,3.799 28.177-7.279 0-6.611 3.569-26.763-7.137-26.763-4.1-.56-8.663,0-12.796,0-3.678,0-10.92,1.972-10.92-2.336v-12.606c0-5.076-5.975-9.541-10.348-5.158m34.063,52.349h-25.397c.284,0 2.178,30.229-7.4,20.636-1.984-1.163-3.804-3.791-5.417-5.399l-12.731-12.688c-3.485-3.474-19.983-15.448-13.971-21.484 4.579-6.682 12.438-12.448 18.149-18.164 3.366-3.368 13.964-18.417 20.001-14.027 4.425,3.219-2.322,20.669 2.885,20.669h15.464c3.615,0 10.226-1.227 12.731,2.189 2.454,3.345 1.032,10.729 1.032,14.518 0,4.412 1.588,13.738-5.346,13.75" fill="#5471af"/>
</svg>
